<svg width="115" height="131" viewBox="0 0 115 131" fill="none" xmlns="http://www.w3.org/2000/svg">
<circle cx="84.0231" cy="57.5214" r="2.23819" fill="black"/>
<path d="M81.7844 50.1365C81.7844 51.3726 82.7865 52.3747 84.0226 52.3747C85.2587 52.3747 86.2608 51.3726 86.2608 50.1365H81.7844ZM5.23819 102.063V28.8736H0.761807V102.063H5.23819ZM48.2115 109.896H13.0719V114.373H48.2115V109.896ZM81.7844 28.8736V50.1365H86.2608V28.8736H81.7844ZM67.348 21.04H73.9507V16.5636H67.348V21.04ZM13.0719 21.04H21.2413V16.5636H13.0719V21.04ZM0.761807 102.063C0.761807 108.861 6.27319 114.373 13.0719 114.373V109.896C8.74544 109.896 5.23819 106.389 5.23819 102.063H0.761807ZM86.2608 28.8736C86.2608 22.075 80.7494 16.5636 73.9507 16.5636V21.04C78.2771 21.04 81.7844 24.5472 81.7844 28.8736H86.2608ZM5.23819 28.8736C5.23819 24.5472 8.74545 21.04 13.0719 21.04V16.5636C6.27321 16.5636 0.761807 22.075 0.761807 28.8736H5.23819Z" fill="black"/>
<rect x="47.9872" y="86.6181" width="16.3388" height="41.8542" rx="4.25257" stroke="black" stroke-width="4.47639"/>
<path d="M18.6667 50.3962L22.4811 54.1489C22.7424 54.406 23.1616 54.406 23.4229 54.1489L34.7817 42.9736" stroke="black" stroke-width="4.47639" stroke-linecap="round"/>
<path d="M18.6667 69.8679L22.4811 73.6206C22.7424 73.8777 23.1616 73.8777 23.4229 73.6206L34.7817 62.4453" stroke="black" stroke-width="4.47639" stroke-linecap="round"/>
<path d="M18.6667 89.7888L22.4811 93.5415C22.7424 93.7986 23.1616 93.7986 23.4229 93.5415L34.7817 82.3662" stroke="black" stroke-width="4.47639" stroke-linecap="round"/>
<path d="M43.5115 50.8076H70.8174" stroke="black" stroke-width="4.47639" stroke-linecap="round"/>
<path d="M43.5115 69.3838H70.8174" stroke="black" stroke-width="4.47639" stroke-linecap="round"/>
<path d="M103.341 126.458H69.9226C67.2031 126.458 64.9985 124.253 64.9985 121.534V91.4253C64.9985 89.8876 66.245 88.6411 67.7827 88.6411V88.6411C70.9592 88.6411 73.9192 87.0309 75.6449 84.3641L77.413 81.6319C79.6521 78.1719 80.8433 74.1384 80.8433 70.0171V68.9536C80.8433 65.9886 83.9872 64.0797 86.6179 65.4473V65.4473C90.0806 67.2475 92.0282 71.0388 91.4748 74.9021L89.6898 87.3633C89.5932 88.0377 90.1164 88.6411 90.7976 88.6411H106.405" stroke="black" stroke-width="4.47639" stroke-linecap="round"/>
<path d="M96.1089 95.795C94.8728 95.795 93.8707 96.7971 93.8707 98.0332C93.8707 99.2693 94.8728 100.271 96.1089 100.271V95.795ZM107.3 95.795H96.1089V100.271H107.3V95.795ZM96.1089 90.871H107.3V86.3946H96.1089V90.871ZM109.762 93.333C109.762 94.6927 108.66 95.795 107.3 95.795V100.271C111.132 100.271 114.238 97.165 114.238 93.333H109.762ZM114.238 93.333C114.238 89.501 111.132 86.3946 107.3 86.3946V90.871C108.66 90.871 109.762 91.9733 109.762 93.333H114.238Z" fill="black"/>
<path d="M94.3188 105.195C93.0827 105.195 92.0807 106.197 92.0807 107.434C92.0807 108.67 93.0827 109.672 94.3188 109.672V105.195ZM105.957 105.195H94.3188V109.672H105.957V105.195ZM104.948 100.271H105.957V95.795H104.948V100.271ZM108.419 102.733C108.419 104.093 107.317 105.195 105.957 105.195V109.672C109.789 109.672 112.896 106.565 112.896 102.733H108.419ZM112.896 102.733C112.896 98.9014 109.789 95.795 105.957 95.795V100.271C107.317 100.271 108.419 101.374 108.419 102.733H112.896Z" fill="black"/>
<path d="M93.4231 114.595C92.187 114.595 91.1849 115.597 91.1849 116.833C91.1849 118.069 92.187 119.071 93.4231 119.071V114.595ZM105.062 114.595H93.4231V119.071H105.062V114.595ZM94.6595 109.671H105.062V105.194H94.6595V109.671ZM107.524 112.133C107.524 113.493 106.421 114.595 105.062 114.595V119.071C108.894 119.071 112 115.965 112 112.133H107.524ZM112 112.133C112 108.301 108.894 105.194 105.062 105.194V109.671C106.421 109.671 107.524 110.773 107.524 112.133H112Z" fill="black"/>
<path d="M91.6328 126.458H103.16C105.817 126.458 107.972 124.304 107.972 121.646V121.646C107.972 118.988 105.817 116.834 103.16 116.834H91.6328" stroke="black" stroke-width="4.47639" stroke-linecap="round"/>
<path d="M67.0117 13.3176V30.3278H20.9049V13.3176C20.9049 12.8231 21.3058 12.4223 21.8002 12.4223H31.3125H32.8289L33.3912 11.0141L33.7731 10.0575C37.4467 0.857153 50.4699 0.857153 54.1435 10.0575L54.5255 11.0141L55.0878 12.4223H56.6041H66.1164C66.6109 12.4223 67.0117 12.8231 67.0117 13.3176Z" stroke="black" stroke-width="4.47639"/>
</svg>
