<svg width="209" height="51" viewBox="0 0 209 51" fill="none" xmlns="http://www.w3.org/2000/svg">
<g clip-path="url(#clip0_225_30)">
<path d="M47.0187 50.0585V32.5636C47.0187 28.9061 45.5011 27.0772 42.4658 27.0769C39.4305 27.0766 37.912 28.9055 37.9105 32.5636V50.0585H28.9632V32.5636C28.9632 28.9061 27.472 27.0772 24.4896 27.0769C21.4534 27.0769 19.9359 28.9058 19.9371 32.5636V50.0585H10.9899V31.5312C10.9899 27.714 12.3213 24.8251 14.9843 22.8646C17.3281 21.1146 20.497 20.2392 24.491 20.2383C28.5397 20.2383 31.5221 21.2722 33.4383 23.3402C35.0887 21.2722 38.0982 20.2383 42.4667 20.2383C46.461 20.2383 49.6296 21.1137 51.9724 22.8646C54.6351 24.8232 55.9666 27.7121 55.9669 31.5312V50.0585H47.0187Z" fill="black"/>
<path d="M156.682 49.9772V0H165.639V49.9772H156.682Z" fill="black"/>
<path d="M145.269 49.9772V47.0328C144.468 48.0932 143.109 48.942 141.192 49.5792C139.485 50.1607 137.858 50.4523 136.314 50.4542C132.05 50.4542 128.625 48.995 126.041 46.0766C123.457 43.1581 122.164 39.5507 122.162 35.2542C122.162 31.0115 123.421 27.4501 125.961 24.5906C128.209 22.0607 131.865 20.2933 136.074 20.2933C140.817 20.2933 143.587 22.0658 145.269 24.1127V0H153.986V49.9772H145.269ZM145.269 33.3449C145.269 31.7535 144.509 30.2279 142.99 28.7681C141.47 27.3082 139.911 26.5785 138.313 26.5788C136.022 26.5788 134.209 27.5075 132.876 29.3648C131.704 31.0114 131.118 33.0272 131.118 35.4125C131.118 37.7482 131.704 39.7375 132.876 41.3803C134.209 43.2919 136.021 44.2469 138.313 44.2454C139.699 44.2454 141.204 43.5956 142.83 42.2962C144.456 40.9967 145.269 39.6572 145.269 38.2775V33.3449Z" fill="black"/>
<path d="M105.295 50.7727C100.763 50.7727 97.0187 49.34 94.0615 46.4745C91.1043 43.6091 89.6248 39.9213 89.6229 35.4111C89.6229 30.9037 91.1024 27.2169 94.0615 24.3505C97.0206 21.4841 100.765 20.0515 105.295 20.0527C109.824 20.0527 113.581 21.4853 116.568 24.3505C119.554 27.2156 121.046 30.9025 121.045 35.4111C121.045 39.9228 119.553 43.6106 116.568 46.4745C113.582 49.3385 109.825 50.7712 105.295 50.7727ZM105.295 27.2164C103.136 27.2164 101.477 28.0297 100.317 29.6563C99.1577 31.2829 98.5789 33.2156 98.5808 35.4543C98.5808 37.6927 99.1198 39.5852 100.198 41.132C101.438 42.8917 103.138 43.7707 105.296 43.7688C107.454 43.767 109.153 42.888 110.393 41.132C111.525 39.5865 112.091 37.6939 112.091 35.4543C112.091 33.2147 111.552 31.3221 110.474 29.7766C109.231 28.0698 107.505 27.2164 105.295 27.2164Z" fill="black"/>
<path d="M72.915 50.7723C68.3845 50.7723 64.64 49.3396 61.6816 46.4741C58.7231 43.6087 57.2441 39.9209 57.2444 35.4107C57.2444 30.9033 58.7235 27.2165 61.6816 24.3501C64.6397 21.4837 68.3842 20.0516 72.915 20.0537C77.444 20.0537 81.202 21.4863 84.189 24.3515C87.176 27.2166 88.668 30.9035 88.6649 35.4121C88.6649 39.9238 87.1728 43.6116 84.1885 46.4755C81.2043 49.3394 77.4464 50.7717 72.915 50.7723ZM72.915 27.216C70.7575 27.216 69.0983 28.0293 67.9373 29.6559C66.7763 31.2825 66.1967 33.2152 66.1986 35.4539C66.1986 37.6923 66.7375 39.5848 67.8155 41.1316C69.0561 42.8913 70.756 43.7703 72.915 43.7684C75.074 43.7666 76.7728 42.8876 78.0112 41.1316C79.1436 39.5861 79.7101 37.6935 79.7108 35.4539C79.7114 33.2143 79.1719 31.3217 78.0924 29.7762C76.8521 28.0694 75.1263 27.216 72.915 27.216Z" fill="black"/>
<path d="M176.242 38.1195C176.434 40.2418 179.205 44.8035 183.76 44.8035C188.194 44.8035 190.291 42.2557 190.395 41.2228L199.829 41.1434C198.801 44.276 194.618 50.9329 183.595 50.9329C179.011 50.9329 174.816 49.5125 171.803 46.6751C168.79 43.8376 167.287 40.1371 167.287 35.5731C167.287 30.8518 168.792 27.0985 171.803 24.3132C174.814 21.5279 178.719 20.1354 183.518 20.1357C188.741 20.1357 192.818 21.86 195.749 25.3085C198.469 28.4913 199.828 32.7621 199.828 38.1209L176.242 38.1195ZM190.874 32.6277C190.501 30.7171 189.701 29.152 188.476 27.9325C187.088 26.607 185.489 25.9438 183.679 25.9429C181.812 25.9429 180.253 26.5794 179.001 27.8526C177.75 29.1257 176.911 30.7171 176.484 32.6268L190.874 32.6277Z" fill="black"/>
<path d="M28.3679 18.8909L37.2561 12.4319L37.1417 12.0371C21.1086 13.989 13.8124 15.3759 0 23.3452L0.127752 23.7079L1.22633 23.718C1.1244 24.8197 0.949608 27.5392 1.17467 31.629C-0.358351 36.0442 1.13547 39.0437 2.53798 42.3049C2.75935 38.9079 2.73629 35.1936 1.68937 31.4958C1.47168 27.4345 1.65155 24.7623 1.74979 23.723L10.9069 23.8102C10.9069 23.8102 10.8465 26.5646 11.1781 29.1542C19.3611 32.016 27.5898 29.1441 31.9555 22.0892C30.7463 20.7363 28.3679 18.8909 28.3679 18.8909Z" fill="black"/>
<path d="M202.231 50.9997H201.434V47.0307H200.078V46.3467H203.599V47.0307H202.231V50.9997ZM206.122 50.9997L204.818 47.3924H204.766L204.805 48.2247V50.9997H204.033V46.3467H205.246L206.517 49.9544L207.833 46.3467H209V50.9997H208.177V48.2913L208.216 47.4067H208.164L206.796 51.0016L206.122 50.9997Z" fill="black"/>
</g>
<defs>
<clipPath id="clip0_225_30">
<rect width="209" height="51" fill="white"/>
</clipPath>
</defs>
</svg>
