<svg width="120" height="120" viewBox="0 0 120 120" fill="none" xmlns="http://www.w3.org/2000/svg">
<g clip-path="url(#clip0_245_2)">
<path fill-rule="evenodd" clip-rule="evenodd" d="M65.5485 3.16796C65.9978 5.14612 64.7582 7.11388 62.7801 7.56311C37.0613 13.4037 26.1528 26.2988 22.3323 39.4884C18.4055 53.0451 21.7276 67.7386 26.1259 77.142C26.9854 78.9795 26.1926 81.1659 24.3549 82.0253C22.5176 82.8848 20.3313 82.0918 19.4719 80.2544C14.5932 69.8237 10.6997 53.245 15.2764 37.4446C19.9594 21.2774 33.2733 6.731 61.1534 0.399617C63.1315 -0.049607 65.0993 1.18983 65.5485 3.16796Z" fill="black"/>
<path d="M29.4197 16.3051C30.0338 23.3103 24.8529 29.4873 17.8476 30.1014C10.8423 30.7156 4.66544 25.5347 4.0512 18.5294C3.43697 11.5241 8.61795 5.34726 15.6232 4.73303C22.6285 4.1188 28.8053 9.29977 29.4197 16.3051Z" fill="black"/>
<path fill-rule="evenodd" clip-rule="evenodd" d="M54.1042 116.834C53.6503 114.857 54.8851 112.887 56.8623 112.433C82.5675 106.532 93.4457 93.6112 97.2353 80.4126C101.13 66.8468 97.7736 52.161 93.3533 42.7681C92.4895 40.9326 93.2774 38.7445 95.1127 37.8808C96.9482 37.017 99.1363 37.8047 100 39.6402C104.903 50.0593 108.835 66.6289 104.296 82.4399C99.6509 98.618 86.371 113.196 58.5058 119.592C56.5287 120.046 54.558 118.811 54.1042 116.834Z" fill="black"/>
<path d="M91.2545 103.797C90.6238 96.7936 95.7903 90.6045 102.794 89.974C109.798 89.3433 115.987 94.5098 116.617 101.514C117.248 108.517 112.082 114.706 105.078 115.337C98.0741 115.968 91.885 110.801 91.2545 103.797Z" fill="black"/>
<path fill-rule="evenodd" clip-rule="evenodd" d="M116.687 65.0392C114.707 65.4801 112.745 64.2321 112.304 62.2521C106.574 36.508 93.7265 25.5441 80.5534 21.6668C67.0138 17.6817 52.3061 20.9404 42.8837 25.2981C41.0427 26.1496 38.8599 25.3473 38.0084 23.5062C37.1568 21.6651 37.9592 19.4823 39.8002 18.6308C50.2517 13.7971 66.8472 9.97512 82.6277 14.6199C98.7747 19.3725 113.263 32.7492 119.474 60.6561C119.915 62.6364 118.667 64.5986 116.687 65.0392Z" fill="black"/>
<path d="M102.957 28.0981C95.9494 28.6823 89.7951 23.4747 89.2109 16.4668C88.627 9.45893 93.8345 3.30449 100.843 2.72048C107.85 2.13645 114.005 7.344 114.589 14.3519C115.173 21.3597 109.965 27.5142 102.957 28.0981Z" fill="black"/>
<path fill-rule="evenodd" clip-rule="evenodd" d="M3.17176 53.6611C5.15759 53.2471 7.10301 54.5212 7.51699 56.5072C12.8995 82.3259 25.5986 93.4619 38.7182 97.5163C52.2028 101.683 66.9532 98.6229 76.4334 94.3927C78.2858 93.5659 80.4575 94.3975 81.2843 96.25C82.1109 98.1023 81.2793 100.274 79.427 101.101C68.9111 105.793 52.2659 109.391 36.5493 104.535C20.4679 99.5649 6.16048 85.9946 0.325723 58.0063C-0.0882626 56.0205 1.18596 54.0751 3.17176 53.6611Z" fill="black"/>
<path d="M16.6243 91.6799C23.6394 91.1903 29.7231 96.4801 30.2127 103.495C30.7023 110.51 25.4124 116.594 18.3973 117.084C11.3822 117.573 5.29843 112.283 4.80883 105.268C4.31923 98.2532 9.60919 92.1695 16.6243 91.6799Z" fill="black"/>
</g>
<defs>
<clipPath id="clip0_245_2">
<rect width="120" height="120" fill="white"/>
</clipPath>
</defs>
</svg>
