<svg width="250" height="205" viewBox="0 0 250 205" fill="none" xmlns="http://www.w3.org/2000/svg">
<circle cx="90.2463" cy="4.68384" r="4.68384" fill="black"/>
<circle cx="143.172" cy="64.1682" r="4.68384" fill="black"/>
<circle cx="177.832" cy="64.1682" r="4.68384" fill="black"/>
<circle cx="160.5" cy="64.1682" r="4.68384" fill="black"/>
<path d="M68.9344 148.946V148.946C80.7044 148.946 90.2459 158.488 90.2459 170.258V197.19C90.2459 198.483 89.1974 199.532 87.904 199.532H7.34192C6.04852 199.532 5 198.483 5 197.19V170.258C5 158.488 14.5415 148.946 26.3115 148.946V148.946" stroke="black" stroke-width="9.36768"/>
<circle cx="47.6254" cy="133.958" r="24.8244" stroke="black" stroke-width="9.36768"/>
<path d="M223.501 149.415V149.415C235.271 149.415 244.812 158.957 244.812 170.727V197.659C244.812 198.952 243.764 200.001 242.47 200.001H161.908C160.615 200.001 159.566 198.952 159.566 197.659V170.727C159.566 158.957 169.108 149.415 180.878 149.415V149.415" stroke="black" stroke-width="9.36768"/>
<circle cx="202.188" cy="134.426" r="24.8244" stroke="black" stroke-width="9.36768"/>
<path d="M72.6833 4.68359C53.1529 4.68359 37.3203 20.5161 37.3203 40.0466C37.3203 59.122 47.9556 74.6698 66.648 75.384C67.4005 75.4127 68.0245 76.0032 68.0561 76.7556L68.7586 93.4396C68.827 95.0626 70.7873 95.8356 71.9449 94.696L90.7154 76.2172C91.2411 75.6997 91.9492 75.4096 92.687 75.4096H115.775M183.456 40.0466C183.456 20.5161 167.624 4.68359 148.093 4.68359H107.344" stroke="black" stroke-width="9.36768" stroke-linecap="round"/>
<path d="M136.232 42.623H183.363C195.569 42.623 205.465 52.0348 205.465 63.6449C205.465 74.8212 199.008 83.9605 187.636 84.6277C186.886 84.6717 186.264 85.2586 186.231 86.0097L185.885 93.8246C185.814 95.4234 183.901 96.2032 182.733 95.1094L172.391 85.4256C171.87 84.938 171.183 84.6667 170.47 84.6667H136.232C124.025 84.6667 114.13 75.2549 114.13 63.6449C114.13 52.0348 124.025 42.623 136.232 42.623Z" stroke="black" stroke-width="7.96253"/>
</svg>
