<svg width="175" height="201" viewBox="0 0 175 201" fill="none" xmlns="http://www.w3.org/2000/svg">
<circle cx="128.136" cy="88.1294" r="3.42916" fill="black"/>
<path d="M124.706 76.8129C124.706 78.7068 126.242 80.2421 128.136 80.2421C130.029 80.2421 131.565 78.7068 131.565 76.8129H124.706ZM7.42916 156.369V44.2359H0.570842V156.369H7.42916ZM73.269 168.371H19.4312V175.23H73.269V168.371ZM124.706 44.2359V76.8129H131.565V44.2359H124.706ZM102.588 32.2338H112.704V25.3755H102.588V32.2338ZM19.4312 32.2338H31.9476V25.3755H19.4312V32.2338ZM0.570842 156.369C0.570842 166.786 9.01491 175.23 19.4312 175.23V168.371C12.8027 168.371 7.42916 162.998 7.42916 156.369H0.570842ZM131.565 44.2359C131.565 33.8196 123.121 25.3755 112.704 25.3755V32.2338C119.333 32.2338 124.706 37.6073 124.706 44.2359H131.565ZM7.42916 44.2359C7.42916 37.6073 12.8027 32.2338 19.4312 32.2338V25.3755C9.01493 25.3755 0.570842 33.8196 0.570842 44.2359H7.42916Z" fill="black"/>
<rect x="72.9253" y="132.708" width="25.0329" height="64.1253" rx="6.5154" stroke="black" stroke-width="6.85832"/>
<path d="M28.0039 77.2121L33.8479 82.9616C34.2483 83.3555 34.8905 83.3555 35.2909 82.9616L52.6938 65.8398" stroke="black" stroke-width="6.85832" stroke-linecap="round"/>
<path d="M28.0039 107.045L33.8479 112.795C34.2483 113.189 34.8905 113.189 35.2909 112.795L52.6938 95.6729" stroke="black" stroke-width="6.85832" stroke-linecap="round"/>
<path d="M28.0039 137.566L33.8479 143.315C34.2483 143.709 34.8905 143.709 35.2909 143.315L52.6938 126.193" stroke="black" stroke-width="6.85832" stroke-linecap="round"/>
<path d="M66.0664 77.8418H107.902" stroke="black" stroke-width="6.85832" stroke-linecap="round"/>
<path d="M66.0664 106.304H107.902" stroke="black" stroke-width="6.85832" stroke-linecap="round"/>
<path d="M157.733 193.747H106.532C102.366 193.747 98.9883 190.369 98.9883 186.203V140.073C98.9883 137.718 100.898 135.808 103.254 135.808V135.808C108.121 135.808 112.656 133.341 115.3 129.255L118.009 125.069C121.439 119.768 123.264 113.588 123.264 107.274V105.644C123.264 101.102 128.081 98.1769 132.111 100.272V100.272C137.417 103.03 140.401 108.839 139.553 114.758L136.818 133.85C136.67 134.883 137.472 135.808 138.515 135.808H162.428" stroke="black" stroke-width="6.85832" stroke-linecap="round"/>
<path d="M146.652 146.768C144.758 146.768 143.223 148.304 143.223 150.197C143.223 152.091 144.758 153.627 146.652 153.627V146.768ZM163.798 146.768H146.652V153.627H163.798V146.768ZM146.652 139.224H163.798V132.366H146.652V139.224ZM167.57 142.996C167.57 145.079 165.881 146.768 163.798 146.768V153.627C169.669 153.627 174.429 148.867 174.429 142.996H167.57ZM174.429 142.996C174.429 137.125 169.669 132.366 163.798 132.366V139.224C165.881 139.224 167.57 140.913 167.57 142.996H174.429Z" fill="black"/>
<path d="M143.91 161.171C142.016 161.171 140.481 162.706 140.481 164.6C140.481 166.494 142.016 168.029 143.91 168.029V161.171ZM161.742 161.171H143.91V168.029H161.742V161.171ZM160.195 153.626H161.742V146.768H160.195V153.626ZM165.514 157.398C165.514 159.482 163.825 161.171 161.742 161.171V168.029C167.613 168.029 172.372 163.269 172.372 157.398H165.514ZM172.372 157.398C172.372 151.527 167.613 146.768 161.742 146.768V153.626C163.825 153.626 165.514 155.315 165.514 157.398H172.372Z" fill="black"/>
<path d="M142.539 175.573C140.645 175.573 139.11 177.108 139.11 179.002C139.11 180.896 140.645 182.431 142.539 182.431V175.573ZM160.371 175.573H142.539V182.431H160.371V175.573ZM144.433 168.029H160.371V161.17H144.433V168.029ZM164.143 171.801C164.143 173.884 162.454 175.573 160.371 175.573V182.431C166.242 182.431 171.001 177.672 171.001 171.801H164.143ZM171.001 171.801C171.001 165.93 166.242 161.17 160.371 161.17V168.029C162.454 168.029 164.143 169.718 164.143 171.801H171.001Z" fill="black"/>
<path d="M139.793 193.747H157.453C161.525 193.747 164.826 190.446 164.826 186.375V186.375C164.826 182.303 161.525 179.002 157.453 179.002H139.793" stroke="black" stroke-width="6.85832" stroke-linecap="round"/>
<path d="M102.074 20.4035V46.4651H31.4331V20.4035C31.4331 19.6459 32.0472 19.0318 32.8047 19.0318H47.3786H49.7018L50.5633 16.8743L51.1485 15.4087C56.7769 1.31278 76.7299 1.31278 82.3583 15.4087L82.9435 16.8743L83.805 19.0318H86.1281H100.702C101.46 19.0318 102.074 19.6459 102.074 20.4035Z" stroke="black" stroke-width="6.85832"/>
</svg>
