<?xml version="1.0" encoding="UTF-8" standalone="no"?>
<!DOCTYPE svg PUBLIC "-//W3C//DTD SVG 1.1//EN" "http://www.w3.org/Graphics/SVG/1.1/DTD/svg11.dtd">
<svg width="100%" height="100%" viewBox="0 0 423 228" version="1.1" xmlns="http://www.w3.org/2000/svg" xmlns:xlink="http://www.w3.org/1999/xlink" xml:space="preserve" xmlns:serif="http://www.serif.com/" style="fill-rule:evenodd;clip-rule:evenodd;stroke-linejoin:round;stroke-miterlimit:2;">
    <g id="Optimized" transform="matrix(1,0,0,1,-17.6667,-13.0833)">
        <g id="Button">
            <g id="Fill" transform="matrix(4.13121,0,0,4.15,3,8.01667)">
                <path d="M5.769,21.673C5.769,15.175 11.034,9.91 17.532,9.91L92.043,9.91C98.541,9.91 103.806,15.175 103.806,21.673L103.806,37.36C103.806,43.858 98.541,49.123 92.043,49.123L17.532,49.123C11.034,49.123 5.769,43.858 5.769,37.36L5.769,21.673Z" style="fill:rgb(161,29,38);fill-rule:nonzero;"/>
            </g>
            <g id="Border" transform="matrix(4.13121,0,0,4.15,3,8.01667)">
                <path d="M5.769,21.673C5.769,15.175 11.034,9.91 17.532,9.91L92.043,9.91C98.541,9.91 103.806,15.175 103.806,21.673L103.806,37.36C103.806,43.858 98.541,49.123 92.043,49.123L17.532,49.123C11.034,49.123 5.769,43.858 5.769,37.36L5.769,21.673ZM92.043,7.948L17.532,7.948C9.963,7.948 3.807,14.104 3.807,21.673L3.807,37.36C3.807,44.929 9.963,51.085 17.532,51.085L92.043,51.085C99.603,51.085 105.768,44.929 105.768,37.36L105.768,21.673C105.768,14.104 99.603,7.948 92.043,7.948Z" style="fill:rgb(38,38,38);fill-rule:nonzero;"/>
            </g>
        </g>
        <g id="Text">
            <g transform="matrix(0.991491,0,0,0.996,3,8.01667)">
                <g id="Fill1" serif:id="Fill">
                    <path d="M268.717,151.175L268.721,151.162L268.717,151.175ZM268.208,97.392L268.208,155.854C271.338,155.854 273.342,155.258 274.196,154.075L274.338,153.854L274.458,153.629C275.15,152.133 275.5,148.579 275.5,142.954L275.5,108.425C275.5,104.404 275.362,101.821 275.113,100.688C274.85,99.55 274.271,98.717 273.358,98.187C272.442,97.654 270.725,97.392 268.208,97.392ZM245.096,82.158L262.375,82.158C273.546,82.158 281.083,82.671 285.021,83.696C288.954,84.721 291.946,86.404 293.992,88.75C296.042,91.092 297.325,93.7 297.838,96.579C298.35,99.45 298.608,105.104 298.608,113.521L298.608,144.671C298.608,152.654 298.238,157.987 297.483,160.679C296.725,163.371 295.425,165.479 293.558,167C291.687,168.517 289.392,169.579 286.637,170.183C283.892,170.788 279.762,171.088 274.238,171.088L245.096,171.088L245.096,82.158ZM336.317,99.213L336.321,99.192L336.317,99.213ZM330.604,99.129L330.604,99.125L330.604,99.129ZM306.621,114.175C306.621,105.675 307.083,99.504 307.992,95.658C308.908,91.808 311.542,88.283 315.879,85.079C320.217,81.871 325.825,80.271 332.704,80.271C339.479,80.271 345.104,81.667 349.571,84.446C354.033,87.233 356.946,90.542 358.304,94.371C359.658,98.2 360.338,103.762 360.338,111.054L360.338,114.904L337.221,114.904L337.221,106.812C337.221,101.712 337,98.517 336.563,97.238C336.117,95.95 335.075,95.308 333.425,95.308C331.988,95.308 331.021,95.858 330.504,96.958C329.992,98.058 329.733,100.883 329.733,105.429L329.733,148.154C329.733,152.15 329.992,154.775 330.504,156.042C331.021,157.308 332.05,157.938 333.587,157.938C335.275,157.938 336.429,157.225 337.025,155.8C337.637,154.371 337.942,151.588 337.942,147.454L337.942,136.908L333.254,136.908L333.254,123.367L360.338,123.367L360.338,171.088L345.779,171.088L343.633,164.717C342.054,167.462 340.075,169.525 337.679,170.904C335.275,172.288 332.45,172.979 329.187,172.979C325.312,172.979 321.683,172.037 318.292,170.15C314.908,168.262 312.333,165.925 310.579,163.142C308.825,160.354 307.725,157.433 307.283,154.375C306.846,151.317 306.621,146.729 306.621,140.608L306.621,114.175ZM395.404,100.187L395.408,100.183L395.404,100.187ZM390.367,99.196L390.367,99.188L390.367,99.196ZM367.342,105.279C367.342,98.467 368.213,93.479 369.954,90.329C371.692,87.179 374.5,84.713 378.396,82.933C382.279,81.158 386.971,80.271 392.475,80.271C398.475,80.271 403.608,81.242 407.833,83.179C412.071,85.121 414.879,87.567 416.254,90.512C417.629,93.462 418.317,98.467 418.317,105.529L418.317,109.046L396.829,109.046L396.829,102.454C396.829,99.379 396.546,97.417 395.996,96.575C395.446,95.733 394.512,95.308 393.221,95.308C391.825,95.308 390.758,95.879 390.033,97.008C389.317,98.146 388.946,99.862 388.946,102.167C388.946,105.129 389.358,107.362 390.179,108.862L390.579,109.5C391.579,110.862 393.633,112.471 396.733,114.308C397.296,114.642 397.846,114.971 398.383,115.296C407.75,120.979 413.704,125.679 416.246,129.392C418.929,133.308 420.267,139.633 420.267,148.35C420.267,154.692 419.529,159.367 418.046,162.371C416.55,165.371 413.683,167.896 409.429,169.925C405.179,171.958 400.217,172.979 394.575,172.979C388.371,172.979 383.083,171.804 378.7,169.462C374.312,167.117 371.446,164.133 370.096,160.508C368.738,156.883 368.054,151.742 368.054,145.075L368.054,139.254L389.537,139.254L389.537,150.079C389.537,153.413 389.846,155.558 390.446,156.508C391.058,157.463 392.133,157.938 393.679,157.938C395.225,157.938 396.375,157.337 397.129,156.125C397.887,154.917 398.258,153.117 398.258,150.733C398.258,145.487 397.554,142.058 396.121,140.446C394.65,138.829 391.037,136.142 385.279,132.367C379.517,128.562 375.7,125.8 373.825,124.079C371.958,122.358 370.413,119.975 369.183,116.933C367.95,113.892 367.342,110.008 367.342,105.279Z" style="fill:white;fill-rule:nonzero;"/>
                </g>
            </g>
            <g transform="matrix(0.991491,0,0,0.996,3,8.01667)">
                <g id="Border1" serif:id="Border">
                    <path d="M268.717,151.175L268.721,151.162L268.717,151.175ZM268.208,97.392L268.208,155.854C271.338,155.854 273.342,155.258 274.196,154.075L274.338,153.854L274.458,153.629C275.15,152.133 275.5,148.579 275.5,142.954L275.5,108.425C275.5,104.404 275.362,101.821 275.113,100.688C274.85,99.55 274.271,98.717 273.358,98.187C272.442,97.654 270.725,97.392 268.208,97.392ZM245.096,82.158L262.375,82.158C273.546,82.158 281.083,82.671 285.021,83.696C288.954,84.721 291.946,86.404 293.992,88.75C296.042,91.092 297.325,93.7 297.838,96.579C298.35,99.45 298.608,105.104 298.608,113.521L298.608,144.671C298.608,152.654 298.238,157.987 297.483,160.679C296.725,163.371 295.425,165.479 293.558,167C291.687,168.517 289.392,169.579 286.637,170.183C283.892,170.788 279.762,171.088 274.238,171.088L245.096,171.088L245.096,82.158ZM262.375,75.908L238.846,75.908L238.846,177.338L274.238,177.338C280.275,177.338 284.771,176.996 287.983,176.288C291.675,175.479 294.879,173.979 297.504,171.842C300.371,169.513 302.392,166.321 303.496,162.367C304.083,160.287 304.858,156.192 304.858,144.671L304.858,113.521C304.858,104.654 304.571,98.754 303.992,95.479C303.279,91.483 301.496,87.829 298.7,84.633C295.821,81.342 291.742,78.988 286.596,77.646C282.042,76.463 274.342,75.908 262.375,75.908ZM336.317,99.213L336.321,99.192L336.317,99.213ZM330.604,99.129L330.604,99.125L330.604,99.129ZM306.621,114.175C306.621,105.675 307.083,99.504 307.992,95.658C308.908,91.808 311.542,88.283 315.879,85.079C320.217,81.871 325.825,80.271 332.704,80.271C339.479,80.271 345.104,81.667 349.571,84.446C354.033,87.233 356.946,90.542 358.304,94.371C359.658,98.2 360.338,103.762 360.338,111.054L360.338,114.904L337.221,114.904L337.221,106.812C337.221,101.712 337,98.517 336.563,97.238C336.117,95.95 335.075,95.308 333.425,95.308C331.988,95.308 331.021,95.858 330.504,96.958C329.992,98.058 329.733,100.883 329.733,105.429L329.733,148.154C329.733,152.15 329.992,154.775 330.504,156.042C331.021,157.308 332.05,157.938 333.587,157.938C335.275,157.938 336.429,157.225 337.025,155.8C337.637,154.371 337.942,151.588 337.942,147.454L337.942,136.908L333.254,136.908L333.254,123.367L360.338,123.367L360.338,171.088L345.779,171.088L343.633,164.717C342.054,167.462 340.075,169.525 337.679,170.904C335.275,172.288 332.45,172.979 329.187,172.979C325.312,172.979 321.683,172.037 318.292,170.15C314.908,168.262 312.333,165.925 310.579,163.142C308.825,160.354 307.725,157.433 307.283,154.375C306.846,151.317 306.621,146.729 306.621,140.608L306.621,114.175ZM332.704,74.021C324.487,74.021 317.571,76.05 312.158,80.054C306.625,84.142 303.179,88.904 301.912,94.204C300.875,98.592 300.371,105.121 300.371,114.175L300.371,140.608C300.371,147.075 300.613,151.867 301.092,155.258C301.663,159.179 303.071,162.946 305.283,166.471C307.604,170.142 310.95,173.212 315.254,175.608C319.575,178.012 324.262,179.229 329.187,179.229C333.542,179.229 337.45,178.25 340.8,176.321L340.921,176.25L341.287,177.338L366.588,177.338L366.588,111.054C366.588,102.975 365.804,96.838 364.196,92.287C362.354,87.104 358.546,82.683 352.879,79.142L352.875,79.142L352.871,79.138C347.408,75.742 340.629,74.021 332.704,74.021ZM396.046,153.817L396.042,153.804L396.046,153.817ZM395.404,100.187L395.408,100.183L395.404,100.187ZM390.367,99.196L390.367,99.188L390.367,99.196ZM367.342,105.279C367.342,98.467 368.213,93.479 369.954,90.329C371.692,87.179 374.5,84.713 378.396,82.933C382.279,81.158 386.971,80.271 392.475,80.271C398.475,80.271 403.608,81.242 407.833,83.179C412.071,85.121 414.879,87.567 416.254,90.512C417.629,93.462 418.317,98.467 418.317,105.529L418.317,109.046L396.829,109.046L396.829,102.454C396.829,99.379 396.546,97.417 395.996,96.575C395.446,95.733 394.512,95.308 393.221,95.308C391.825,95.308 390.758,95.879 390.033,97.008C389.317,98.146 388.946,99.862 388.946,102.167C388.946,105.129 389.358,107.362 390.179,108.862L390.579,109.5C391.579,110.862 393.633,112.471 396.733,114.308C397.296,114.642 397.846,114.971 398.383,115.296C407.75,120.979 413.704,125.679 416.246,129.392C418.929,133.308 420.267,139.633 420.267,148.35C420.267,154.692 419.529,159.367 418.046,162.371C416.55,165.371 413.683,167.896 409.429,169.925C405.179,171.958 400.217,172.979 394.575,172.979C388.371,172.979 383.083,171.804 378.7,169.462C374.312,167.117 371.446,164.133 370.096,160.508C368.738,156.883 368.054,151.742 368.054,145.075L368.054,139.254L389.537,139.254L389.537,150.079C389.537,153.413 389.846,155.558 390.446,156.508C391.058,157.463 392.133,157.938 393.679,157.938C395.225,157.938 396.375,157.337 397.129,156.125C397.887,154.917 398.258,153.117 398.258,150.733C398.258,145.487 397.554,142.058 396.121,140.446C394.65,138.829 391.037,136.142 385.279,132.367C379.517,128.562 375.7,125.8 373.825,124.079C371.958,122.358 370.413,119.975 369.183,116.933C367.95,113.892 367.342,110.008 367.342,105.279ZM392.475,74.021C386.096,74.021 380.483,75.108 375.796,77.25C370.675,79.588 366.871,82.975 364.479,87.313C362.196,91.433 361.092,97.312 361.092,105.279C361.092,110.871 361.838,115.45 363.383,119.275C364.958,123.175 361.804,133.004 361.804,133.004L361.804,145.075C361.804,152.554 362.6,158.325 364.242,162.7C366.129,167.767 370,171.9 375.754,174.975C381.037,177.796 387.363,179.229 394.575,179.229C401.133,179.229 407.042,177.996 412.129,175.563C417.642,172.933 421.517,169.433 423.642,165.154C425.579,161.212 426.517,155.725 426.517,148.35C426.517,138.242 424.842,130.883 421.4,125.858C419.217,122.671 415.471,119.229 409.875,115.296L424.567,115.296L424.567,105.529C424.567,97.35 423.721,91.742 421.921,87.871C419.904,83.558 416.042,80.067 410.437,77.5L410.437,77.496C405.4,75.192 399.358,74.021 392.475,74.021Z" style="fill:rgb(38,38,38);fill-rule:nonzero;"/>
                </g>
            </g>
        </g>
        <g id="Hands">
            <g transform="matrix(4.13121,0,0,4.15,3,8.01667)">
                <path d="M44.451,28.108L44.46,28.108L44.451,28.108ZM29.484,12.943L29.493,12.943L29.484,12.943ZM20.259,12.268L20.259,12.223L20.259,12.268ZM31.185,10.549L31.203,10.522L31.203,10.531L31.185,10.549ZM25.092,18.01C25.488,18.01 27.387,16.885 27.594,16.768C27.801,16.642 28.35,16.021 28.584,15.778C28.818,15.544 30.339,14.032 30.483,13.879C30.627,13.726 32.04,11.62 32.13,11.539C32.22,11.458 33.021,10.198 33.192,9.964C33.363,9.721 33.885,8.875 34.218,8.65C34.551,8.416 35.307,7.633 36.063,6.733C36.828,5.842 37.521,5.266 38.043,4.726C38.565,4.186 39.816,3.106 39.816,3.106C39.816,3.106 40.311,2.782 40.869,2.782C41.193,2.782 41.535,2.89 41.805,3.241C42.084,3.583 42.183,3.907 42.183,4.204C42.174,4.708 41.877,5.122 41.643,5.365C41.283,5.761 39.195,8.299 39.195,8.299C39.195,8.299 37.791,9.82 37.233,10.981C36.675,12.133 34.668,14.023 34.092,15.166C33.894,15.571 33.822,15.94 33.822,16.246C33.822,16.822 34.047,17.191 34.047,17.191C34.047,17.191 34.587,16.633 34.875,16.399L35.055,16.246L35.208,16.102C35.712,15.616 36.531,14.77 36.765,14.5C37.053,14.158 37.836,13.411 38.169,13.06C38.502,12.709 38.682,12.673 38.997,12.502C39.312,12.331 40.32,11.539 40.77,11.314C41.22,11.098 42.849,9.721 43.164,9.532C43.479,9.352 44.595,8.56 45.351,7.885C45.774,7.507 46.377,7.192 46.962,7.192C47.412,7.192 47.853,7.372 48.213,7.858C48.456,8.182 48.546,8.488 48.546,8.767C48.546,9.442 47.997,9.928 47.808,10.063C47.538,10.252 47.178,10.666 46.674,10.882C46.179,11.107 44.685,12.637 44.208,12.997C43.722,13.357 42.003,14.797 41.814,14.995C41.625,15.184 40.698,16.282 40.041,16.651C39.375,17.02 38.763,17.749 38.358,17.92C37.962,18.091 36.774,19.288 36.54,19.54C36.477,19.621 36.45,19.756 36.45,19.909C36.45,20.269 36.594,20.719 36.594,20.719L37.638,19.891L37.665,19.873C37.89,19.693 39.276,18.577 39.51,18.397C39.753,18.217 40.455,17.821 40.968,17.686L41.076,17.659C41.589,17.56 42.696,16.885 42.813,16.831C42.93,16.786 43.407,16.354 44.649,15.697C45.891,15.04 46.971,14.545 47.403,14.041C47.664,13.735 48.402,13.267 49.086,13.267C49.5,13.267 49.905,13.447 50.175,13.942C50.319,14.212 50.382,14.482 50.382,14.725C50.391,15.652 49.554,16.327 49.284,16.453C48.942,16.615 48.321,17.074 47.673,17.533C47.025,17.992 45.54,18.919 44.712,19.45C43.884,19.981 42.543,21.043 41.445,21.61C40.347,22.168 38.871,23.104 38.169,23.491C37.773,23.707 37.692,23.995 37.692,24.202C37.692,24.373 37.746,24.499 37.746,24.499C37.746,24.499 37.926,25.201 38.133,25.291C38.232,25.327 38.322,25.408 38.529,25.408C38.718,25.408 39.015,25.336 39.51,25.102C40.536,24.634 41.049,24.391 41.481,24.301C41.922,24.202 42.354,24.283 43.02,24.085C43.677,23.878 46.728,23.005 46.728,23.005C46.728,23.005 47.304,22.816 47.646,22.69C47.988,22.564 48.753,22.483 48.753,22.483L48.834,22.483C49.032,22.483 49.509,22.537 49.761,23.122C49.86,23.347 49.905,23.545 49.905,23.734C49.905,24.166 49.671,24.499 49.446,24.805C49.113,25.228 46.467,26.092 46.467,26.092C46.467,26.092 43.947,26.794 43.695,26.974C43.434,27.145 40.734,27.937 40.734,27.937C40.734,27.937 37.944,28.756 37.764,29.152C37.593,29.539 36.216,30.412 35.073,31.312C33.93,32.212 30.825,33.778 30.024,34.48C29.232,35.182 26.937,35.713 26.937,35.713C26.937,35.713 24.552,36.397 23.634,36.397L23.418,36.379C22.752,36.226 21.672,36.136 21.672,36.136C19.233,30.358 16.758,28.666 16.758,28.27L16.821,28.198C17.343,27.982 18.666,25.588 18.828,25.525C18.99,25.462 19.485,20.818 19.611,19.477C19.737,18.127 20.25,17.47 20.484,16.831C20.718,16.192 21.42,13.897 21.42,13.465L21.42,13.438C21.42,13.033 21.627,12.322 21.627,12.178L21.627,12.169C21.627,12.016 22.329,10.216 22.383,10.099C22.401,10.045 22.41,9.919 22.41,9.775C22.41,9.568 22.392,9.307 22.347,9.127C22.311,8.965 22.293,8.677 22.293,8.371C22.293,8.056 22.311,7.732 22.347,7.498C22.41,7.039 22.599,6.823 23.004,6.823L23.049,6.823C23.49,6.841 24.075,6.841 24.624,7.723C25.173,8.596 25.056,9.721 25.209,10.729C25.245,10.99 25.254,11.278 25.254,11.566C25.254,12.385 25.146,13.186 25.146,13.186C25.146,13.186 24.948,14.257 24.759,14.833C24.57,15.409 24.489,17.092 24.489,17.092C24.489,17.092 24.57,17.227 24.597,17.344C24.615,17.452 24.759,17.92 25.065,18.001L25.092,18.01ZM40.869,1.414C39.951,1.414 39.204,1.864 39.069,1.963L38.988,2.008L38.916,2.071C38.862,2.116 37.62,3.196 37.062,3.781C36.909,3.934 36.72,4.114 36.522,4.294C36.099,4.699 35.577,5.194 35.019,5.851C34.227,6.787 33.606,7.399 33.435,7.525C32.994,7.831 32.58,8.407 32.175,9.019L32.067,9.172C32.004,9.271 31.887,9.451 31.68,9.757C31.509,10.018 31.203,10.477 31.095,10.63C30.978,10.765 30.807,11.008 30.213,11.881C29.961,12.25 29.583,12.808 29.457,12.97C29.196,13.231 27.918,14.509 27.621,14.806L27.612,14.806L27.612,14.815C27.54,14.887 27.432,14.995 27.324,15.112C27.198,15.247 26.946,15.517 26.838,15.616C26.514,15.805 26.208,15.985 25.938,16.129C25.974,15.715 26.028,15.382 26.064,15.256C26.271,14.608 26.469,13.555 26.496,13.438L26.496,13.411L26.505,13.375C26.523,13.213 26.73,11.701 26.559,10.531C26.532,10.297 26.514,10.036 26.487,9.766C26.433,8.938 26.361,7.912 25.785,6.994C24.858,5.518 23.652,5.473 23.13,5.455L23.004,5.455C22.158,5.455 21.186,5.941 20.988,7.3C20.916,7.804 20.88,8.866 21.015,9.442C21.024,9.505 21.042,9.649 21.042,9.748C20.421,11.296 20.286,11.818 20.259,12.07L20.223,12.25C20.133,12.673 20.052,13.051 20.052,13.42C19.98,13.87 19.422,15.733 19.197,16.354C19.152,16.471 19.089,16.606 19.008,16.768C18.738,17.344 18.36,18.118 18.252,19.342C18.081,21.088 17.748,23.995 17.595,24.868C17.469,25.039 17.325,25.255 17.145,25.534C16.911,25.903 16.362,26.749 16.118,27.019C15.768,27.217 15.516,27.541 15.426,27.946C15.237,28.738 15.714,29.26 16.209,29.827C17.019,30.736 18.702,32.635 20.412,36.667L20.736,37.432L21.564,37.504C21.834,37.531 22.644,37.612 23.121,37.72C23.274,37.756 23.445,37.765 23.634,37.765C24.678,37.765 26.802,37.18 27.288,37.036C27.954,36.883 29.97,36.352 30.933,35.506C31.23,35.245 32.273,34.642 33.12,34.147C34.182,33.535 35.271,32.896 35.919,32.392C36.279,32.104 36.666,31.825 37.044,31.546C37.962,30.88 38.493,30.484 38.799,30.07C39.186,29.881 40.194,29.521 41.121,29.251C43.569,28.531 44.145,28.297 44.361,28.162C44.676,28.045 45.864,27.685 46.836,27.415L46.89,27.397C49.95,26.398 50.346,25.885 50.535,25.633C50.85,25.219 51.696,24.112 51.021,22.573C50.625,21.673 49.788,21.106 48.834,21.106C48.735,21.106 48.663,21.115 48.609,21.124L48.609,21.115C48.393,21.142 47.646,21.232 47.178,21.403L47.16,21.403C46.89,21.511 46.431,21.664 46.323,21.7C45.999,21.79 43.254,22.573 42.615,22.771C42.39,22.843 42.21,22.861 41.994,22.87L42.075,22.825C42.885,22.411 43.74,21.799 44.505,21.259C44.856,21.007 45.198,20.773 45.45,20.611C45.639,20.485 45.855,20.35 46.089,20.197C46.908,19.675 47.934,19.027 48.465,18.649L48.681,18.496C49.104,18.199 49.671,17.785 49.86,17.704C50.373,17.461 51.255,16.723 51.606,15.67C51.867,14.878 51.786,14.05 51.381,13.294C50.904,12.403 50.067,11.899 49.086,11.899L49.077,11.899C47.88,11.899 46.8,12.646 46.359,13.15C46.251,13.276 45.882,13.492 45.477,13.717C45.621,13.582 45.792,13.42 45.999,13.231C46.359,12.898 47.034,12.268 47.268,12.124C47.79,11.881 48.168,11.548 48.429,11.323L48.6,11.179C48.771,11.053 49.689,10.36 49.887,9.181C49.968,8.668 49.941,7.876 49.32,7.039C48.735,6.256 47.898,5.815 46.962,5.815C46.107,5.815 45.189,6.202 44.442,6.859C43.713,7.507 42.678,8.236 42.48,8.344C42.273,8.47 41.994,8.686 41.436,9.127C41.058,9.424 40.356,9.982 40.149,10.09C39.816,10.261 39.402,10.549 38.862,10.936L38.826,10.963C39.285,10.27 39.933,9.523 40.203,9.226L40.257,9.172C41.049,8.209 42.39,6.58 42.651,6.292L42.651,6.301C43.758,5.104 43.848,3.601 42.876,2.386C42.381,1.756 41.67,1.414 40.869,1.414Z" style="fill:rgb(38,38,38);fill-rule:nonzero;"/>
            </g>
            <g transform="matrix(0.991491,0,0,0.996,3,8.01667)">
                <path d="M61.396,117.329C61.396,117.329 80.017,110.121 85.029,107.925C90.183,105.663 93.625,106.167 96.421,105.725C99.225,105.292 109.158,103.187 110.604,102.329C112.063,101.467 115.246,100.767 115.696,100.483C116.15,100.192 124.25,99.079 124.787,99.017C125.317,98.954 127.233,97.842 128.238,96.929C129.25,96.017 132.333,94.329 134.188,93.621C134.808,93.383 135.354,93.258 135.838,93.258C136.787,93.258 137.483,93.746 138.038,94.825C138.533,95.783 139.138,96.908 139.138,98.433C139.142,99.508 138.837,100.787 137.975,102.354C135.883,106.142 131.567,108.013 128.196,110.579C124.817,113.146 119.117,115.337 119.117,115.337C119.117,115.337 114.833,116.775 112.342,117.267C109.867,117.767 103.579,120.85 103.579,120.85L102.871,121.742C102.546,122.013 101.362,123.258 101.375,124.433L101.417,124.792C101.742,126.042 110.175,130.988 111.042,131.496C111.908,132 115.292,132.725 116.638,133.108C117.971,133.5 126.567,135.979 127.417,136.187C128.258,136.408 138.775,137.267 139.258,137.438C139.746,137.604 145.967,137.971 147.171,138.1C148.371,138.233 152.521,138.438 154.033,139.192C155.542,139.942 159.925,141.088 164.733,142.042C169.525,142.996 173.012,144.371 176.046,145.192C179.079,146 185.525,148.342 185.525,148.342C185.525,148.342 189.5,150.442 189.496,153.925C189.496,154.529 189.375,155.183 189.088,155.867C187.746,159.1 185.392,159.887 183.354,159.887C182.479,159.887 181.667,159.737 181.021,159.579C178.862,159.067 165.396,156.596 165.396,156.596C165.396,156.596 158.129,154.837 152.825,154.837C152.421,154.837 152.033,154.85 151.654,154.867L150.95,154.888C148.263,154.888 144.467,154.146 140.7,153.408C136.913,152.671 133.15,151.929 130.529,151.929L130.042,151.938C124.717,152.154 122.563,155.875 122.563,155.875C122.563,155.875 125.321,156.6 126.858,157.183L127.138,157.292C127.467,157.429 128.104,157.638 128.912,157.887C131.671,158.738 136.421,160.029 137.854,160.313C139.704,160.679 144.021,161.983 145.962,162.492C147.904,163.012 148.412,163.6 149.667,164.396C150.946,165.192 155.875,167.258 157.587,168.454C159.296,169.646 167.613,172.787 168.913,173.563C170.217,174.346 175.379,176.8 179.338,178.183C182.533,179.296 185.967,181.9 185.937,185.637C185.929,186.546 185.717,187.521 185.25,188.558C183.912,191.517 181.708,192.283 179.808,192.283C178.283,192.283 176.942,191.792 176.396,191.529C175.163,190.937 172.925,190.446 171.113,189.075C169.3,187.704 160.721,185.383 158.421,184.354C156.133,183.325 147.4,179.988 146.313,179.696C145.221,179.4 139.375,178.25 136.683,176.592C133.992,174.929 130.079,174.179 128.65,173.05C127.225,171.929 120.467,170.038 119.067,169.713L118.837,169.692C117.379,169.692 114.867,172.275 114.867,172.275L118.437,173.758L120.004,174.404C120.004,174.404 128.012,177.654 129.233,178.196C130.375,178.708 133.25,180.492 134.779,182.062L135.108,182.421C136.5,184.071 141.217,186.729 141.633,187.05C142.042,187.379 144.583,188.242 149.487,191.425C154.392,194.612 158.396,197.575 161.083,198.129C163.229,198.562 167.958,201.317 167.979,205.092C167.988,206.008 167.717,206.983 167.067,208C165.462,210.496 163.183,211.242 161.096,211.242C158.817,211.242 156.775,210.354 156.104,209.871C154.842,208.942 151.912,207.592 148.921,206.154C145.929,204.738 139.533,201.208 135.937,199.275C132.333,197.338 125.758,194.612 121.483,191.754C117.2,188.896 110.837,185.408 107.975,183.642C107.162,183.146 106.45,182.962 105.85,182.962C104.312,182.962 103.471,184.121 103.471,184.121C103.471,184.121 101.396,186.104 101.367,187.054L101.371,187.146C101.479,188.046 101.013,189.029 104.817,191.788C108.633,194.554 110.525,195.929 111.762,197.346C112.988,198.754 113.55,200.471 115.633,202.483C117.712,204.492 127.071,213.812 127.071,213.812C127.071,213.812 128.921,215.521 130.092,216.521C131.258,217.521 133.079,220.133 133.079,220.133C133.079,220.133 133.788,221.05 133.788,222.408C133.788,223.196 133.55,224.129 132.8,225.121C131.342,227.042 129.667,227.525 128.021,227.525C127.346,227.525 126.675,227.442 126.038,227.346C123.825,227.017 115.308,219.108 115.308,219.108C115.308,219.108 107.642,211.367 106.492,210.787C105.346,210.204 96.979,201.983 96.979,201.983C96.979,201.983 88.508,193.629 86.613,193.629L86.562,193.629L86.421,193.637C84.471,193.637 78.683,190.483 73.237,188.192C67.646,185.846 55.629,177.712 51.462,176.238C47.296,174.754 40.725,167.479 40.725,167.479C40.725,167.479 31.988,158.787 31.179,156.037C30.375,153.279 28.521,149.188 28.521,149.188C45.188,127.863 45.817,115.3 47.346,115.3L47.596,115.404C49.463,116.883 60.854,116.883 61.396,117.329ZM104.55,75.042C106.2,75.042 114.112,70.354 114.975,69.867C115.838,69.342 118.125,66.754 119.1,65.742C120.075,64.767 126.413,58.467 127.012,57.829C127.613,57.192 133.5,48.417 133.875,48.079C134.25,47.742 137.587,42.492 138.3,41.517C139.012,40.504 141.187,36.979 142.575,36.042C143.962,35.067 147.112,31.804 150.262,28.054C153.45,24.342 156.337,21.942 158.512,19.692C160.687,17.442 165.9,12.942 165.9,12.942C165.9,12.942 167.963,11.592 170.287,11.592C171.638,11.592 173.062,12.042 174.188,13.504C175.35,14.929 175.762,16.279 175.762,17.517C175.725,19.617 174.487,21.342 173.513,22.354C172.013,24.004 163.312,34.579 163.312,34.579C163.312,34.579 157.463,40.917 155.138,45.754C152.812,50.554 144.45,58.429 142.05,63.192C141.225,64.879 140.925,66.417 140.925,67.692C140.925,70.092 141.863,71.629 141.863,71.629C141.863,71.629 144.113,69.304 145.312,68.329L146.063,67.692L146.7,67.092C148.8,65.067 152.212,61.542 153.187,60.417C154.388,58.992 157.65,55.879 159.037,54.417C160.425,52.954 161.175,52.804 162.488,52.092C163.8,51.379 168,48.079 169.875,47.142C171.75,46.242 178.537,40.504 179.85,39.717C181.163,38.967 185.813,35.667 188.963,32.854C190.725,31.279 193.237,29.967 195.675,29.967C197.55,29.967 199.388,30.717 200.888,32.742C201.9,34.092 202.275,35.367 202.275,36.529C202.275,39.342 199.988,41.367 199.2,41.929C198.075,42.717 196.575,44.442 194.475,45.342C192.413,46.279 186.188,52.654 184.2,54.154C182.175,55.654 175.012,61.654 174.225,62.479C173.437,63.267 169.575,67.842 166.838,69.379C164.062,70.917 161.513,73.954 159.825,74.667C158.175,75.379 153.225,80.367 152.25,81.417C151.988,81.754 151.875,82.317 151.875,82.954C151.875,84.454 152.475,86.329 152.475,86.329L156.825,82.879L156.938,82.804C157.875,82.054 163.65,77.404 164.625,76.654C165.637,75.904 168.563,74.254 170.7,73.692L171.15,73.579C173.288,73.167 177.9,70.354 178.387,70.129C178.875,69.942 180.863,68.142 186.037,65.404C191.212,62.667 195.713,60.604 197.512,58.504C198.6,57.229 201.675,55.279 204.525,55.279C206.25,55.279 207.937,56.029 209.062,58.092C209.663,59.217 209.925,60.342 209.925,61.354C209.962,65.217 206.475,68.029 205.35,68.554C203.925,69.229 201.337,71.142 198.638,73.054C195.938,74.967 189.75,78.829 186.3,81.042C182.85,83.254 177.262,87.679 172.687,90.042C168.113,92.367 161.962,96.267 159.037,97.879C157.387,98.779 157.05,99.979 157.05,100.842C157.05,101.554 157.275,102.079 157.275,102.079C157.275,102.079 158.025,105.004 158.887,105.379C159.3,105.529 159.675,105.867 160.537,105.867C161.325,105.867 162.562,105.567 164.625,104.592C168.9,102.642 171.037,101.629 172.837,101.254C174.675,100.842 176.475,101.179 179.25,100.354C181.987,99.492 194.7,95.854 194.7,95.854C194.7,95.854 197.1,95.067 198.525,94.542C199.95,94.017 203.137,93.679 203.137,93.679L203.475,93.679C204.3,93.679 206.287,93.904 207.338,96.342C207.75,97.279 207.937,98.104 207.937,98.892C207.937,100.692 206.963,102.079 206.025,103.354C204.637,105.117 193.612,108.717 193.612,108.717C193.612,108.717 183.112,111.642 182.062,112.392C180.975,113.104 169.725,116.404 169.725,116.404C169.725,116.404 158.1,119.817 157.35,121.467C156.637,123.079 150.9,126.717 146.138,130.467C141.375,134.217 128.438,140.742 125.1,143.667C121.8,146.592 112.238,148.804 112.238,148.804C112.238,148.804 102.3,151.654 98.475,151.654L97.575,151.579C94.8,150.942 90.3,150.567 90.3,150.567C80.137,126.492 69.825,119.442 69.825,117.792L70.087,117.492C72.263,116.592 77.775,106.617 78.45,106.354C79.125,106.092 81.188,86.742 81.713,81.154C82.237,75.529 84.375,72.792 85.35,70.129C86.325,67.467 89.25,57.904 89.25,56.104L89.25,55.992C89.25,54.304 90.113,51.342 90.113,50.742L90.113,50.704C90.113,50.067 93.038,42.567 93.262,42.079C93.337,41.854 93.375,41.329 93.375,40.729C93.375,39.867 93.3,38.779 93.113,38.029C92.963,37.354 92.887,36.154 92.887,34.879C92.887,33.567 92.963,32.217 93.113,31.242C93.375,29.329 94.163,28.429 95.85,28.429L96.037,28.429C97.875,28.504 100.313,28.504 102.6,32.179C104.888,35.817 104.4,40.504 105.037,44.704C105.188,45.792 105.225,46.992 105.225,48.192C105.225,51.604 104.775,54.942 104.775,54.942C104.775,54.942 103.95,59.404 103.163,61.804C102.375,64.204 102.038,71.217 102.038,71.217C102.038,71.217 102.375,71.779 102.488,72.267C102.562,72.717 103.163,74.667 104.438,75.004L104.55,75.042Z" style="fill:white;fill-rule:nonzero;"/>
            </g>
            <g transform="matrix(4.13121,0,0,4.15,3,8.01667)">
                <path d="M24.936,51.811L24.925,51.805L24.936,51.811ZM24.816,51.74L24.81,51.735L24.816,51.74ZM31.426,50.308L31.426,50.307L31.426,50.308ZM40.257,46.484L40.241,46.471L40.257,46.484ZM25.586,44.605L25.585,44.605L25.586,44.605ZM33.68,31.64L33.674,31.639L33.68,31.64ZM27.258,30.331L27.249,30.328L27.258,30.331ZM25.564,30.274L25.593,30.249L25.564,30.274ZM15.833,27.336L15.603,27.097L15.593,27.09C15.682,27.161 15.763,27.243 15.833,27.336ZM12.276,26.623L12.232,26.59L12.276,26.623ZM25.847,23.38L25.877,23.363L25.847,23.38ZM27.228,22.858L27.232,22.856L27.228,22.858ZM29.766,22.405L29.788,22.402L29.766,22.405ZM14.756,28.164C15.113,28.164 19.204,26.429 20.407,25.902C21.644,25.359 22.47,25.48 23.141,25.374C23.814,25.27 26.198,24.765 26.545,24.559C26.895,24.352 27.659,24.184 27.767,24.116C27.876,24.046 29.82,23.779 29.949,23.764C30.076,23.749 30.536,23.482 30.777,23.263C31.02,23.044 31.76,22.639 32.205,22.469C32.354,22.412 32.485,22.382 32.601,22.382C32.829,22.382 32.996,22.499 33.129,22.758C33.248,22.988 33.393,23.258 33.393,23.624C33.394,23.882 33.321,24.189 33.114,24.565C32.612,25.474 31.576,25.923 30.767,26.539C29.956,27.155 28.588,27.681 28.588,27.681C28.588,27.681 27.56,28.026 26.962,28.144C26.368,28.264 24.859,29.004 24.859,29.004L24.689,29.218C24.611,29.283 24.327,29.582 24.33,29.864L24.34,29.95C24.418,30.25 26.442,31.437 26.65,31.559C26.858,31.68 27.67,31.854 27.993,31.946C28.313,32.04 30.376,32.635 30.58,32.685C30.782,32.738 33.306,32.944 33.422,32.985C33.539,33.025 35.032,33.113 35.321,33.144C35.609,33.176 36.605,33.225 36.968,33.406C37.33,33.586 38.382,33.861 39.536,34.09C40.686,34.319 41.523,34.649 42.251,34.846C42.979,35.04 44.526,35.602 44.526,35.602C44.526,35.602 45.48,36.106 45.479,36.942C45.479,37.087 45.45,37.244 45.381,37.408C45.059,38.184 44.494,38.373 44.005,38.373C43.795,38.373 43.6,38.337 43.445,38.299C42.927,38.176 39.695,37.583 39.695,37.583C39.695,37.583 37.951,37.161 36.678,37.161C36.581,37.161 36.488,37.164 36.397,37.168L36.228,37.173C35.583,37.173 34.672,36.995 33.768,36.818C32.859,36.641 31.956,36.463 31.327,36.463L31.21,36.465C29.932,36.517 29.415,37.41 29.415,37.41C29.415,37.41 30.077,37.584 30.446,37.724L30.513,37.75C30.592,37.783 30.745,37.833 30.939,37.893C31.601,38.097 32.741,38.407 33.085,38.475C33.529,38.563 34.565,38.876 35.031,38.998C35.497,39.123 35.619,39.264 35.92,39.455C36.227,39.646 37.41,40.142 37.821,40.429C38.231,40.715 40.227,41.469 40.539,41.655C40.852,41.843 42.091,42.432 43.041,42.764C43.808,43.031 44.632,43.656 44.625,44.553C44.623,44.771 44.572,45.005 44.46,45.254C44.139,45.964 43.61,46.148 43.154,46.148C42.788,46.148 42.466,46.03 42.335,45.967C42.039,45.825 41.502,45.707 41.067,45.378C40.632,45.049 38.573,44.492 38.021,44.245C37.472,43.998 35.376,43.197 35.115,43.127C34.853,43.056 33.45,42.78 32.804,42.382C32.158,41.983 31.219,41.803 30.876,41.532C30.534,41.263 28.912,40.809 28.576,40.731L28.521,40.726C28.171,40.726 27.568,41.346 27.568,41.346L28.425,41.702L28.801,41.857C28.801,41.857 30.723,42.637 31.016,42.767C31.29,42.89 31.98,43.318 32.347,43.695L32.426,43.781C32.76,44.177 33.892,44.815 33.992,44.892C34.09,44.971 34.7,45.178 35.877,45.942C37.054,46.707 38.015,47.418 38.66,47.551C39.175,47.655 40.31,48.316 40.315,49.222C40.317,49.442 40.252,49.676 40.096,49.92C39.711,50.519 39.164,50.698 38.663,50.698C38.116,50.698 37.626,50.485 37.465,50.369C37.162,50.146 36.459,49.822 35.741,49.477C35.023,49.137 33.488,48.29 32.625,47.826C31.76,47.361 30.182,46.707 29.156,46.021C28.128,45.335 26.601,44.498 25.914,44.074C25.719,43.955 25.548,43.911 25.404,43.911C25.035,43.911 24.833,44.189 24.833,44.189C24.833,44.189 24.335,44.665 24.328,44.893L24.329,44.915C24.355,45.131 24.243,45.367 25.156,46.029C26.072,46.693 26.526,47.023 26.823,47.363C27.117,47.701 27.252,48.113 27.752,48.596C28.251,49.078 30.497,51.315 30.497,51.315C30.497,51.315 30.941,51.725 31.222,51.965C31.502,52.205 31.939,52.832 31.939,52.832C31.939,52.832 32.109,53.052 32.109,53.378C32.109,53.567 32.052,53.791 31.872,54.029C31.522,54.49 31.12,54.606 30.725,54.606C30.563,54.606 30.402,54.586 30.249,54.563C29.718,54.484 27.674,52.586 27.674,52.586C27.674,52.586 25.834,50.728 25.558,50.589C25.283,50.449 23.275,48.476 23.275,48.476C23.275,48.476 21.242,46.471 20.787,46.471L20.775,46.471L20.741,46.473C20.273,46.473 18.884,45.716 17.577,45.166C16.235,44.603 13.351,42.651 12.351,42.297C11.351,41.941 9.774,40.195 9.774,40.195C9.774,40.195 7.677,38.109 7.483,37.449C7.29,36.787 6.845,35.805 6.845,35.805C10.845,30.687 10.996,27.672 11.363,27.672L11.423,27.697C11.871,28.052 14.605,28.052 14.735,28.159L14.756,28.164ZM32.601,21.011C32.316,21.011 32.026,21.069 31.714,21.188C31.215,21.379 30.293,21.853 29.857,22.246C29.806,22.293 29.683,22.375 29.591,22.428C29.369,22.459 29.002,22.51 28.647,22.564C27.737,22.701 27.42,22.761 27.189,22.87L27.038,22.916C26.615,23.043 26.237,23.163 25.915,23.341C25.49,23.502 23.587,23.918 22.932,24.019C22.809,24.038 22.652,24.048 22.472,24.059C21.843,24.099 20.98,24.153 19.856,24.647C18.426,25.273 15.577,26.463 14.708,26.759C14.501,26.735 14.248,26.718 13.921,26.697C13.475,26.667 12.461,26.601 12.11,26.509C11.825,26.339 11.552,26.301 11.363,26.301C11.076,26.301 10.365,26.397 9.958,27.289C9.875,27.47 9.799,27.684 9.706,27.955C9.304,29.107 8.468,31.502 5.765,34.961L5.596,36.371C5.708,36.62 6.032,37.37 6.167,37.835C6.36,38.492 7.238,39.603 8.777,41.136C9.226,41.632 10.679,43.158 11.891,43.589C12.27,43.723 13.315,44.344 14.156,44.844C15.206,45.468 16.292,46.114 17.045,46.43C17.464,46.606 17.898,46.808 18.318,47.003C19.356,47.485 19.954,47.754 20.469,47.825C20.825,48.07 21.624,48.773 22.314,49.453C24.148,51.256 24.625,51.629 24.84,51.759C25.102,51.972 25.991,52.834 26.701,53.551L26.742,53.59C29.096,55.778 29.739,55.873 30.046,55.919C30.239,55.948 30.47,55.977 30.725,55.977C31.873,55.977 32.576,55.369 32.963,54.858C33.728,53.852 33.542,52.688 33.044,52.019C32.87,51.772 32.471,51.231 32.114,50.924C31.892,50.735 31.547,50.419 31.451,50.331C31.248,50.127 29.191,48.08 28.707,47.611C28.534,47.445 28.433,47.293 28.316,47.11L28.394,47.161C29.154,47.669 30.112,48.127 30.957,48.531C31.345,48.716 31.71,48.891 31.976,49.034C32.182,49.144 32.426,49.276 32.687,49.418C33.572,49.898 34.575,50.441 35.154,50.716L35.436,50.851C35.857,51.053 36.495,51.357 36.655,51.474C37.065,51.773 37.841,52.069 38.663,52.069C39.749,52.069 40.668,51.569 41.25,50.66C41.739,49.897 41.821,49.039 41.482,48.24C40.969,47.03 39.645,46.351 38.93,46.207C38.767,46.17 38.403,45.956 38.011,45.706C38.2,45.77 38.422,45.842 38.689,45.929C39.162,46.083 40.036,46.367 40.278,46.499C40.731,46.832 41.212,47.007 41.535,47.124L41.745,47.205C41.939,47.298 42.473,47.519 43.154,47.519C44.289,47.519 45.221,46.899 45.709,45.819C46.072,45.017 46.093,44.193 45.769,43.437C45.393,42.559 44.563,41.842 43.492,41.469C42.582,41.151 41.44,40.597 41.245,40.48C41.038,40.356 40.713,40.219 40.057,39.945C39.614,39.76 38.794,39.417 38.59,39.294C38.281,39.081 37.827,38.861 37.222,38.574L37.181,38.555C38.022,38.623 39.006,38.828 39.373,38.916L39.448,38.932C40.684,39.158 42.775,39.549 43.127,39.633C43.422,39.705 43.721,39.743 44.005,39.743C45.207,39.743 46.168,39.084 46.647,37.935C47.263,36.446 46.369,35.025 45.168,34.39L44.996,34.314C44.93,34.29 43.38,33.727 42.602,33.521C42.397,33.465 42.156,33.389 41.9,33.309C41.343,33.133 40.647,32.915 39.804,32.745C38.471,32.481 37.727,32.248 37.576,32.177C37.088,31.934 36.419,31.862 35.66,31.798L35.472,31.781C35.343,31.768 35.124,31.752 34.747,31.725C34.447,31.704 33.91,31.665 33.718,31.644C33.548,31.606 33.245,31.577 32.225,31.48C31.76,31.436 31.07,31.372 30.871,31.344C30.552,31.258 28.918,30.787 28.376,30.629C28.252,30.595 28.11,30.559 27.945,30.518C27.771,30.475 27.424,30.388 27.281,30.34C26.953,30.146 26.657,29.965 26.401,29.804C26.784,29.639 27.104,29.515 27.233,29.488C27.893,29.358 28.911,29.019 29.024,28.981L29.081,28.961C29.24,28.9 30.657,28.344 31.596,27.631C31.785,27.487 32.002,27.345 32.232,27.195C32.926,26.743 33.788,26.181 34.314,25.228C35.155,23.702 34.601,22.622 34.364,22.16L34.348,22.128C33.98,21.418 33.344,21.011 32.601,21.011Z" style="fill:rgb(38,38,38);fill-rule:nonzero;"/>
            </g>
        </g>
    </g>
</svg>
