<svg width="133" height="130" viewBox="0 0 133 130" fill="none" xmlns="http://www.w3.org/2000/svg">
<path d="M34.031 70.4656C39.4004 66.7777 42.9218 60.594 42.9218 53.5878C42.9218 42.2876 33.7611 33.127 22.4609 33.127C11.1607 33.127 2 42.2876 2 53.5878C2 64.8881 11.1607 74.0487 22.4609 74.0487C26.755 74.0487 30.7401 72.7259 34.031 70.4656ZM34.031 70.4656L47.9152 89.7598M76.5361 99.1377L91.0292 84.401" stroke="black" stroke-width="3.65373"/>
<path d="M98.5803 59.8001L85.0615 46.2812" stroke="black" stroke-width="3.65373"/>
<circle cx="22.5826" cy="48.1073" r="6.33313" stroke="black" stroke-width="3.65373"/>
<circle cx="28.6722" cy="8.16" r="6.33313" stroke="black" stroke-width="3.65373"/>
<path d="M11.2561 71.3698V69.1776C11.2561 64.2001 15.2912 60.165 20.2686 60.165H24.8967C29.8742 60.165 33.9092 64.2001 33.9092 69.1776V71.3698" stroke="black" stroke-width="3.65373"/>
<path d="M90.0478 19.1214C91.8326 22.1582 92.8561 25.6964 92.8561 29.4736C92.8561 40.7738 83.6955 49.9345 72.3952 49.9345C61.095 49.9345 51.9343 40.7738 51.9343 29.4736C51.9343 18.1733 61.095 9.0127 72.3952 9.0127C76.122 9.0127 79.6161 10.0091 82.6257 11.75" stroke="black" stroke-width="3.65373" stroke-linecap="round"/>
<circle cx="72.5169" cy="23.993" r="6.33313" stroke="black" stroke-width="3.65373"/>
<path d="M61.1904 47.2556V45.0633C61.1904 40.0858 65.2255 36.0508 70.203 36.0508H74.831C79.8085 36.0508 83.8436 40.0858 83.8436 45.0633V47.2556" stroke="black" stroke-width="3.65373"/>
<circle cx="110.394" cy="76.7285" r="20.4609" stroke="black" stroke-width="3.65373"/>
<circle cx="110.516" cy="71.2479" r="6.33313" stroke="black" stroke-width="3.65373"/>
<path d="M99.1892 94.5104V92.3182C99.1892 87.3407 103.224 83.3057 108.202 83.3057H112.83C117.807 83.3057 121.842 87.3407 121.842 92.3182V94.5104" stroke="black" stroke-width="3.65373"/>
<circle cx="58.2675" cy="107.663" r="20.4609" stroke="black" stroke-width="3.65373"/>
<circle cx="58.3892" cy="102.182" r="6.33313" stroke="black" stroke-width="3.65373"/>
<path d="M47.0627 125.445V123.253C47.0627 118.275 51.0978 114.24 56.0753 114.24H60.7033C65.6808 114.24 69.7159 118.275 69.7159 123.253V125.445" stroke="black" stroke-width="3.65373"/>
<path d="M22.0955 33.1275L26.8453 14.6152" stroke="black" stroke-width="3.65373"/>
<circle cx="14.7176" cy="97.7771" r="6.33313" transform="rotate(-79.142 14.7176 97.7771)" stroke="black" stroke-width="3.65373"/>
<path d="M37.8793 108.959L20.5932 100.807" stroke="black" stroke-width="3.65373"/>
<circle cx="95.7754" cy="120.333" r="6.33313" transform="rotate(-175.575 95.7754 120.333)" stroke="black" stroke-width="3.65373"/>
<path d="M104.25 96.0273L98.0856 114.118" stroke="black" stroke-width="3.65373"/>
<circle cx="117.948" cy="36.0104" r="6.33313" transform="rotate(87.67 117.948 36.0104)" stroke="black" stroke-width="3.65373"/>
<path d="M92.8561 30.4694L111.546 34.4627" stroke="black" stroke-width="3.65373"/>
<circle cx="68.5011" cy="62.8043" r="6.33313" transform="rotate(87.67 68.5011 62.8043)" stroke="black" stroke-width="3.65373"/>
<path d="M43.409 57.2643L62.099 61.2576" stroke="black" stroke-width="3.65373"/>
<circle cx="86.6447" cy="14.9812" r="1.82687" fill="black"/>
</svg>
