<svg width="56" height="56" viewBox="0 0 56 56" fill="none" xmlns="http://www.w3.org/2000/svg">
<path fill-rule="evenodd" clip-rule="evenodd" d="M27.9503 2.25684C31.4232 2.25684 34.2385 5.09343 34.2385 8.59254C34.2385 8.93672 34.1426 9.43229 33.952 10.0392C33.8342 10.4144 33.6894 10.804 33.5327 11.1874L33.2597 10.0873C33.1097 9.48268 32.5016 9.11508 31.9015 9.26623C31.3015 9.41738 30.9366 10.03 31.0867 10.6346L32.1048 14.738C32.1917 15.0883 32.4398 15.3756 32.7722 15.5107C33.1045 15.6459 33.481 15.6126 33.7849 15.4212L37.8575 12.8566C38.382 12.5263 38.5415 11.8301 38.2136 11.3017C37.8858 10.7732 37.1949 10.6125 36.6703 10.9428L35.8282 11.4731C35.9211 11.2237 36.0087 10.9712 36.0877 10.7198C36.3035 10.0325 36.4784 9.27887 36.4784 8.59254C36.4784 3.84701 32.6603 0 27.9503 0C23.2403 0 19.4222 3.84701 19.4222 8.59254C19.4222 9.80388 19.8567 11.1852 20.3556 12.4308C20.8439 13.6499 21.4507 14.8721 21.9442 15.866L22.0081 15.9948L22.0087 15.9958L22.0096 15.9977L22.0142 16.007L22.0341 16.0478C22.0519 16.0845 22.0784 16.1396 22.1118 16.2104C22.1786 16.3522 22.2724 16.5558 22.3784 16.7993C22.5926 17.2914 22.8472 17.9249 23.0328 18.5321C23.1441 18.8962 23.213 19.1969 23.248 19.427C22.6995 19.3301 22.1019 19.2216 21.4632 19.1057C19.5724 18.7624 17.3206 18.3536 14.9182 17.9865C11.6618 17.489 7.24071 16.9718 4.44961 16.6606C2.34175 16.4256 0.431762 17.8846 0.0628588 19.9776C-0.338269 22.2535 1.22413 24.4073 3.49813 24.7133L19.5988 26.8793C20.0714 26.9429 20.4244 27.3491 20.4244 27.8295V31.0673C20.4244 33.5977 19.9821 36.1084 19.1178 38.4842L14.8533 50.2066C13.9481 52.6949 15.4855 55.4048 18.0728 55.8817C20.1309 56.261 22.1561 55.0718 22.843 53.0806L27.9883 38.164L33.1502 53.1287C33.8371 55.1199 35.8623 56.3091 37.9204 55.9298C40.5077 55.4529 42.0451 52.743 41.1399 50.2547L36.8754 38.5323C36.0111 36.1565 35.5688 33.6458 35.5688 31.1154V27.8776C35.5688 27.3972 35.9218 26.9909 36.3944 26.9274L52.5373 24.7557C54.7883 24.4528 56.3348 22.3208 55.9378 20.068C55.5642 17.9486 53.6001 16.5017 51.4823 16.7859L44.6333 17.7052L44.6247 17.7065L44.2504 17.7626C44.009 17.7986 43.6596 17.8507 43.2276 17.9149C42.3635 18.0431 41.1689 18.2195 39.8474 18.4118C37.9179 18.6926 35.7232 19.0067 33.8912 19.2551C33.3921 18.2398 32.3532 17.5418 31.1525 17.5418C29.4656 17.5418 28.0981 18.9197 28.0981 20.6193C28.0981 22.319 29.4656 23.6969 31.1525 23.6969C32.5332 23.6969 33.6999 22.7739 34.078 21.5069C35.9468 21.2543 38.2008 20.9317 40.1676 20.6455C41.4918 20.4527 42.6884 20.2761 43.554 20.1476C43.9869 20.0834 44.337 20.0311 44.5789 19.995L44.9463 19.94L51.7781 19.023C52.707 18.8983 53.5685 19.533 53.7324 20.4626C53.9065 21.4507 53.2282 22.3858 52.2408 22.5187L36.098 24.6904C34.5127 24.9036 33.3289 26.2662 33.3289 27.8776V31.1154C33.3289 33.9108 33.8175 36.6843 34.7723 39.309L39.0368 51.0314C39.464 52.2057 38.7384 53.4847 37.5173 53.7098C36.546 53.8888 35.5902 53.3275 35.266 52.3878L29.1891 34.7705C29.0351 34.3241 28.6308 34.0371 28.1895 34.0138C27.6164 33.8368 27.0025 34.1472 26.8041 34.7224L20.7272 52.3397C20.403 53.2794 19.4472 53.8407 18.4759 53.6617C17.2548 53.4366 16.5292 52.1576 16.9564 50.9833L21.2209 39.2609C22.1757 36.6363 22.6643 33.8627 22.6643 31.0673V27.8295C22.6643 26.2181 21.4805 24.8556 19.8952 24.6423L3.79458 22.4763C2.78424 22.3403 2.09006 21.3834 2.26828 20.3722C2.43274 19.4391 3.27916 18.8007 4.20329 18.9038C6.99337 19.2148 11.3748 19.7278 14.5824 20.2179C16.9537 20.5802 19.1456 20.9782 21.0246 21.3194C21.8574 21.4706 22.6287 21.6106 23.3269 21.7314C23.797 21.8128 24.3674 21.7753 24.8431 21.3868C25.298 21.0153 25.4467 20.4987 25.4936 20.1216C25.5834 19.3992 25.3797 18.5426 25.1736 17.868C24.9525 17.1445 24.6605 16.423 24.4297 15.8928C24.3132 15.6252 24.2099 15.4009 24.1352 15.2424C24.0979 15.1631 24.0676 15.1001 24.0462 15.0562L24.0212 15.0049L24.0141 14.9906L24.012 14.9864L24.0114 14.985L24.0072 14.9768L23.9592 14.88C23.4576 13.8694 22.8865 12.719 22.4328 11.5861C21.9524 10.3869 21.6621 9.34519 21.6621 8.59254C21.6621 5.09343 24.4774 2.25684 27.9503 2.25684Z" fill="black"/>
</svg>
