  <svg
      width="699"
      height="529"
      viewBox="0 0 699 529"
      fill="none"
      xmlns="http://www.w3.org/2000/svg"
    >
      <path
        fillRule="evenodd"
        clipRule="evenodd"
        d="M596.635 511.918C619.384 489.144 619.384 452.22 596.635 429.445L490.13 322.817H640.75C672.921 322.817 699 296.707 699 264.5C699 232.292 672.921 206.183 640.75 206.183L450.77 206.183C460.992 223.531 466.856 243.759 466.856 265.359C466.856 319.325 430.247 364.731 380.535 378.042L514.258 511.918C537.006 534.693 573.887 534.693 596.635 511.918ZM318.837 377.674L184.746 511.919C161.998 534.694 125.117 534.694 102.368 511.919C79.6205 489.145 79.6205 452.221 102.368 429.446L208.875 322.817H58.25C26.0794 322.817 0 296.707 0 264.5C0 232.292 26.0794 206.183 58.25 206.183H208.874L102.368 99.5536C79.6199 76.7794 79.6199 39.855 102.368 17.0807C125.116 -5.69356 161.998 -5.69358 184.746 17.0807L320.183 152.674C270.469 165.983 233.856 211.39 233.856 265.359C233.856 318.839 269.809 363.912 318.837 377.674Z"
        fill="#000"
      />
      <path
        d="M495 73C495 113.317 462.541 146 422.5 146C382.459 146 350 113.317 350 73C350 32.6832 382.459 0 422.5 0C462.541 0 495 32.6832 495 73Z"
        fill="#000"
      />
    </svg>
