<svg width="164" height="130" viewBox="0 0 164 130" fill="none" xmlns="http://www.w3.org/2000/svg">
<circle cx="158.095" cy="71.095" r="3.09497" fill="black"/>
<path d="M82 102.257H140.049C149.963 102.257 158 94.2204 158 84.3064V81.9748M82 102.257H23.9508C14.0369 102.257 6 94.2203 6 84.3064V21.9508C6 12.0368 14.0369 4 23.9508 4H140.049C149.963 4 158 12.0369 158 21.9508V60.0397M82 102.257V125" stroke="black" stroke-width="6.18994" stroke-linecap="round"/>
<path d="M50 126H113.137" stroke="black" stroke-width="6.18994" stroke-linecap="round"/>
<circle cx="69.25" cy="19.5" r="2" fill="black"/>
<path d="M73.8515 17.5564L80.0926 15.1222C80.2941 15.0436 80.5177 15.0436 80.7192 15.1222L108.18 25.8327C108.912 26.1181 108.912 27.1539 108.18 27.4393L81.5793 37.8143C81.3779 37.8929 81.1542 37.8929 80.9527 37.8143L53.5005 27.1072C52.7675 26.8213 52.7689 25.7835 53.5027 25.4996L64.4527 21.2637" stroke="black" stroke-width="4" stroke-linecap="round"/>
<path d="M64.194 32.0728V46.7314C64.194 48.4458 65.5838 49.8356 67.2982 49.8356H94.5461C96.2605 49.8356 97.6503 48.4458 97.6503 46.7314V32.0728" stroke="black" stroke-width="4"/>
<path d="M108.687 26.3818V44.6621" stroke="black" stroke-width="4" stroke-linecap="round"/>
<path d="M104.893 49.2323C104.893 47.0893 106.631 45.3521 108.774 45.3521V45.3521C110.917 45.3521 112.654 47.0893 112.654 49.2323V57.079C112.654 58.1267 111.805 58.976 110.757 58.976H106.79C105.743 58.976 104.893 58.1267 104.893 57.079V49.2323Z" stroke="black" stroke-width="4"/>
<path d="M52.2083 67.7715H114.956C116.637 67.7715 118 69.1345 118 70.8158V71.681C118 72.8845 117.024 73.8601 115.821 73.8601C114.617 73.8601 113.642 74.8357 113.642 76.0392V80.9334C113.642 82.1369 114.617 83.1125 115.821 83.1125C117.024 83.1125 118 84.0881 118 85.2916V86.1342C118 87.803 116.647 89.1559 114.978 89.1559H52.2083C48.7795 89.1559 45.9999 86.3763 45.9999 82.9475V73.9799C45.9999 70.5511 48.7795 67.7715 52.2083 67.7715Z" stroke="black" stroke-width="4" stroke-linecap="round"/>
<path d="M104.721 50.1802H58.5029C55.0741 50.1802 52.2946 52.9598 52.2946 56.3886V61.5622C52.2946 64.991 55.0741 67.7706 58.5029 67.7706H109.134C110.506 67.7706 111.619 66.6578 111.619 65.285V64.5948C111.619 63.6032 110.815 62.7994 109.824 62.7994V62.7994C108.832 62.7994 108.028 61.9955 108.028 61.0039V58.994" stroke="black" stroke-width="4" stroke-linecap="round"/>
</svg>
