<svg width="120" height="104" viewBox="0 0 120 104" fill="none" xmlns="http://www.w3.org/2000/svg">
<path fill-rule="evenodd" clip-rule="evenodd" d="M4 19C2.80531 19 1.73294 19.5238 1 20.3542C0.377637 21.0593 0 21.9856 0 23V53V57V100C0 102.209 1.79086 104 4 104H116C118.209 104 120 102.209 120 100V57V53V23C120 20.7909 118.209 19 116 19H96C94.8954 19 94 19.8954 94 21C94 22.1046 94.8954 23 96 23H116V53H5V23H24C25.1046 23 26 22.1046 26 21C26 19.8954 25.1046 19 24 19H5H4ZM5 57H116V100H4V57H5ZM67 19H83C84.1046 19 85 19.8954 85 21C85 22.1046 84.1046 23 83 23H67V19Z" fill="black"/>
<path fill-rule="evenodd" clip-rule="evenodd" d="M74.8848 86C74.8848 87.1683 75.8318 88.1153 77.0001 88.1153C78.1683 88.1153 79.1153 87.1683 79.1153 86V80.098C81.0263 80.034 82.9595 79.779 84.5396 79.0534C85.5235 78.6016 86.4488 77.9327 87.1197 76.9474C87.7986 75.9505 88.1153 74.7788 88.1153 73.5004C88.1153 72.1002 87.6648 70.8732 86.8358 69.8848C86.0389 68.9346 84.9863 68.3144 83.9281 67.9001C81.8636 67.0917 79.3073 66.8877 77.0426 66.8852C77.0284 66.8849 77.0143 66.8848 77.0001 66.8848C75.8874 66.8848 74.9754 67.7439 74.8911 68.8349C74.8869 68.8895 74.8848 68.9447 74.8848 69.0004C74.8848 69.0043 74.8848 69.0081 74.8848 69.0119V86ZM79.1153 71.1933V75.864C80.7214 75.7998 81.9493 75.5876 82.7742 75.2088C83.238 74.9959 83.4843 74.7699 83.623 74.5662C83.7537 74.3742 83.8848 74.063 83.8848 73.5004C83.8848 73.0597 83.7625 72.8038 83.5944 72.6033C83.3941 72.3646 83.0252 72.0898 82.3856 71.8394C81.5204 71.5006 80.3937 71.2947 79.1153 71.1933Z" fill="black"/>
<path fill-rule="evenodd" clip-rule="evenodd" d="M41.3867 88.024C40.2687 87.6852 39.637 86.5043 39.9757 85.3862L45.0817 68.5343C45.0975 68.4791 45.1156 68.4247 45.1358 68.3712C45.2632 68.0313 45.4707 67.7416 45.73 67.5173C46.2606 67.0582 47.0079 66.8729 47.7291 67.0914C48.1458 67.2177 48.495 67.461 48.7515 67.7744C48.8665 67.9144 48.9645 68.0707 49.0417 68.2412C49.0901 68.3477 49.1298 68.4583 49.1601 68.5718L54.032 85.4122C54.3566 86.5344 53.7101 87.7073 52.5878 88.0319C51.4656 88.3566 50.2927 87.71 49.9681 86.5878L49.4309 84.7311H44.5947L44.0245 86.613C43.6857 87.731 42.5048 88.3627 41.3867 88.024ZM45.8765 80.5006H48.207L47.0687 76.5657L45.8765 80.5006Z" fill="black"/>
<path d="M34 86V69.1143" stroke="black" stroke-width="4.23053" stroke-linecap="round"/>
<path fill-rule="evenodd" clip-rule="evenodd" d="M58.3867 88.024C57.2687 87.6852 56.637 86.5043 56.9757 85.3862L62.0817 68.5343C62.0975 68.4791 62.1156 68.4247 62.1358 68.3712C62.2632 68.0313 62.4707 67.7416 62.73 67.5173C63.2606 67.0582 64.0079 66.8729 64.7291 67.0914C65.1458 67.2177 65.495 67.461 65.7515 67.7744C65.8665 67.9144 65.9645 68.0707 66.0417 68.2412C66.0901 68.3477 66.1298 68.4583 66.1601 68.5718L71.032 85.4122C71.3566 86.5344 70.7101 87.7073 69.5878 88.0319C68.4656 88.3566 67.2927 87.71 66.9681 86.5878L66.4309 84.7311H61.5947L61.0245 86.613C60.6857 87.731 59.5048 88.3627 58.3867 88.024ZM62.8765 80.5006H65.207L64.0687 76.5657L62.8765 80.5006Z" fill="black"/>
<circle cx="88" cy="21" r="2" fill="black"/>
<rect x="24.5" y="1.5" width="44" height="54" rx="2.5" stroke="black" stroke-width="3"/>
<rect x="32" y="12" width="4.55556" height="12.7556" rx="0.911111" fill="black"/>
<path d="M38.3777 12.9111C38.3777 12.4079 38.7856 12 39.2888 12H48.3999C48.9031 12 49.311 12.4079 49.311 12.9111V15.6444C49.311 16.1476 48.9031 16.5556 48.3999 16.5556H44.7555C44.2523 16.5556 43.8444 16.9635 43.8444 17.4667V18.3778C43.8444 18.881 43.4364 19.2889 42.9332 19.2889H39.2888C38.7856 19.2889 38.3777 18.881 38.3777 18.3778V16.5556V12.9111Z" fill="black"/>
<rect x="51.1333" y="22.9336" width="4.55556" height="4.55556" rx="0.911111" fill="black"/>
<rect x="44.7556" y="20.2002" width="4.55556" height="4.55556" rx="0.911111" fill="black"/>
<rect x="44.7556" y="39.333" width="4.55556" height="4.55556" rx="0.911111" fill="black"/>
<rect x="32" y="39.333" width="4.55556" height="4.55556" rx="0.911111" fill="black"/>
<rect x="38.3777" y="22.9336" width="4.55556" height="4.55556" rx="0.911111" fill="black"/>
<rect x="51.1333" y="29.3115" width="4.55556" height="4.55556" rx="0.911111" fill="black"/>
<rect x="51.1333" y="42.0664" width="4.55556" height="4.55556" rx="0.911111" fill="black"/>
<rect x="38.3777" y="42.0664" width="4.55556" height="4.55556" rx="0.911111" fill="black"/>
<rect x="44.7556" y="26.5781" width="4.55556" height="4.55556" rx="0.911111" fill="black"/>
<rect x="32" y="26.5781" width="4.55556" height="4.55556" rx="0.911111" fill="black"/>
<rect x="44.7556" y="45.7109" width="4.55556" height="4.55556" rx="0.911111" fill="black"/>
<rect x="44.7556" y="52" width="4.55556" height="4.55556" rx="0.911111" fill="black"/>
<rect x="32" y="52" width="4.55556" height="4.55556" rx="0.911111" fill="black"/>
<rect x="32" y="45.7109" width="4.55556" height="4.55556" rx="0.911111" fill="black"/>
<rect x="38.3777" y="29.3115" width="4.55556" height="4.55556" rx="0.911111" fill="black"/>
<rect x="51.1333" y="35.6885" width="4.55556" height="4.55556" rx="0.911111" fill="black"/>
<rect x="51.1333" y="48.4443" width="4.55556" height="4.55556" rx="0.911111" fill="black"/>
<rect x="38.3777" y="48.4443" width="4.55556" height="4.55556" rx="0.911111" fill="black"/>
<rect x="44.7556" y="32.9551" width="4.55556" height="4.55556" rx="0.911111" fill="black"/>
<rect x="32" y="32.9551" width="4.55556" height="4.55556" rx="0.911111" fill="black"/>
<rect x="38.3777" y="35.6885" width="4.55556" height="4.55556" rx="0.911111" fill="black"/>
<rect x="57.5112" y="29.3115" width="4.55556" height="20.0444" rx="0.911111" fill="black"/>
<rect x="51.1333" y="12" width="4.55556" height="9.11111" rx="0.911111" fill="black"/>
<rect x="68" y="38" width="21" height="3" rx="1.5" fill="black"/>
<path d="M79 45.5C79 44.6716 79.6716 44 80.5 44H91.5C92.3284 44 93 44.6716 93 45.5V45.5C93 46.3284 92.3284 47 91.5 47H80.5C79.6716 47 79 46.3284 79 45.5V45.5Z" fill="black"/>
<rect x="85" y="48" width="8" height="3" rx="1.5" fill="black"/>
<path d="M68.5 33.5H96C97.3807 33.5 98.5 34.6193 98.5 36V55.5H68.5V33.5Z" stroke="black" stroke-width="3"/>
</svg>
