<svg width="120" height="104" viewBox="0 0 120 104" fill="none" xmlns="http://www.w3.org/2000/svg">
<path fill-rule="evenodd" clip-rule="evenodd" d="M4 19C1.79086 19 0 20.7909 0 23V53V57V100C0 102.209 1.79086 104 4 104H116C118.209 104 120 102.209 120 100V57V53V23C120 20.7909 118.209 19 116 19H68V23H116V53H4V23L24 23V19H4ZM116 57H4V100H116V57Z" fill="black"/>
<path fill-rule="evenodd" clip-rule="evenodd" d="M74.8848 86C74.8848 87.1683 75.8318 88.1153 77.0001 88.1153C78.1683 88.1153 79.1153 87.1683 79.1153 86V80.098C81.0263 80.034 82.9595 79.779 84.5396 79.0534C85.5235 78.6016 86.4488 77.9327 87.1197 76.9474C87.7986 75.9505 88.1153 74.7788 88.1153 73.5004C88.1153 72.1002 87.6648 70.8732 86.8358 69.8848C86.0389 68.9346 84.9863 68.3144 83.9281 67.9001C81.8636 67.0917 79.3073 66.8877 77.0426 66.8852C77.0284 66.8849 77.0143 66.8848 77.0001 66.8848C75.8874 66.8848 74.9754 67.7439 74.8911 68.8349C74.8869 68.8895 74.8848 68.9447 74.8848 69.0004C74.8848 69.0043 74.8848 69.0081 74.8848 69.0119V86ZM79.1153 71.1933V75.864C80.7214 75.7998 81.9493 75.5876 82.7742 75.2088C83.238 74.9959 83.4843 74.7699 83.623 74.5662C83.7537 74.3742 83.8848 74.063 83.8848 73.5004C83.8848 73.0597 83.7625 72.8038 83.5944 72.6033C83.3941 72.3646 83.0252 72.0898 82.3856 71.8394C81.5204 71.5006 80.3937 71.2947 79.1153 71.1933Z" fill="black"/>
<path fill-rule="evenodd" clip-rule="evenodd" d="M41.3867 88.024C40.2687 87.6852 39.637 86.5043 39.9757 85.3862L45.0817 68.5343C45.0975 68.4791 45.1156 68.4247 45.1358 68.3712C45.2632 68.0313 45.4707 67.7416 45.73 67.5173C46.2606 67.0582 47.0079 66.8729 47.7291 67.0914C48.1458 67.2177 48.495 67.461 48.7515 67.7744C48.8665 67.9144 48.9645 68.0707 49.0417 68.2412C49.0901 68.3477 49.1298 68.4583 49.1601 68.5718L54.032 85.4122C54.3566 86.5344 53.7101 87.7073 52.5878 88.0319C51.4656 88.3566 50.2927 87.71 49.9681 86.5878L49.4309 84.7311H44.5947L44.0245 86.613C43.6857 87.731 42.5048 88.3627 41.3867 88.024ZM45.8765 80.5006H48.207L47.0687 76.5657L45.8765 80.5006Z" fill="black"/>
<path d="M34 86V69.1143" stroke="black" stroke-width="4.23053" stroke-linecap="round"/>
<path fill-rule="evenodd" clip-rule="evenodd" d="M58.3867 88.024C57.2687 87.6852 56.637 86.5043 56.9757 85.3862L62.0817 68.5343C62.0975 68.4791 62.1156 68.4247 62.1358 68.3712C62.2632 68.0313 62.4707 67.7416 62.73 67.5173C63.2606 67.0582 64.0079 66.8729 64.7291 67.0914C65.1458 67.2177 65.495 67.461 65.7515 67.7744C65.8665 67.9144 65.9645 68.0707 66.0417 68.2412C66.0901 68.3477 66.1298 68.4583 66.1601 68.5718L71.032 85.4122C71.3566 86.5344 70.7101 87.7073 69.5878 88.0319C68.4656 88.3566 67.2927 87.71 66.9681 86.5878L66.4309 84.7311H61.5947L61.0245 86.613C60.6857 87.731 59.5048 88.3627 58.3867 88.024ZM62.8765 80.5006H65.207L64.0687 76.5657L62.8765 80.5006Z" fill="black"/>
<rect x="24.5" y="1.5" width="44" height="54" rx="2.5" stroke="black" stroke-width="3"/>
<rect x="32" y="12" width="4.55556" height="12.7556" rx="0.911111" fill="black"/>
<path d="M38.3777 12.9111C38.3777 12.4079 38.7856 12 39.2888 12H48.3999C48.9031 12 49.311 12.4079 49.311 12.9111V15.6444C49.311 16.1476 48.9031 16.5556 48.3999 16.5556H44.7555C44.2523 16.5556 43.8444 16.9635 43.8444 17.4667V18.3778C43.8444 18.881 43.4364 19.2889 42.9332 19.2889H39.2888C38.7856 19.2889 38.3777 18.881 38.3777 18.3778V16.5556V12.9111Z" fill="black"/>
<rect x="51.1333" y="22.9336" width="4.55556" height="4.55556" rx="0.911111" fill="black"/>
<rect x="44.7556" y="20.2002" width="4.55556" height="4.55556" rx="0.911111" fill="black"/>
<rect x="44.7556" y="39.333" width="4.55556" height="4.55556" rx="0.911111" fill="black"/>
<rect x="32" y="39.333" width="4.55556" height="4.55556" rx="0.911111" fill="black"/>
<rect x="38.3777" y="22.9336" width="4.55556" height="4.55556" rx="0.911111" fill="black"/>
<rect x="51.1333" y="29.3115" width="4.55556" height="4.55556" rx="0.911111" fill="black"/>
<rect x="51.1333" y="42.0664" width="4.55556" height="4.55556" rx="0.911111" fill="black"/>
<rect x="38.3777" y="42.0664" width="4.55556" height="4.55556" rx="0.911111" fill="black"/>
<rect x="44.7556" y="26.5781" width="4.55556" height="4.55556" rx="0.911111" fill="black"/>
<rect x="32" y="26.5781" width="4.55556" height="4.55556" rx="0.911111" fill="black"/>
<rect x="44.7556" y="45.7109" width="4.55556" height="4.55556" rx="0.911111" fill="black"/>
<rect x="44.7556" y="52" width="4.55556" height="4.55556" rx="0.911111" fill="black"/>
<rect x="32" y="52" width="4.55556" height="4.55556" rx="0.911111" fill="black"/>
<rect x="32" y="45.7109" width="4.55556" height="4.55556" rx="0.911111" fill="black"/>
<rect x="38.3777" y="29.3115" width="4.55556" height="4.55556" rx="0.911111" fill="black"/>
<rect x="51.1333" y="35.6885" width="4.55556" height="4.55556" rx="0.911111" fill="black"/>
<rect x="51.1333" y="48.4443" width="4.55556" height="4.55556" rx="0.911111" fill="black"/>
<rect x="38.3777" y="48.4443" width="4.55556" height="4.55556" rx="0.911111" fill="black"/>
<rect x="44.7556" y="32.9551" width="4.55556" height="4.55556" rx="0.911111" fill="black"/>
<rect x="32" y="32.9551" width="4.55556" height="4.55556" rx="0.911111" fill="black"/>
<rect x="38.3777" y="35.6885" width="4.55556" height="4.55556" rx="0.911111" fill="black"/>
<rect x="57.5112" y="29.3115" width="4.55556" height="20.0444" rx="0.911111" fill="black"/>
<rect x="51.1333" y="12" width="4.55556" height="9.11111" rx="0.911111" fill="black"/>
<mask id="path-32-inside-1_353_115" fill="white">
<path fill-rule="evenodd" clip-rule="evenodd" d="M81 32C78.7909 32 77 33.7909 77 36V57H110V36C110 33.7909 108.209 32 106 32H81ZM83 38.5C83 37.6716 83.6716 37 84.5 37H102.5C103.328 37 104 37.6716 104 38.5C104 39.3284 103.328 40 102.5 40H84.5C83.6716 40 83 39.3284 83 38.5ZM90 45.5C90 44.6716 90.6716 44 91.5 44H102.5C103.328 44 104 44.6716 104 45.5C104 46.3284 103.328 47 102.5 47H91.5C90.6716 47 90 46.3284 90 45.5ZM84.5 44C83.6716 44 83 44.6716 83 45.5C83 46.3284 83.6716 47 84.5 47H86.5C87.3284 47 88 46.3284 88 45.5C88 44.6716 87.3284 44 86.5 44H84.5ZM83 50.5C83 49.6716 83.6716 49 84.5 49H102.5C103.328 49 104 49.6716 104 50.5C104 51.3284 103.328 52 102.5 52H84.5C83.6716 52 83 51.3284 83 50.5Z"/>
</mask>
<path fill-rule="evenodd" clip-rule="evenodd" d="M81 32C78.7909 32 77 33.7909 77 36V57H110V36C110 33.7909 108.209 32 106 32H81ZM83 38.5C83 37.6716 83.6716 37 84.5 37H102.5C103.328 37 104 37.6716 104 38.5C104 39.3284 103.328 40 102.5 40H84.5C83.6716 40 83 39.3284 83 38.5ZM90 45.5C90 44.6716 90.6716 44 91.5 44H102.5C103.328 44 104 44.6716 104 45.5C104 46.3284 103.328 47 102.5 47H91.5C90.6716 47 90 46.3284 90 45.5ZM84.5 44C83.6716 44 83 44.6716 83 45.5C83 46.3284 83.6716 47 84.5 47H86.5C87.3284 47 88 46.3284 88 45.5C88 44.6716 87.3284 44 86.5 44H84.5ZM83 50.5C83 49.6716 83.6716 49 84.5 49H102.5C103.328 49 104 49.6716 104 50.5C104 51.3284 103.328 52 102.5 52H84.5C83.6716 52 83 51.3284 83 50.5Z" fill="black"/>
<path d="M77 57H74V60H77V57ZM110 57V60H113V57H110ZM80 36C80 35.4477 80.4477 35 81 35V29C77.134 29 74 32.134 74 36H80ZM80 57V36H74V57H80ZM110 54H77V60H110V54ZM107 36V57H113V36H107ZM106 35C106.552 35 107 35.4477 107 36H113C113 32.134 109.866 29 106 29V35ZM81 35H106V29H81V35ZM84.5 34C82.0147 34 80 36.0147 80 38.5H86C86 39.3284 85.3284 40 84.5 40V34ZM102.5 34H84.5V40H102.5V34ZM107 38.5C107 36.0147 104.985 34 102.5 34V40C101.672 40 101 39.3284 101 38.5H107ZM102.5 43C104.985 43 107 40.9853 107 38.5H101C101 37.6716 101.672 37 102.5 37V43ZM84.5 43H102.5V37H84.5V43ZM80 38.5C80 40.9853 82.0147 43 84.5 43V37C85.3284 37 86 37.6716 86 38.5H80ZM91.5 41C89.0147 41 87 43.0147 87 45.5H93C93 46.3284 92.3284 47 91.5 47V41ZM102.5 41H91.5V47H102.5V41ZM107 45.5C107 43.0147 104.985 41 102.5 41V47C101.672 47 101 46.3284 101 45.5H107ZM102.5 50C104.985 50 107 47.9853 107 45.5H101C101 44.6716 101.672 44 102.5 44V50ZM91.5 50H102.5V44H91.5V50ZM87 45.5C87 47.9853 89.0147 50 91.5 50V44C92.3284 44 93 44.6716 93 45.5H87ZM86 45.5C86 46.3284 85.3284 47 84.5 47V41C82.0147 41 80 43.0147 80 45.5H86ZM84.5 44C85.3284 44 86 44.6716 86 45.5H80C80 47.9853 82.0147 50 84.5 50V44ZM86.5 44H84.5V50H86.5V44ZM85 45.5C85 44.6716 85.6716 44 86.5 44V50C88.9853 50 91 47.9853 91 45.5H85ZM86.5 47C85.6716 47 85 46.3284 85 45.5H91C91 43.0147 88.9853 41 86.5 41V47ZM84.5 47H86.5V41H84.5V47ZM84.5 46C82.0147 46 80 48.0147 80 50.5H86C86 51.3284 85.3284 52 84.5 52V46ZM102.5 46H84.5V52H102.5V46ZM107 50.5C107 48.0147 104.985 46 102.5 46V52C101.672 52 101 51.3284 101 50.5H107ZM102.5 55C104.985 55 107 52.9853 107 50.5H101C101 49.6716 101.672 49 102.5 49V55ZM84.5 55H102.5V49H84.5V55ZM80 50.5C80 52.9853 82.0147 55 84.5 55V49C85.3284 49 86 49.6716 86 50.5H80Z" fill="black" mask="url(#path-32-inside-1_353_115)"/>
<path d="M113 23H116V26V26C115.528 24.5836 114.416 23.4721 113 23V23Z" fill="black"/>
<path d="M7 23H4V26V26C4.47214 24.5836 5.58359 23.4721 7 23V23Z" fill="black"/>
</svg>
