<svg width="21" height="24" viewBox="0 0 21 24" fill="none" xmlns="http://www.w3.org/2000/svg">
<path d="M9.43669 24L21 19.1767L20.9787 4.32342L11.5433 0L0.00716087 4.81233L0 19.675L9.43669 24ZM0.732189 12.9455L9.0825 16.7186L9.07934 23.0225L0.729358 19.1961L0.732189 12.9455ZM0.733188 10.6822L11.169 6.32985L11.1685 7.27345L0.733021 11.6257L0.733188 10.6822ZM0.73402 8.86903L11.1698 4.51682L11.1693 5.52816L0.733521 9.88071L0.73402 8.86903ZM0.735186 7.04296L11.1707 2.69058L11.1702 3.71479L0.734687 8.06734L0.735186 7.04296ZM11.1717 0.956132L11.1713 1.88906L0.735186 6.24178L0.735686 5.30987L11.1717 0.956132ZM20.2592 11.0594L11.8975 7.28107L11.9005 0.976961L20.2498 4.80284L20.2592 11.0594ZM20.2623 13.3108L9.81069 17.6702L9.81136 16.7264L20.2607 12.3679L20.2623 13.3108ZM20.2648 15.122L9.81019 19.483V18.4715L20.2635 14.1117L20.2648 15.122ZM20.2678 16.947L9.80903 21.3091L9.80969 20.2844L20.2661 15.923L20.2678 16.947ZM9.80803 23.0434L9.80853 22.1109L20.269 17.7477L20.2706 18.6796L9.80803 23.0434ZM9.45251 16.0744L1.07006 12.2868L11.5272 7.92492L19.9098 11.7129L9.45251 16.0744Z" fill="#231F20"/>
</svg>
