<?xml version="1.0" encoding="UTF-8" standalone="no"?>
<!DOCTYPE svg PUBLIC "-//W3C//DTD SVG 1.1//EN" "http://www.w3.org/Graphics/SVG/1.1/DTD/svg11.dtd">
<svg width="100%" height="100%" viewBox="0 0 1066 600" version="1.1" xmlns="http://www.w3.org/2000/svg" xmlns:xlink="http://www.w3.org/1999/xlink" xml:space="preserve" xmlns:serif="http://www.serif.com/" style="fill-rule:evenodd;clip-rule:evenodd;stroke-linejoin:round;stroke-miterlimit:2;">
    <g id="path3207" transform="matrix(1.46228,0,0,1.46228,-413.683,-18.0466)">
        <path d="M1009.25,135.705C986,31.816 803.486,-15.77 601.592,29.417C584.411,33.252 567.65,37.662 551.367,42.544C551.432,42.544 551.561,42.544 551.561,42.479C727.46,3.105 887.309,48.428 908.649,143.678C929.955,238.948 804.643,348.081 628.77,387.429C471.313,422.677 326.777,390.022 282.902,314.456C319.819,407.688 493.998,448.511 685.778,405.593C887.678,360.458 1032.48,239.607 1009.24,135.725" style="fill-rule:nonzero;"/>
    </g>
    <g id="path3293" transform="matrix(1.85773,0,0,1.85773,-796.492,-107.562)">
        <path d="M634.006,168.068L723.058,168.068L723.058,87.316L754.187,87.316L754.187,293.739L723.058,293.739L723.058,197.332L634.006,197.332L634.006,293.739L602.877,293.739L602.877,87.316L634.006,87.316M495.952,180.914L507.589,180.914C536.222,180.914 550.486,169.881 550.486,147.84C550.486,126.562 535.749,115.897 506.275,115.897L495.952,115.897L495.952,180.914ZM495.952,209.783L495.952,293.582L464.797,293.582L464.797,87.185L500.102,87.185C517.361,87.185 530.469,88.499 539.269,90.784C548.201,93.411 556.003,97.693 562.78,104.444C574.654,116.029 574.234,182.122 561.598,193.181C548.963,204.214 531.888,209.783 510.4,209.783" style="fill-rule:nonzero;"/>
    </g>
</svg>
