<svg width="130" height="130" viewBox="0 0 130 130" fill="none" xmlns="http://www.w3.org/2000/svg">
<path fill-rule="evenodd" clip-rule="evenodd" d="M130 0H0V130H130V0ZM24.0852 109.569H18.1406V82.5339H24.0852V109.569ZM29.3092 109.569H48.4305V104.57H35.2538V82.5339H29.3092V109.569ZM59.14 109.569H53.1959V82.5339H59.14V109.569ZM62.4454 109.569H68.4658L70.5867 103.548H80.6953L82.7408 109.569H88.912L78.8029 82.5339H72.7071L62.4454 109.569ZM75.6595 89.1978H75.7353L79.1426 99.1178H72.1385L75.6595 89.1978ZM103.31 110.212C97.326 110.212 91.7225 107.258 91.7983 100.594V100.595H97.5534C97.5534 104.192 100.355 105.593 103.535 105.593C105.618 105.593 108.799 104.987 108.799 102.223C108.799 99.7348 105.849 99.0118 102.513 98.1943C101.94 98.0538 101.355 97.9106 100.773 97.7551C96.7593 96.6947 92.7076 95.1429 92.7076 90.0692C92.7076 84.5406 97.9329 81.8904 102.817 81.8904C108.459 81.8904 113.646 84.3506 113.646 90.5984H107.891C107.701 87.3423 105.391 86.5093 102.553 86.5093C100.66 86.5093 98.4631 87.3049 98.4631 89.5764C98.4631 91.5953 99.6731 91.9059 105.923 93.5101C106.12 93.5606 106.322 93.6124 106.529 93.6655C106.602 93.684 106.682 93.7035 106.767 93.7244C108.943 94.2588 114.555 95.6373 114.555 101.541C114.555 106.501 110.655 110.212 103.31 110.212Z" fill="black"/>
</svg>
