<svg width="196" height="204" viewBox="0 0 196 204" fill="none" xmlns="http://www.w3.org/2000/svg">
<path d="M4.53516 115.895V171.919L51.097 198.499M4.53516 115.895L51.097 143.293M4.53516 115.895L51.097 88.0869L97.6589 115.895M51.097 198.499L97.6589 171.919V115.895M51.097 198.499V143.293M97.6589 115.895L51.097 143.293" stroke="black" stroke-width="7.85855"/>
<path d="M97.6602 115.895V171.919L144.419 198.499M97.6602 115.895L144.419 143.293M97.6602 115.895L144.419 88.0869L191.177 115.895M144.419 198.499L191.177 171.919V115.895M144.419 198.499V143.293M191.177 115.895L144.419 143.293" stroke="black" stroke-width="7.85855"/>
<path d="M51.293 32.4948V88.3196L97.8549 114.806M51.293 32.4948L97.8549 59.796M51.293 32.4948L60.9197 26.766M97.8549 114.806L144.417 88.3196V32.4948M97.8549 114.806V59.796M144.417 32.4948L97.8549 59.796M144.417 32.4948L97.8549 4.78613L81.5484 14.49" stroke="black" stroke-width="7.85855" stroke-linecap="round"/>
<circle cx="3.92927" cy="3.92927" r="3.92927" transform="matrix(-1 0 0 1 75.2617 16.9668)" fill="black"/>
</svg>
