<svg width="131" height="112" viewBox="0 0 131 112" fill="none" xmlns="http://www.w3.org/2000/svg">
<path d="M131 17.5C131 7.83501 123.165 0 113.5 0C103.835 0 96 7.83502 96 17.5V94.5001C96 104.165 103.835 112 113.5 112C123.165 112 131 104.165 131 94.5001V17.5Z" fill="black"/>
<path d="M128.191 26.9369C133.998 17.9893 130.462 6.01549 120.704 1.58767C112.422 -2.17072 102.616 0.948182 98.083 8.78244L53.0319 87.2769C48.7315 94.7098 51.4885 104.197 59.1184 108.221C66.1445 111.927 74.8626 109.673 79.1697 103.037L128.191 26.9369Z" fill="black"/>
<path d="M0 17.5C0 7.83501 7.83502 0 17.5 0C27.165 0 35 7.83502 35 17.5V94.5001C35 104.165 27.165 112 17.5 112C7.83502 112 0 104.165 0 94.5001V17.5Z" fill="black"/>
<path d="M3.80925 26.9369C-1.9985 17.9893 1.53766 6.01549 11.2955 1.58767C19.5781 -2.17072 29.3844 0.948182 33.917 8.78244L78.9681 87.2769C83.2685 94.7098 80.5115 104.197 72.8816 108.221C65.8555 111.927 57.1374 109.673 52.8303 103.037L3.80925 26.9369Z" fill="black"/>
</svg>
