<svg width="140" height="140" viewBox="0 0 140 140" fill="none" xmlns="http://www.w3.org/2000/svg">
<path d="M63.9915 48.2128C62.7694 49.053 61.7897 50.1996 61.1506 51.5378C60.6084 52.5333 59.7011 53.2794 58.6197 53.6191C57.5382 53.9587 56.3672 53.8654 55.3532 53.3588C54.3392 52.8522 53.5614 51.9718 53.1837 50.9031C52.8059 49.8344 52.8577 48.6608 53.3281 47.6295C54.4948 45.2845 56.3206 42.8112 59.144 40.9328C61.9906 39.0253 65.5898 37.917 69.9998 37.917C73.8381 37.917 77.9856 39.0545 81.2815 41.5278C83.1189 42.871 84.609 44.6336 85.6277 46.669C86.6464 48.7044 87.1642 50.9536 87.1381 53.2295C87.1381 59.2553 84.1456 63.2628 81.1473 66.1503C80.039 67.2178 78.8198 68.2387 77.7698 69.1137L76.9123 69.8312C76.0126 70.5671 75.1647 71.3643 74.3748 72.217V80.2087C74.3748 81.369 73.9139 82.4818 73.0934 83.3022C72.2729 84.1227 71.1601 84.5837 69.9998 84.5837C68.8395 84.5837 67.7267 84.1227 66.9062 83.3022C66.0857 82.4818 65.6248 81.369 65.6248 80.2087V71.6162C65.6248 70.2337 66.0156 68.6762 67.0656 67.3228C68.349 65.6895 69.9006 64.307 71.254 63.1578L72.3215 62.2653L72.3273 62.2595C73.3306 61.4253 74.2173 60.6845 75.069 59.8562C77.2156 57.7853 78.3881 55.9128 78.3881 53.2295C78.4139 52.3122 78.2122 51.4027 77.801 50.5823C77.3897 49.762 76.7818 49.0561 76.0315 48.5278C74.4681 47.3553 72.2398 46.667 69.9998 46.667C67.1181 46.667 65.2515 47.3728 63.9915 48.2128ZM75.8331 99.167C75.8331 100.714 75.2185 102.198 74.1246 103.292C73.0306 104.386 71.5469 105 69.9998 105C68.4527 105 66.969 104.386 65.875 103.292C64.781 102.198 64.1665 100.714 64.1665 99.167C64.1665 97.6199 64.781 96.1362 65.875 95.0422C66.969 93.9482 68.4527 93.3337 69.9998 93.3337C71.5469 93.3337 73.0306 93.9482 74.1246 95.0422C75.2185 96.1362 75.8331 97.6199 75.8331 99.167Z" fill="black"/>
<path d="M70 5.83301C105.438 5.83301 134.167 34.5622 134.167 69.9997C134.167 105.437 105.438 134.166 70 134.166C34.5625 134.166 5.83337 105.437 5.83337 69.9997C5.83337 34.5622 34.5625 5.83301 70 5.83301ZM14.5834 69.9997C14.5834 84.6971 20.4219 98.7925 30.8145 109.185C41.2072 119.578 55.3026 125.416 70 125.416C84.6974 125.416 98.7929 119.578 109.186 109.185C119.578 98.7925 125.417 84.6971 125.417 69.9997C125.417 55.3023 119.578 41.2068 109.186 30.8142C98.7929 20.4215 84.6974 14.583 70 14.583C55.3026 14.583 41.2072 20.4215 30.8145 30.8142C20.4219 41.2068 14.5834 55.3023 14.5834 69.9997Z" fill="black"/>
</svg>
