<svg width="213" height="155" viewBox="0 0 213 155" fill="none" xmlns="http://www.w3.org/2000/svg">
<path d="M184 40V15.077C184 9.5242 179.476 5.03472 173.923 5.07734L12.9233 6.31295C7.43052 6.3551 3 10.8198 3 16.3127V114C3 119.523 7.47715 124 13 124H93.5H109" stroke="black" stroke-width="5.5" stroke-linecap="round"/>
<circle cx="94.1453" cy="32.7761" r="7.27612" fill="black" stroke="black" stroke-width="3.39552"/>
<path d="M70.8757 41.8219L94 44.5L117.324 41.775C118.818 41.5927 120.194 42.6104 120.457 44.0925C120.739 45.6805 119.641 47.1834 118.042 47.3968L102.202 49.5118C101.192 49.6467 100.437 50.5089 100.437 51.5284V54.6847C100.437 57.2805 100.894 59.8561 101.788 62.2933L105.976 73.7205C106.63 75.5056 105.519 77.4498 103.649 77.792C102.161 78.0642 100.697 77.2109 100.201 75.7824L94 58.5L87.999 75.8292C87.5025 77.2578 86.0385 78.111 84.5508 77.8389C82.6806 77.4967 81.5693 75.5525 82.2236 73.7673L86.4121 62.3402C87.3054 59.9029 87.7625 57.3274 87.7625 54.7316V51.5753C87.7625 50.5557 87.0079 49.6936 85.9973 49.5587L70.1575 47.4437C68.5588 47.2303 67.4604 45.7274 67.7424 44.1394C68.0056 42.6573 69.3816 41.6396 70.8757 41.8219Z" fill="black"/>
<path d="M70.8757 41.8219L94 44.5L117.324 41.775C118.818 41.5927 120.194 42.6104 120.457 44.0925C120.739 45.6805 119.641 47.1834 118.042 47.3968L102.202 49.5118C101.192 49.6467 100.437 50.5089 100.437 51.5284V54.6847C100.437 57.2805 100.894 59.8561 101.788 62.2933L105.976 73.7205C106.63 75.5056 105.519 77.4498 103.649 77.792C102.161 78.0642 100.697 77.2109 100.201 75.7824L94 58.5L87.999 75.8292C87.5025 77.2578 86.0385 78.111 84.5508 77.8389C82.6806 77.4967 81.5693 75.5525 82.2236 73.7673L86.4121 62.3402C87.3054 59.9029 87.7625 57.3274 87.7625 54.7316V51.5753C87.7625 50.5557 87.0079 49.6936 85.9973 49.5587L70.1575 47.4437C68.5588 47.2303 67.4604 45.7274 67.7424 44.1394C68.0056 42.6573 69.3816 41.6396 70.8757 41.8219Z" fill="black"/>
<path d="M94 44.5L93.9425 44.9967L94.0003 45.0034L94.058 44.9966L94 44.5ZM70.8757 41.8219L70.8152 42.3182L70.8182 42.3186L70.8757 41.8219ZM70.1575 47.4437L70.2237 46.9481L70.2237 46.9481L70.1575 47.4437ZM85.9973 49.5587L85.9311 50.0543L85.9311 50.0543L85.9973 49.5587ZM86.4121 62.3402L85.9426 62.1681L85.9426 62.1681L86.4121 62.3402ZM82.2236 73.7673L82.6931 73.9394L82.6931 73.9394L82.2236 73.7673ZM87.999 75.8292L88.4713 75.9934L88.4715 75.9928L87.999 75.8292ZM94 58.5L94.4706 58.3311L93.9916 56.9961L93.5275 58.3364L94 58.5ZM84.5508 77.8389L84.6408 77.347L84.6408 77.347L84.5508 77.8389ZM67.7424 44.1394L67.2501 44.0519L67.2501 44.0519L67.7424 44.1394ZM117.324 41.775L117.382 42.2716L117.384 42.2713L117.324 41.775ZM118.042 47.3968L117.976 46.9012L117.976 46.9012L118.042 47.3968ZM102.202 49.5118L102.136 49.0162L102.136 49.0162L102.202 49.5118ZM101.788 62.2933L102.257 62.1212L102.257 62.1212L101.788 62.2933ZM105.976 73.7205L105.507 73.8925L105.507 73.8925L105.976 73.7205ZM100.201 75.7824L100.673 75.6182L100.671 75.6135L100.201 75.7824ZM103.649 77.792L103.559 77.3002L103.559 77.3002L103.649 77.792ZM120.457 44.0925L119.965 44.1799L119.965 44.1799L120.457 44.0925ZM94.0575 44.0033L70.9332 41.3252L70.8182 42.3186L93.9425 44.9967L94.0575 44.0033ZM70.0914 47.9393L85.9311 50.0543L86.0634 49.0631L70.2237 46.9481L70.0914 47.9393ZM87.2625 51.5753V54.7316H88.2625V51.5753H87.2625ZM85.9426 62.1681L81.7541 73.5953L82.6931 73.9394L86.8815 62.5123L85.9426 62.1681ZM88.4715 75.9928L94.4725 58.6636L93.5275 58.3364L87.5265 75.6656L88.4715 75.9928ZM84.4608 78.3307C86.1912 78.6473 87.8938 77.6549 88.4713 75.9934L87.5267 75.6651C87.1112 76.8607 85.8859 77.5748 84.6408 77.347L84.4608 78.3307ZM81.7541 73.5953C80.9931 75.6715 82.2856 77.9328 84.4608 78.3307L84.6408 77.347C83.0755 77.0607 82.1454 75.4335 82.6931 73.9394L81.7541 73.5953ZM87.2625 54.7316C87.2625 57.2687 86.8157 59.786 85.9426 62.1681L86.8815 62.5123C87.7951 60.0199 88.2625 57.3861 88.2625 54.7316H87.2625ZM85.9311 50.0543C86.6933 50.156 87.2625 50.8063 87.2625 51.5753H88.2625C88.2625 50.3052 87.3224 49.2312 86.0634 49.0631L85.9311 50.0543ZM67.2501 44.0519C66.9184 45.9202 68.2106 47.6882 70.0914 47.9393L70.2237 46.9481C68.9071 46.7723 68.0025 45.5346 68.2347 44.2268L67.2501 44.0519ZM70.9363 41.3256C69.1785 41.1111 67.5598 42.3084 67.2501 44.0519L68.2347 44.2268C68.4515 43.0062 69.5846 42.1681 70.8152 42.3182L70.9363 41.3256ZM94.058 44.9966L117.382 42.2716L117.266 41.2784L93.942 44.0034L94.058 44.9966ZM117.976 46.9012L102.136 49.0162L102.269 50.0074L118.108 47.8924L117.976 46.9012ZM99.9371 51.5284V54.6847H100.937V51.5284H99.9371ZM101.318 62.4654L105.507 73.8925L106.445 73.5484L102.257 62.1212L101.318 62.4654ZM100.671 75.6135L94.4706 58.3311L93.5294 58.6689L99.73 75.9512L100.671 75.6135ZM103.559 77.3002C102.314 77.5279 101.088 76.8139 100.673 75.6182L99.7283 75.9465C100.306 77.608 102.008 78.6004 103.739 78.2838L103.559 77.3002ZM105.507 73.8925C106.054 75.3866 105.124 77.0138 103.559 77.3002L103.739 78.2838C105.914 77.8859 107.206 75.6247 106.445 73.5484L105.507 73.8925ZM99.9371 54.6847C99.9371 57.3392 100.405 59.973 101.318 62.4654L102.257 62.1212C101.384 59.7391 100.937 57.2218 100.937 54.6847H99.9371ZM102.136 49.0162C100.877 49.1843 99.9371 50.2583 99.9371 51.5284H100.937C100.937 50.7594 101.506 50.1092 102.269 50.0074L102.136 49.0162ZM119.965 44.1799C120.197 45.4877 119.293 46.7254 117.976 46.9012L118.108 47.8924C119.989 47.6413 121.281 45.8733 120.949 44.0051L119.965 44.1799ZM117.384 42.2713C118.615 42.1212 119.748 42.9593 119.965 44.1799L120.949 44.0051C120.64 42.2615 119.021 41.0643 117.263 41.2787L117.384 42.2713Z" fill="black"/>
<path d="M58 124.5C58 114.007 48.3741 105.5 36.5 105.5C24.6259 105.5 15 114.007 15 124.5" stroke="black" stroke-width="5.5"/>
<rect x="116" y="121" width="5" height="5" rx="2.5" fill="black"/>
<circle cx="37" cy="84.5" r="13.25" stroke="black" stroke-width="5.5"/>
<path d="M210 151.5C210 134.931 190.972 121.5 167.5 121.5C144.028 121.5 125 134.931 125 151.5" stroke="black" stroke-width="5.5" stroke-linecap="round"/>
<circle cx="167.5" cy="82" r="31.75" stroke="black" stroke-width="5.5"/>
</svg>
