<svg width="236" height="200" viewBox="0 0 236 200" fill="none" xmlns="http://www.w3.org/2000/svg">
<path d="M18.207 11.3999C18.207 7.3648 21.4781 4.09375 25.5132 4.09375H209.171C213.206 4.09375 216.477 7.36481 216.477 11.3999V143.397H18.207V11.3999Z" stroke="black" stroke-width="6.84949"/>
<path d="M3.95703 175.452V195.118C3.95703 195.622 4.36592 196.031 4.87031 196.031H230.599C231.104 196.031 231.512 195.622 231.512 195.118V175.452" stroke="black" stroke-width="6.84949"/>
<path d="M146.427 183.763L143.916 169.973C143.284 166.5 140.259 163.976 136.728 163.976H99.9289C96.3986 163.976 93.3732 166.5 92.7409 169.973L90.2305 183.763" stroke="black" stroke-width="6.84949"/>
<path d="M18.6224 143.396L4.78253 173.396C2.54917 178.237 6.08531 183.763 11.4167 183.763H224.054C229.385 183.763 232.921 178.237 230.688 173.396L216.848 143.396" stroke="black" stroke-width="6.84949" stroke-linecap="round"/>
<circle cx="119.138" cy="44.0639" r="11.8725" stroke="black" stroke-width="5.54048"/>
<path fill-rule="evenodd" clip-rule="evenodd" d="M156.629 56.0004C160.527 55.5248 164.118 58.1802 164.804 62.0473C165.54 66.1909 162.674 70.1123 158.503 70.6693L132.657 74.1202C132.384 74.1567 132.18 74.3895 132.18 74.6649V79.815C132.18 83.7253 132.869 87.6051 134.215 91.2766L141.049 109.922C142.708 114.448 139.89 119.377 135.149 120.244C131.378 120.934 127.666 118.771 126.407 115.15L119.08 94.0673L111.727 115.225C110.468 118.847 106.757 121.01 102.985 120.32C98.2441 119.452 95.4268 114.523 97.0857 109.998L103.92 91.3521C105.266 87.6806 105.954 83.8008 105.954 79.8904V74.7404C105.954 74.465 105.75 74.2321 105.478 74.1957L79.6318 70.7447C75.4604 70.1877 72.5943 66.2664 73.3302 62.1227C74.0169 58.2557 77.6071 55.6003 81.5058 56.0758L118.78 60.6226C118.836 60.6122 118.892 60.6035 118.95 60.5965L156.629 56.0004ZM119.543 66.1046C119.216 66.1891 118.869 66.215 118.514 66.1717L80.8349 61.5755C79.8575 61.4563 78.9575 62.122 78.7853 63.0915C78.6008 64.1303 79.3193 65.1133 80.3651 65.253L106.211 68.7039C109.236 69.1079 111.495 71.6885 111.495 74.7404V79.8904C111.495 84.4513 110.692 88.9765 109.122 93.2588L102.288 111.905C101.811 113.205 102.62 114.62 103.983 114.87C105.066 115.068 106.132 114.446 106.494 113.406L116.233 85.3841C116.601 84.3235 117.55 83.6296 118.599 83.5339C119.98 83.1794 121.425 83.9377 121.902 85.3086L131.641 113.331C132.002 114.371 133.069 114.992 134.152 114.794C135.514 114.545 136.323 113.129 135.847 111.829L129.013 93.1833C127.443 88.9011 126.64 84.3758 126.64 79.815V74.6649C126.64 71.613 128.899 69.0324 131.924 68.6285L157.769 65.1775C158.815 65.0379 159.534 64.0548 159.349 63.016C159.177 62.0466 158.277 61.3808 157.3 61.5001L119.621 66.0962C119.595 66.0994 119.569 66.1022 119.543 66.1046Z" fill="black"/>
</svg>
