<svg width="36" height="36" viewBox="0 0 36 36" fill="none" xmlns="http://www.w3.org/2000/svg">
<path d="M0 4.86486L18 0L36 4.86486V31.1351L18 36L0 31.1351V4.86486Z" fill="#2B417E"/>
<g clip-path="url(#clip0_291_2)">
<path fill-rule="evenodd" clip-rule="evenodd" d="M15.7241 21.68L23.4598 13.9443L25.2396 15.7241C25.3784 15.8629 25.5553 15.9574 25.7478 15.9957C25.9403 16.034 26.1399 16.0143 26.3212 15.9392C26.5026 15.8641 26.6576 15.7369 26.7667 15.5737C26.8758 15.4105 26.934 15.2186 26.9341 15.0223V10.0591L26.9331 10.0114C26.9218 9.75633 26.8123 9.5155 26.6274 9.33935C26.4426 9.1632 26.1967 9.0654 25.9414 9.06641H20.9782C20.7819 9.06646 20.59 9.1247 20.4268 9.23377C20.2636 9.34285 20.1364 9.49786 20.0613 9.67922C19.9862 9.86058 19.9665 10.0601 20.0048 10.2527C20.0431 10.4452 20.1376 10.622 20.2764 10.7609L22.0562 12.5407L14.3205 20.2764C14.2257 20.3679 14.1501 20.4775 14.098 20.5986C14.046 20.7197 14.0186 20.8499 14.0175 20.9818C14.0163 21.1136 14.0415 21.2443 14.0914 21.3663C14.1413 21.4883 14.215 21.5991 14.3082 21.6923C14.4014 21.7855 14.5122 21.8592 14.6342 21.9091C14.7562 21.959 14.8869 21.9841 15.0187 21.983C15.1505 21.9818 15.2808 21.9545 15.4019 21.9024C15.523 21.8504 15.6325 21.7748 15.7241 21.68ZM10.0591 9.06641C9.79579 9.06641 9.5433 9.171 9.35715 9.35715C9.17099 9.54331 9.06641 9.79579 9.06641 10.0591V23.9561C9.06641 24.7459 9.38015 25.5034 9.93863 26.0618C10.4971 26.6203 11.2545 26.9341 12.0443 26.9341H23.9561C24.7459 26.9341 25.5034 26.6203 26.0618 26.0618C26.6203 25.5034 26.9341 24.7459 26.9341 23.9561V18.9929C26.9341 18.7296 26.8295 18.4771 26.6433 18.291C26.4572 18.1048 26.2047 18.0002 25.9414 18.0002C25.6781 18.0002 25.4257 18.1048 25.2395 18.291C25.0533 18.4771 24.9488 18.7296 24.9488 18.9929V23.9561C24.9488 24.2194 24.8442 24.4719 24.658 24.658C24.4719 24.8442 24.2194 24.9488 23.9561 24.9488H12.0443C11.7811 24.9488 11.5286 24.8442 11.3424 24.658C11.1563 24.4719 11.0517 24.2194 11.0517 23.9561V11.0517H17.0076C17.2708 11.0517 17.5233 10.9471 17.7095 10.761C17.8956 10.5748 18.0002 10.3223 18.0002 10.0591C18.0002 9.79579 17.8956 9.54331 17.7095 9.35715C17.5233 9.171 17.2708 9.06641 17.0076 9.06641H10.0591Z" fill="white"/>
</g>
<defs>
<clipPath id="clip0_291_2">
<rect width="18" height="18" fill="white" transform="translate(9 9)"/>
</clipPath>
</defs>
</svg>
