<svg width="123" height="122" viewBox="0 0 123 122" fill="none" xmlns="http://www.w3.org/2000/svg">
<path d="M120 69V116.42C120 117.812 118.864 118.946 117.469 118.946H5.53053C4.13633 118.946 3 117.812 3 116.42V98.2861C3 96.8943 4.13633 95.76 5.53053 95.76H23.7035C25.0977 95.76 26.234 94.6256 26.234 93.2338V75.0921C26.234 73.7003 27.3703 72.566 28.7645 72.566H46.9294C48.3236 72.566 49.4599 71.4316 49.4599 70.0398V51.9061C49.4599 50.5143 50.5962 49.38 51.9904 49.38H70.1634C71.5576 49.38 72.6939 48.2456 72.6939 46.8538V28.7121C72.6939 27.3203 73.8302 26.186 75.2244 26.186H93.3893C94.7835 26.186 95.9198 25.0516 95.9198 23.6598V5.52616C95.9198 4.13436 97.0561 3 98.4503 3H117.469C118.864 3 120 4.13436 120 5.52616V55" stroke="black" stroke-width="5" stroke-miterlimit="10" stroke-linecap="round"/>
<circle cx="2.5" cy="2.5" r="2.5" transform="matrix(1 0 0 -1 117.5 64)" fill="black"/>
</svg>
