<?xml version="1.0" encoding="UTF-8" standalone="no"?>
<!-- Created with Inkscape (http://www.inkscape.org/) -->
<svg xmlns:svg="http://www.w3.org/2000/svg" xmlns="http://www.w3.org/2000/svg" version="1.0" width="602.36218" height="139.60629" id="svg3234">
  <defs id="defs3236"/>
  <g transform="translate(-416.53545,-300.27598)" id="layer1">
    <g transform="matrix(1.1428571,0,0,-1.1428571,379.17956,871.10939)" id="g3210">
      <rect width="496.06299" height="91.150864" x="48.188377" y="-483.97693" transform="scale(1,-1)" id="rect3195" style="fill:#000099;fill-opacity:1;stroke:none;stroke-width:41;stroke-miterlimit:4;stroke-dasharray:none;stroke-opacity:1"/>
      <path d="M 113.40986,462.71709 L 92.27151,438.46634 L 109.08709,418.32223 L 91.752778,418.32223 L 75.023652,438.46634 L 95.772955,462.24159 L 90.19658,462.24159 L 69.447277,438.46634 L 89.80753,414.08591 L 113.40986,414.08591 L 134.24563,438.46634 L 113.40986,462.71709 z M 145.57128,459.21565 L 145.57128,441.14646 L 148.64046,441.14646 L 148.64046,448.84099 L 150.23987,448.84099 C 152.75227,448.84098 156.59435,449.66578 156.59435,453.98509 C 156.59435,458.77473 153.03931,459.21565 150.23987,459.21565 L 145.57128,459.21565 z M 178.33789,459.21565 L 178.33789,452.1263 L 178.29467,452.1263 C 177.92811,452.75397 177.04106,453.89863 175.18227,453.89863 C 172.19781,453.89862 170.90273,450.98508 170.90273,447.37125 C 170.90273,443.88881 171.85892,440.84386 175.18227,440.84386 C 176.75401,440.84388 178.03357,442.16837 178.29467,442.87557 L 178.33789,442.87557 L 178.33789,441.14646 L 181.27738,441.14646 L 181.27738,459.21565 L 178.33789,459.21565 z M 238.0786,459.21565 L 238.0786,456.31938 L 240.97485,456.31938 L 240.97485,459.21565 L 238.0786,459.21565 z M 266.82503,459.21565 L 266.82503,441.14646 L 269.72128,441.14646 L 269.72128,446.54992 C 269.72128,448.51422 270.69823,451.17529 272.66077,451.17529 C 273.68094,451.1753 273.91437,450.81909 273.91437,448.27903 L 273.91437,441.14646 L 276.85386,441.14646 L 276.85386,449.792 C 276.85387,452.64505 275.31668,453.89863 273.48209,453.89863 C 271.17892,453.89864 270.15702,452.20584 269.76451,451.26174 L 269.72128,451.26174 L 269.72128,459.21565 L 266.82503,459.21565 z M 301.19106,459.21565 L 301.19106,441.14646 L 304.26023,441.14646 L 304.26023,449.40296 L 310.74439,449.40296 L 310.74439,441.14646 L 313.81355,441.14646 L 313.81355,459.21565 L 310.74439,459.21565 L 310.74439,451.73725 L 304.26023,451.73725 L 304.26023,459.21565 L 301.19106,459.21565 z M 343.03548,459.21565 L 343.03548,441.14646 L 345.93174,441.14646 L 345.93174,446.54992 C 345.93173,448.51422 346.90696,451.17529 348.87123,451.17529 C 349.89312,451.1753 350.16806,450.81909 350.16806,448.27903 L 350.16806,441.14646 L 353.06431,441.14646 L 353.06431,449.792 C 353.0643,452.64505 351.52541,453.89863 349.69256,453.89863 C 347.38938,453.89864 346.36921,452.20584 345.97497,451.26174 L 345.93174,451.26174 L 345.93174,459.21565 L 343.03548,459.21565 z M 378.69835,459.21565 L 378.69835,441.14646 L 381.59461,441.14646 L 381.59461,446.54992 C 381.59461,448.51422 382.57155,451.17529 384.53409,451.17529 C 385.55254,451.1753 385.83093,450.81909 385.83093,448.27903 L 385.83093,441.14646 L 388.72718,441.14646 L 388.72718,449.792 C 388.72719,452.64505 387.18654,453.89863 385.35542,453.89863 C 383.05053,453.89864 382.0753,452.20584 381.68106,451.26174 L 381.59461,451.26174 L 381.59461,459.21565 L 378.69835,459.21565 z M 406.537,459.21565 L 406.537,441.14646 L 409.43326,441.14646 L 409.43326,459.21565 L 406.537,459.21565 z M 433.94337,459.21565 L 433.94337,441.14646 L 437.01254,441.14646 L 437.01254,449.3165 L 443.75606,449.3165 L 443.75606,451.6508 L 437.01254,451.6508 L 437.01254,456.88135 L 444.14511,456.88135 L 444.14511,459.21565 L 433.94337,459.21565 z M 468.65522,459.21565 L 468.65522,456.31938 L 471.55148,456.31938 L 471.55148,459.21565 L 468.65522,459.21565 z M 475.31229,459.21565 L 475.31229,446.42024 C 475.31231,442.70267 477.22642,440.84386 480.49962,440.84386 C 484.55783,440.84388 485.7734,443.88882 485.7734,447.37125 C 485.7734,451.34991 484.4783,453.89863 481.49385,453.89863 C 479.58321,453.89862 478.64601,452.75397 478.25178,452.1263 L 478.20855,452.1263 L 478.20855,459.21565 L 475.31229,459.21565 z M 159.0151,458.95628 L 159.0151,456.06002 L 162.21395,456.06002 L 162.21395,458.95628 L 159.0151,458.95628 z M 164.41857,458.95628 L 164.41857,456.06002 L 167.61742,456.06002 L 167.61742,458.95628 L 164.41857,458.95628 z M 148.64046,457.01103 L 150.23987,457.01103 C 152.25429,457.01105 153.43873,456.3142 153.43873,453.98509 C 153.43873,451.91537 152.071,451.00238 150.23987,451.00238 L 148.64046,451.00238 L 148.64046,457.01103 z M 113.40986,456.14647 L 128.66924,438.46634 L 113.40986,420.05133 L 97.847885,438.46634 L 113.40986,456.14647 z M 163.42433,453.89863 C 160.25662,453.89862 158.66928,452.3044 158.66928,449.92169 L 161.47908,449.92169 C 161.47908,450.75857 161.82663,451.86694 163.42433,451.86694 C 164.86296,451.86694 165.15344,450.80699 165.15344,449.57587 L 165.15344,448.32226 C 163.42608,448.27039 158.19378,448.2652 158.19378,444.12917 C 158.1938,442.11301 159.77418,440.84386 161.86813,440.84386 C 163.85834,440.84388 164.7177,441.76202 165.11022,442.57298 L 165.15344,442.57298 L 165.15344,441.14646 L 167.92002,441.14646 L 167.92002,450.00814 C 167.92002,452.54822 166.51252,453.89863 163.42433,453.89863 z M 189.62033,453.89863 C 186.4526,453.89862 184.86528,452.3044 184.86528,449.92169 L 187.71831,449.92169 C 187.71829,450.75857 188.02263,451.86694 189.62033,451.86694 C 191.05894,451.86694 191.39266,450.80699 191.39266,449.57587 L 191.39266,448.32226 C 189.66529,448.27039 184.38978,448.2652 184.38978,444.12917 C 184.38978,442.11301 185.96845,440.84386 188.06413,440.84386 C 190.05259,440.84388 190.9137,441.76202 191.3062,442.57298 L 191.39266,442.57298 L 191.39266,441.14646 L 194.15924,441.14646 L 194.15924,450.00814 C 194.15923,452.54822 192.70852,453.89863 189.62033,453.89863 z M 201.37827,453.89863 C 198.41976,453.89864 197.14195,450.97298 197.14195,447.67385 C 197.14195,444.34879 198.05319,441.14646 201.37827,441.14646 C 203.34253,441.14647 204.30565,442.56779 204.62034,443.09171 L 204.66357,443.09171 L 204.66357,441.14646 C 204.66357,439.52285 204.34369,437.51533 201.46472,437.51533 C 199.6578,437.51535 198.32466,438.20179 197.61745,438.59602 L 197.61745,435.743 C 198.16731,435.61158 199.59729,435.26749 201.50795,435.26749 C 205.2774,435.26748 207.43014,436.64213 207.43014,440.28191 L 207.43014,453.59604 L 204.66357,453.59604 L 204.66357,452.1263 L 204.62034,452.1263 C 204.20189,452.75399 203.47394,453.89863 201.37827,453.89863 z M 215.98924,453.89863 C 212.40306,453.89862 210.49931,451.4554 210.49931,447.37125 C 210.49931,443.28708 212.40306,440.84386 215.98924,440.84386 C 219.5754,440.84388 221.47915,443.2871 221.47915,447.37125 C 221.47914,451.45539 219.5754,453.89863 215.98924,453.89863 z M 228.093,453.89863 C 225.13448,453.89864 223.85668,450.97298 223.85668,447.67385 C 223.85668,444.34879 224.76791,441.14646 228.093,441.14646 C 230.05726,441.14647 231.0221,442.56779 231.33507,443.09171 L 231.3783,443.09171 L 231.3783,441.14646 C 231.37831,439.52285 231.01692,437.51533 228.13622,437.51533 C 226.32932,437.51535 224.99789,438.20179 224.28895,438.59602 L 224.28895,435.743 C 224.84052,435.61158 226.31201,435.26749 228.22268,435.26749 C 231.99213,435.26748 234.14487,436.64213 234.14487,440.28191 L 234.14487,453.59604 L 231.3783,453.59604 L 231.3783,452.1263 L 231.33507,452.1263 C 230.91836,452.75399 230.18867,453.89863 228.093,453.89863 z M 248.58293,453.89863 C 245.88552,453.89864 244.13047,452.55512 244.13047,450.22428 C 244.13047,446.92514 249.49071,445.68018 249.49071,444.21562 C 249.49071,443.22138 248.03826,443.09171 247.32933,443.09171 C 246.15353,443.09169 245.01232,443.50323 244.1737,443.8698 L 244.1737,441.3626 C 244.74949,441.17932 245.75584,440.84386 247.45901,440.84386 C 250.20829,440.84385 252.17083,442.03868 252.17083,444.60468 C 252.17083,448.16492 246.72413,449.00698 246.72413,450.65656 C 246.72413,451.38971 247.7789,451.78048 248.66938,451.78048 C 249.95237,451.78047 251.12126,451.1165 251.43596,450.95915 L 251.43596,453.42313 C 250.8325,453.58048 249.81233,453.89863 248.58293,453.89863 z M 259.82214,453.89863 C 255.7639,453.89862 254.11607,451.17874 254.11607,447.93321 C 254.11607,442.88074 257.02963,440.84386 260.77314,440.84386 C 262.08381,440.84386 263.34779,441.06519 264.4475,441.40582 L 264.4475,443.22139 C 263.84578,443.01215 263.16623,442.87557 262.32935,442.87557 C 258.55988,442.87557 257.22848,445.91361 257.22848,448.45194 C 257.22846,450.33669 258.0083,451.86694 259.606,451.86694 C 261.17777,451.86692 261.46478,450.51996 261.46478,449.3165 L 264.57719,449.3165 C 264.5772,451.61967 263.56565,453.89863 259.82214,453.89863 z M 285.24003,453.89863 C 281.47059,453.89863 279.87979,451.50209 279.87979,448.01967 C 279.87978,443.43924 282.16049,440.84386 286.19105,440.84386 C 287.52591,440.84385 288.60315,441.02369 289.64926,441.3626 L 289.64926,443.35107 C 289.12707,443.16777 288.18816,442.87557 287.27173,442.87557 C 283.76338,442.87558 282.60314,446.42197 282.60314,448.14935 L 289.99508,448.14935 L 289.99508,448.84099 C 289.99508,451.87731 288.40776,453.89863 285.24003,453.89863 z M 322.54555,453.89863 C 318.95936,453.89862 317.05563,451.4554 317.05563,447.37125 C 317.05563,443.28708 318.95938,440.84386 322.54555,440.84386 C 326.13171,440.84388 328.03547,443.2871 328.03547,447.37125 C 328.03547,451.45539 326.13172,453.89863 322.54555,453.89863 z M 336.03259,453.89863 C 331.9761,453.89862 330.32654,451.17874 330.32654,447.93321 C 330.32653,442.88074 333.28331,440.84386 337.02684,440.84386 C 338.33751,440.84386 339.55825,441.06519 340.65796,441.40582 L 340.65796,443.22139 C 340.05623,443.01215 339.42165,442.87557 338.58303,442.87557 C 334.81186,442.87557 333.43893,445.91361 333.43893,448.45194 C 333.43893,450.33669 334.21876,451.86694 335.81646,451.86694 C 337.38649,451.86692 337.71848,450.51996 337.71848,449.3165 L 340.78764,449.3165 C 340.78764,451.61967 339.77612,453.89863 336.03259,453.89863 z M 360.49948,453.89863 C 357.80206,453.89864 356.0038,452.55512 356.0038,450.22428 C 356.00381,446.92514 361.36404,445.68018 361.36404,444.21562 C 361.36404,443.22138 359.95654,443.09171 359.24588,443.09171 C 358.07007,443.09169 356.92888,443.50323 356.09026,443.8698 L 356.09026,441.3626 C 356.66605,441.17932 357.67239,440.84386 359.37556,440.84386 C 362.12137,440.84385 364.08738,442.03868 364.08738,444.60468 C 364.08737,448.16492 358.59747,449.00698 358.59747,450.65656 C 358.59748,451.38971 359.65395,451.78048 360.54271,451.78048 C 361.824,451.78047 362.99631,451.1165 363.30929,450.95915 L 363.30929,453.42313 C 362.70757,453.58048 361.73061,453.89863 360.49948,453.89863 z M 371.73869,453.89863 C 367.6822,453.89862 366.03263,451.17874 366.03263,447.93321 C 366.03263,442.88074 368.94445,440.84386 372.68969,440.84386 C 373.99862,440.84386 375.22284,441.06519 376.32083,441.40582 L 376.32083,443.22139 C 375.71911,443.01215 375.08278,442.87557 374.2459,442.87557 C 370.47471,442.87557 369.1018,445.91361 369.1018,448.45194 C 369.10179,450.33669 369.88162,451.86694 371.47932,451.86694 C 373.04939,451.86692 373.38135,450.51996 373.38135,449.3165 L 376.45051,449.3165 C 376.45052,451.61967 375.48394,453.89863 371.73869,453.89863 z M 417.99234,453.89863 C 414.22288,453.89863 412.67534,451.50209 412.67534,448.01967 C 412.67535,443.43924 414.91107,440.84386 418.94336,440.84386 C 420.27822,440.84385 421.39869,441.02369 422.4448,441.3626 L 422.4448,443.35107 C 421.92089,443.16777 420.9837,442.87557 420.06727,442.87557 C 416.55893,442.87558 415.35545,446.42197 415.35545,448.14935 L 422.74739,448.14935 L 422.74739,448.84099 C 422.74739,451.87731 421.16007,453.89863 417.99234,453.89863 z M 453.61198,453.89863 C 451.09787,453.89864 450.27307,452.50843 449.5918,451.30497 L 449.54857,451.30497 L 449.54857,453.59604 L 446.60909,453.59604 L 446.60909,441.14646 L 449.54857,441.14646 L 449.54857,446.59315 C 449.54857,449.60352 450.67942,450.87269 453.61198,450.87269 L 453.61198,453.89863 z M 460.74456,453.89863 C 456.97512,453.89863 455.38432,451.50209 455.38432,448.01967 C 455.38432,443.43924 457.62179,440.84386 461.65233,440.84386 C 462.98547,440.84385 464.10767,441.02369 465.15378,441.3626 L 465.15378,443.35107 C 464.62986,443.16777 463.68923,442.87557 462.77626,442.87557 C 459.26791,442.87558 458.06444,446.42197 458.06444,448.14935 L 465.45638,448.14935 L 465.45638,448.84099 C 465.45638,451.87731 463.91228,453.89863 460.74456,453.89863 z M 509.67833,453.89863 C 507.16595,453.89864 506.33942,452.50843 505.65815,451.30497 L 505.61492,451.30497 L 505.61492,453.59604 L 502.71866,453.59604 L 502.71866,441.14646 L 505.61492,441.14646 L 505.61492,446.59315 C 505.6149,449.60352 506.74576,450.87269 509.67833,450.87269 L 509.67833,453.89863 z M 515.73021,453.89863 C 512.76998,453.89864 511.49389,450.97298 511.49389,447.67385 C 511.49389,444.34879 512.40513,441.14646 515.73021,441.14646 C 517.69276,441.14647 518.65932,442.56779 518.97229,443.09171 L 519.01551,443.09171 L 519.01551,441.14646 C 519.0155,439.52285 518.6524,437.51533 515.77344,437.51533 C 513.96826,437.51535 512.6351,438.20179 511.92617,438.59602 L 511.92617,435.743 C 512.47604,435.61158 513.95096,435.26749 515.85989,435.26749 C 519.63107,435.26748 521.78209,436.64213 521.78209,440.28191 L 521.78209,453.59604 L 519.01551,453.59604 L 519.01551,452.1263 L 518.97229,452.1263 C 518.55384,452.75399 517.82415,453.89863 515.73021,453.89863 z M 238.0786,453.59604 L 238.0786,441.14646 L 240.97485,441.14646 L 240.97485,453.59604 L 238.0786,453.59604 z M 392.53122,453.59604 L 392.53122,444.9505 C 392.53122,442.09573 394.07185,440.84386 395.90298,440.84386 C 398.1802,440.84386 399.1831,442.53667 399.57734,443.48075 L 399.6638,443.48075 L 399.6638,441.14646 L 402.56005,441.14646 L 402.56005,453.59604 L 399.6638,453.59604 L 399.6638,448.19258 C 399.6638,446.20236 398.65918,443.56721 396.7243,443.56721 C 395.70241,443.56721 395.42748,443.9234 395.42748,446.46346 L 395.42748,453.59604 L 392.53122,453.59604 z M 468.65522,453.59604 L 468.65522,441.14646 L 471.55148,441.14646 L 471.55148,453.59604 L 468.65522,453.59604 z M 488.88579,453.59604 L 488.88579,444.9505 C 488.88578,442.09573 490.4247,440.84386 492.25756,440.84386 C 494.53651,440.84386 495.5809,442.53667 495.97514,443.48075 L 496.01836,443.48075 L 496.01836,441.14646 L 498.91463,441.14646 L 498.91463,453.59604 L 496.01836,453.59604 L 496.01836,448.19258 C 496.01836,446.20236 495.01721,443.56721 493.07888,443.56721 C 492.05697,443.56721 491.78206,443.9234 491.78206,446.46346 L 491.78206,453.59604 L 488.88579,453.59604 z M 285.02389,452.03985 C 286.83081,452.03985 287.22851,450.66347 287.22851,449.87846 L 282.68959,449.87846 C 282.7674,450.61158 283.32245,452.03985 285.02389,452.03985 z M 417.81943,452.03985 C 419.62807,452.03985 419.98082,450.66347 419.98082,449.87846 L 415.44191,449.87846 C 415.52145,450.61158 416.11972,452.03985 417.81943,452.03985 z M 460.52842,452.03985 C 462.33707,452.03985 462.73303,450.66347 462.73303,449.87846 L 458.15089,449.87846 C 458.23043,450.61158 458.8287,452.03985 460.52842,452.03985 z M 480.49962,452.03985 C 482.43621,452.03983 482.70423,449.62255 482.70423,447.37125 C 482.70426,445.32916 482.35668,442.87557 480.49962,442.87557 C 478.66675,442.87558 478.20855,444.25539 478.20855,447.37125 C 478.20855,449.46519 478.74284,452.03985 480.49962,452.03985 z M 215.98924,451.86694 C 218.08318,451.86694 218.40999,449.70209 218.40999,447.37125 C 218.40998,445.0404 218.08318,442.87557 215.98924,442.87557 C 213.89356,442.87558 213.56848,445.04041 213.56848,447.37125 C 213.5685,449.70208 213.89356,451.86694 215.98924,451.86694 z M 322.54555,451.86694 C 324.63776,451.86694 324.9663,449.70209 324.9663,447.37125 C 324.9663,445.0404 324.63778,442.87557 322.54555,442.87557 C 320.44986,442.87558 320.1248,445.04041 320.1248,447.37125 C 320.1248,449.70208 320.44987,451.86694 322.54555,451.86694 z M 176.17651,451.6508 C 177.85202,451.6508 178.33789,449.67615 178.33789,447.37125 C 178.33789,445.38103 177.79841,443.09171 176.17651,443.09171 C 174.34365,443.09172 174.01512,445.40698 174.01512,447.37125 C 174.01512,449.43925 174.26584,451.6508 176.17651,451.6508 z M 202.3725,451.6508 C 204.17769,451.65081 204.66357,449.32342 204.66357,447.67385 C 204.66357,445.89287 204.04628,443.3943 202.3725,443.3943 C 200.46184,443.39431 200.21112,445.89286 200.21112,447.67385 C 200.21112,449.32343 200.48777,451.6508 202.3725,451.6508 z M 229.08723,451.6508 C 230.89242,451.65081 231.3783,449.32342 231.3783,447.67385 C 231.37831,445.89287 230.76101,443.3943 229.08723,443.3943 C 227.17483,443.39431 226.92584,445.89286 226.92584,447.67385 C 226.92586,449.32343 227.2025,451.6508 229.08723,451.6508 z M 516.72444,451.6508 C 518.53309,451.65081 519.01551,449.32342 519.01551,447.67385 C 519.0155,445.89287 518.39995,443.3943 516.72444,443.3943 C 514.81378,443.39431 514.56306,445.89286 514.56306,447.67385 C 514.56304,449.32343 514.83798,451.6508 516.72444,451.6508 z M 165.15344,446.63637 C 165.15346,444.93322 164.4445,442.87557 162.55978,442.87557 C 161.56554,442.87557 161.04681,443.42024 161.04681,444.38854 C 161.04681,446.06406 163.26871,446.63637 165.15344,446.63637 z M 191.39266,446.63637 C 191.39266,444.93322 190.68546,442.87557 188.799,442.87557 C 187.80476,442.87557 187.24281,443.42024 187.24281,444.38854 C 187.24282,446.06406 189.50794,446.63637 191.39266,446.63637 z M 236.26303,428.61042 C 234.3299,428.61044 232.84805,427.74068 232.84805,425.9303 C 232.84803,424.33263 234.16562,423.75509 235.13912,423.20696 L 236.04689,422.68823 C 236.91317,422.20236 237.81923,421.75623 237.81923,420.57007 C 237.81923,419.41331 236.82153,418.79773 235.52816,418.79773 C 234.25035,418.79777 233.20597,419.22482 232.97773,419.31646 L 232.97773,418.10609 C 233.25093,418.04386 234.27283,417.8035 235.39848,417.8035 C 237.36101,417.80353 239.11606,418.55047 239.11606,420.74298 C 239.11606,422.40295 237.93508,423.04442 236.86822,423.63924 L 235.91721,424.15797 C 235.09588,424.61273 234.14487,425.13319 234.14487,426.05999 C 234.14487,427.03347 234.93161,427.65942 236.13335,427.65942 C 237.25899,427.65942 238.16678,427.29111 238.42442,427.1839 L 238.42442,428.35106 C 238.05958,428.42539 237.26591,428.61042 236.26303,428.61042 z M 201.11889,428.52397 L 200.47048,426.44904 L 201.4215,426.44904 L 202.45896,428.52397 L 201.11889,428.52397 z M 459.44772,428.52397 C 457.63907,428.52397 457.07019,427.37756 457.07019,426.18967 L 457.07019,425.19544 L 455.85982,425.19544 L 455.85982,424.33088 L 457.07019,424.33088 L 457.07019,417.97641 L 458.10767,417.97641 L 458.10767,424.33088 L 460.22582,424.33088 L 460.22582,425.19544 L 458.10767,425.19544 L 458.10767,426.01676 C 458.10768,426.99026 458.46386,427.65942 459.66386,427.65942 C 460.1048,427.65943 460.4264,427.53319 460.70133,427.44328 L 460.70133,428.35106 C 460.36415,428.42715 459.96645,428.52397 459.44772,428.52397 z M 145.18223,428.48074 L 145.18223,421.34817 C 145.18223,419.97869 145.56436,417.8035 148.42432,417.8035 C 151.63527,417.80353 151.79608,419.97871 151.79608,421.34817 L 151.79608,428.48074 L 150.62893,428.48074 L 150.62893,421.5643 C 150.62893,420.37986 150.64277,418.79773 148.46755,418.79773 C 146.47388,418.79777 146.39261,420.37987 146.39261,421.5643 L 146.39261,428.48074 L 145.18223,428.48074 z M 161.95459,428.48074 L 161.95459,427.09745 L 163.29465,427.09745 L 163.29465,428.48074 L 161.95459,428.48074 z M 189.66356,428.48074 L 189.66356,427.09745 L 191.04684,427.09745 L 191.04684,428.48074 L 189.66356,428.48074 z M 213.39557,428.48074 L 213.39557,424.02828 L 213.35235,424.02828 C 213.16905,424.5453 212.71257,425.36835 211.45033,425.36835 C 209.67107,425.36835 208.98635,423.46805 208.98635,421.52108 C 208.98635,419.22309 209.70046,417.8035 211.45033,417.8035 C 212.60538,417.8035 213.20018,418.66978 213.35235,419.18678 L 213.39557,419.18678 L 213.39557,417.97641 L 214.43304,417.97641 L 214.43304,428.48074 L 213.39557,428.48074 z M 247.37256,428.48074 L 247.37256,427.09745 L 248.75584,427.09745 L 248.75584,428.48074 L 247.37256,428.48074 z M 292.76165,428.48074 L 292.76165,424.02828 L 292.71842,424.02828 C 292.53687,424.5453 292.07866,425.36835 290.81641,425.36835 C 289.03716,425.36835 288.35243,423.46805 288.35243,421.52108 C 288.35243,419.22309 289.06655,417.8035 290.81641,417.8035 C 291.97147,417.8035 292.56626,418.66978 292.71842,419.18678 L 292.76165,419.18678 L 292.76165,417.97641 L 293.79912,417.97641 L 293.79912,428.48074 L 292.76165,428.48074 z M 307.24294,428.48074 L 307.24294,417.97641 L 308.28041,417.97641 L 308.28041,428.48074 L 307.24294,428.48074 z M 310.96052,428.48074 L 310.44179,425.19544 L 311.82507,425.19544 L 311.95476,428.48074 L 310.96052,428.48074 z M 314.15937,428.48074 L 314.15937,417.97641 L 319.38992,417.97641 L 319.38992,418.97064 L 315.32652,418.97064 L 315.32652,422.99082 L 319.0441,422.99082 L 319.0441,423.94183 L 315.32652,423.94183 L 315.32652,427.48651 L 319.26024,427.48651 L 319.26024,428.48074 L 314.15937,428.48074 z M 325.09599,428.48074 L 325.09599,424.02828 L 325.05276,424.02828 C 324.8712,424.5453 324.41471,425.36835 323.15074,425.36835 C 321.37148,425.36835 320.68676,423.46805 320.68676,421.52108 C 320.68676,419.22309 321.40261,417.8035 323.15074,417.8035 C 324.30752,417.8035 324.9006,418.66978 325.05276,419.18678 L 325.09599,419.18678 L 325.09599,417.97641 L 326.13345,417.97641 L 326.13345,428.48074 L 325.09599,428.48074 z M 355.09602,428.48074 L 355.09602,427.09745 L 356.43608,427.09745 L 356.43608,428.48074 L 355.09602,428.48074 z M 385.22574,428.48074 L 385.22574,421.34817 C 385.22575,419.97869 385.56464,417.8035 388.42459,417.8035 C 391.63381,417.80353 391.83957,419.97871 391.83957,421.34817 L 391.83957,428.48074 L 390.6292,428.48074 L 390.6292,421.5643 C 390.62919,420.37986 390.64303,418.79773 388.46782,418.79773 C 386.47415,418.79777 386.39288,420.37987 386.39288,421.5643 L 386.39288,428.48074 L 385.22574,428.48074 z M 401.95487,428.48074 L 401.95487,427.09745 L 403.33815,427.09745 L 403.33815,428.48074 L 401.95487,428.48074 z M 429.70705,428.48074 L 429.70705,427.09745 L 431.09035,427.09745 L 431.09035,428.48074 L 429.70705,428.48074 z M 465.62929,428.48074 L 465.62929,417.97641 L 470.85984,417.97641 L 470.85984,418.97064 L 466.83966,418.97064 L 466.83966,422.99082 L 470.55725,422.99082 L 470.55725,423.94183 L 466.83966,423.94183 L 466.83966,427.48651 L 470.73016,427.48651 L 470.73016,428.48074 L 465.62929,428.48074 z M 476.56589,428.48074 L 476.56589,424.02828 L 476.52267,424.02828 C 476.33938,424.5453 475.8829,425.36835 474.62065,425.36835 C 472.83967,425.36835 472.15667,423.46805 472.15667,421.52108 C 472.15667,419.22309 472.91229,417.8035 474.66388,417.8035 C 475.81891,417.8035 476.36878,418.66978 476.52267,419.18678 L 476.56589,419.18678 L 476.56589,417.97641 L 477.60336,417.97641 L 477.60336,428.48074 L 476.56589,428.48074 z M 506.56593,428.48074 L 506.56593,427.09745 L 507.90599,427.09745 L 507.90599,428.48074 L 506.56593,428.48074 z M 195.02379,427.52973 L 193.98633,426.88131 L 193.98633,425.19544 L 192.81918,425.19544 L 192.81918,424.33088 L 193.98633,424.33088 L 193.98633,419.66228 C 193.98633,418.37066 194.55866,417.8035 196.01803,417.8035 C 196.32235,417.80353 196.62149,417.845 196.92581,417.88995 L 196.92581,418.79773 C 196.69757,418.72162 196.56962,418.66805 196.23416,418.66805 C 195.16904,418.66803 195.02379,419.40638 195.02379,419.87842 L 195.02379,424.33088 L 196.96904,424.33088 L 196.96904,425.19544 L 195.02379,425.19544 L 195.02379,427.52973 z M 351.55135,427.52973 L 350.51388,426.88131 L 350.51388,425.19544 L 349.30351,425.19544 L 349.30351,424.33088 L 350.51388,424.33088 L 350.51388,419.66228 C 350.51386,418.37066 351.04298,417.8035 352.50236,417.8035 C 352.80669,417.80353 353.10581,417.845 353.41013,417.88995 L 353.41013,418.79773 C 353.18364,418.72162 353.05567,418.66805 352.71849,418.66805 C 351.65338,418.66803 351.55135,419.40638 351.55135,419.87842 L 351.55135,424.33088 L 353.49659,424.33088 L 353.49659,425.19544 L 351.55135,425.19544 L 351.55135,427.52973 z M 435.06729,427.52973 L 434.02983,426.88131 L 434.02983,425.19544 L 432.86267,425.19544 L 432.86267,424.33088 L 434.02983,424.33088 L 434.02983,419.66228 C 434.02981,418.37066 434.55893,417.8035 436.0183,417.8035 C 436.32264,417.80353 436.66499,417.845 436.96931,417.88995 L 436.96931,418.79773 C 436.73934,418.72162 436.56816,418.66805 436.23444,418.66805 C 435.16932,418.66803 435.06729,419.40638 435.06729,419.87842 L 435.06729,424.33088 L 437.01254,424.33088 L 437.01254,425.19544 L 435.06729,425.19544 L 435.06729,427.52973 z M 503.02126,427.52973 L 501.98379,426.88131 L 501.98379,425.19544 L 500.81664,425.19544 L 500.81664,424.33088 L 501.98379,424.33088 L 501.98379,419.66228 C 501.98381,418.37066 502.55613,417.8035 504.0155,417.8035 C 504.31982,417.80353 504.61896,417.845 504.92328,417.88995 L 504.92328,418.79773 C 504.69331,418.72162 504.52213,418.66805 504.18841,418.66805 C 503.12327,418.66803 503.02126,419.40638 503.02126,419.87842 L 503.02126,424.33088 L 504.9665,424.33088 L 504.9665,425.19544 L 503.02126,425.19544 L 503.02126,427.52973 z M 157.63181,425.36835 C 156.01856,425.36833 155.5811,424.14586 155.38398,423.55278 L 155.34075,423.55278 L 155.34075,425.19544 L 154.30328,425.19544 L 154.30328,417.97641 L 155.34075,417.97641 L 155.34075,420.95912 C 155.34074,422.26636 156.04623,424.33088 157.41568,424.33088 C 158.4808,424.33086 158.45315,423.245 158.45315,421.99658 L 158.45315,417.97641 L 159.49061,417.97641 L 159.49061,423.12051 C 159.49062,424.32224 158.86467,425.36835 157.63181,425.36835 z M 174.66354,425.36835 C 172.73213,425.36833 171.85373,423.98506 171.85373,421.82367 C 171.85373,419.147 173.11944,417.8035 175.35518,417.8035 C 176.02433,417.8035 176.60014,417.88304 177.04106,418.01964 L 177.04106,418.84096 C 176.70561,418.76312 176.42031,418.66805 175.61455,418.66805 C 173.53097,418.66801 173.02089,420.72915 173.02089,421.82367 L 173.02089,422.25594 L 177.17075,422.25594 L 177.17075,422.60177 C 177.17075,424.18387 176.36671,425.36835 174.66354,425.36835 z M 182.66067,425.36835 C 181.00243,425.36833 180.45259,424.29975 180.23991,423.81215 L 180.19669,423.81215 L 180.19669,425.19544 L 179.15922,425.19544 L 179.15922,417.97641 L 180.19669,417.97641 L 180.19669,420.95912 C 180.19669,422.90612 181.01801,424.24442 182.66067,424.24442 L 182.66067,425.36835 z M 185.90274,425.36835 C 184.28947,425.36835 183.43876,424.6352 183.43876,423.46633 C 183.43878,422.28017 184.41226,421.85998 185.08142,421.47785 L 185.72983,421.13203 C 186.15519,420.88995 187.02667,420.58044 187.02667,419.83519 C 187.02665,418.99832 186.25721,418.66805 185.25433,418.66805 C 184.43301,418.66802 183.57709,418.99831 183.39553,419.0571 L 183.39553,418.10609 C 183.68429,418.01442 184.44165,417.8035 185.38401,417.8035 C 187.07335,417.80351 188.06413,418.52108 188.06413,419.96487 C 188.06411,421.21328 187.13906,421.64384 186.37824,422.03981 L 185.77306,422.42885 C 185.19554,422.7332 184.43301,422.9597 184.43301,423.55278 C 184.43299,424.07151 185.0209,424.50379 185.90274,424.50379 C 186.63242,424.5038 187.34482,424.24788 187.58863,424.15797 L 187.58863,425.10898 C 187.25318,425.18505 186.67911,425.36835 185.90274,425.36835 z M 200.98921,425.36835 C 199.05781,425.36833 198.17941,423.98506 198.17941,421.82367 C 198.17941,419.147 199.44512,417.8035 201.68086,417.8035 C 202.35002,417.8035 202.92582,417.88304 203.36674,418.01964 L 203.36674,418.84096 C 203.03129,418.76312 202.74599,418.66805 201.94023,418.66805 C 199.85665,418.66801 199.34657,420.72915 199.34657,421.82367 L 199.34657,422.25594 L 203.53965,422.25594 L 203.53965,422.60177 C 203.53965,424.18387 202.69239,425.36835 200.98921,425.36835 z M 219.27454,425.36835 C 217.34312,425.36833 216.42151,423.98506 216.42151,421.82367 C 216.42151,419.147 217.73044,417.8035 219.96618,417.8035 C 220.63534,417.8035 221.16792,417.88304 221.60884,418.01964 L 221.60884,418.84096 C 221.27339,418.76312 220.98809,418.66805 220.18232,418.66805 C 218.09874,418.66801 217.63188,420.72915 217.63188,421.82367 L 217.63188,422.25594 L 221.78175,422.25594 L 221.78175,422.60177 C 221.78175,424.18387 220.97944,425.36835 219.27454,425.36835 z M 225.62902,425.36835 C 224.01748,425.36835 223.12181,424.6352 223.12181,423.46633 C 223.12182,422.28017 224.09529,421.85998 224.76446,421.47785 L 225.41287,421.13203 C 225.83824,420.88995 226.75293,420.58044 226.75293,419.83519 C 226.75293,418.99832 225.98348,418.66805 224.98059,418.66805 C 224.15927,418.66802 223.30337,418.99831 223.12181,419.0571 L 223.12181,418.10609 C 223.41057,418.01442 224.12469,417.8035 225.06705,417.8035 C 226.75641,417.80351 227.79039,418.52108 227.79039,419.96487 C 227.79039,421.21328 226.86532,421.64384 226.10452,422.03981 L 225.45611,422.42885 C 224.87858,422.7332 224.15927,422.9597 224.15927,423.55278 C 224.15926,424.07151 224.74717,424.50379 225.62902,424.50379 C 226.3587,424.5038 227.07109,424.24788 227.31489,424.15797 L 227.31489,425.10898 C 226.97945,425.18505 226.40538,425.36835 225.62902,425.36835 z M 243.30915,425.36835 C 241.22557,425.36833 240.36967,423.91416 240.36967,421.73721 C 240.36965,419.12109 241.77543,417.8035 244.08725,417.8035 C 244.75641,417.80354 245.14374,417.83981 245.60022,417.97641 L 245.60022,418.79773 C 245.20427,418.66115 244.6907,418.66805 244.43307,418.66805 C 242.02959,418.66809 241.58004,420.61157 241.58004,421.99658 C 241.58002,423.09111 241.95698,424.50379 243.26592,424.50379 C 244.23941,424.50377 244.56275,423.76546 244.56275,422.99082 L 245.81636,422.99082 C 245.81636,424.14758 245.24229,425.36835 243.30915,425.36835 z M 253.55412,425.36835 C 251.6227,425.36833 250.74432,423.98506 250.74432,421.82367 C 250.74432,419.147 252.01002,417.8035 254.24576,417.8035 C 254.91494,417.8035 255.49072,417.88304 255.93164,418.01964 L 255.93164,418.84096 C 255.59619,418.76312 255.26767,418.66805 254.4619,418.66805 C 252.37833,418.66801 251.91146,420.72915 251.91146,421.82367 L 251.91146,422.25594 L 256.06132,422.25594 L 256.06132,422.60177 C 256.06132,424.18387 255.25902,425.36835 253.55412,425.36835 z M 261.37833,425.36835 C 259.76681,425.36833 259.32762,424.14586 259.13049,423.55278 L 259.08726,423.55278 L 259.08726,425.19544 L 258.0498,425.19544 L 258.0498,417.97641 L 259.08726,417.97641 L 259.08726,420.95912 C 259.08726,422.26636 259.75125,424.33088 261.11896,424.33088 C 262.1841,424.33086 262.19966,423.245 262.19966,421.99658 L 262.19966,417.97641 L 263.23712,417.97641 L 263.23712,423.12051 C 263.23712,424.32224 262.61119,425.36835 261.37833,425.36835 z M 268.16508,425.36835 C 266.07979,425.36833 265.2256,423.91416 265.2256,421.73721 C 265.2256,419.12109 266.63137,417.8035 268.94318,417.8035 C 269.61234,417.80354 269.99967,417.83981 270.45615,417.97641 L 270.45615,418.79773 C 270.06019,418.66115 269.54664,418.66805 269.28901,418.66805 C 266.88555,418.66809 266.39274,420.61157 266.39274,421.99658 C 266.39274,423.09111 266.81293,424.50379 268.12186,424.50379 C 269.09534,424.50377 269.41869,423.76546 269.41869,422.99082 L 270.67229,422.99082 C 270.67229,424.14758 270.0965,425.36835 268.16508,425.36835 z M 274.64924,425.36835 C 272.7161,425.36833 271.83944,423.98506 271.83944,421.82367 C 271.83943,419.147 273.10515,417.8035 275.34088,417.8035 C 276.01006,417.8035 276.58585,417.88304 277.02677,418.01964 L 277.02677,418.84096 C 276.69131,418.76312 276.40602,418.66805 275.60025,418.66805 C 273.51667,418.66801 273.00659,420.72915 273.00659,421.82367 L 273.00659,422.25594 L 277.15645,422.25594 L 277.15645,422.60177 C 277.15645,424.18387 276.35415,425.36835 274.64924,425.36835 z M 281.00371,425.36835 C 279.39217,425.36835 278.53973,424.6352 278.53973,423.46633 C 278.53975,422.28017 279.51323,421.85998 280.18239,421.47785 L 280.8308,421.13203 C 281.25617,420.88995 282.12764,420.58044 282.12764,419.83519 C 282.12762,418.99832 281.35819,418.66805 280.3553,418.66805 C 279.53397,418.66802 278.67807,418.99831 278.4965,419.0571 L 278.4965,418.10609 C 278.78527,418.01442 279.54262,417.8035 280.48498,417.8035 C 282.17432,417.80351 283.1651,418.52108 283.1651,419.96487 C 283.1651,421.21328 282.24003,421.64384 281.47922,422.03981 L 280.87403,422.42885 C 280.29651,422.7332 279.5772,422.9597 279.5772,423.55278 C 279.57719,424.07151 280.12187,424.50379 281.00371,424.50379 C 281.7334,424.5038 282.44579,424.24788 282.68959,424.15797 L 282.68959,425.10898 C 282.35415,425.18505 281.78009,425.36835 281.00371,425.36835 z M 298.64063,425.36835 C 296.70747,425.36833 295.7876,423.98506 295.7876,421.82367 C 295.78758,419.147 297.09653,417.8035 299.33227,417.8035 C 300.00144,417.8035 300.534,417.88304 300.97492,418.01964 L 300.97492,418.84096 C 300.64121,418.76312 300.35589,418.66805 299.5484,418.66805 C 297.46483,418.66801 296.99797,420.72915 296.99797,421.82367 L 296.99797,422.25594 L 301.14783,422.25594 L 301.14783,422.60177 C 301.14783,424.18387 300.34379,425.36835 298.64063,425.36835 z M 338.75594,425.36835 C 336.67064,425.36833 335.77323,423.91416 335.77323,421.73721 C 335.77324,419.12109 337.2205,417.8035 339.53404,417.8035 C 340.20322,417.80354 340.5888,417.83981 341.04701,417.97641 L 341.04701,418.79773 C 340.65106,418.66115 340.09773,418.66805 339.83664,418.66805 C 337.43492,418.66809 336.98361,420.61157 336.98361,421.99658 C 336.98361,423.09111 337.40205,424.50379 338.71271,424.50379 C 339.68621,424.50377 340.00955,423.76546 340.00955,422.99082 L 341.21992,422.99082 C 341.2199,424.14758 340.68736,425.36835 338.75594,425.36835 z M 345.06719,425.36835 C 343.09082,425.36836 342.48909,424.24961 342.47353,423.33664 L 343.64067,423.33664 C 343.71676,423.90033 343.93809,424.50379 345.11042,424.50379 C 345.65683,424.5038 346.23952,424.31531 346.40725,423.50955 C 346.45047,423.26401 346.45048,422.47554 346.45048,422.12626 C 346.20838,422.07956 346.01647,422.08303 345.75883,422.08303 C 344.49486,422.08302 342.30062,421.52281 342.30062,419.83519 C 342.30062,418.54008 343.05969,417.8035 344.24587,417.8035 C 345.56863,417.80353 346.27064,418.57814 346.45048,418.92741 L 346.49371,418.92741 L 346.49371,417.97641 L 347.48794,417.97641 L 347.48794,423.03405 C 347.48793,423.94529 347.31849,425.36835 345.06719,425.36835 z M 361.32081,425.36835 C 359.19399,425.36836 358.38132,423.68073 358.38132,421.5643 C 358.38131,419.44962 359.19401,417.8035 361.32081,417.8035 C 363.46662,417.80351 364.30352,419.4496 364.30352,421.5643 C 364.30351,423.68075 363.46664,425.36835 361.32081,425.36835 z M 369.62053,425.36835 C 368.00901,425.36833 367.56808,424.14586 367.37269,423.55278 L 367.32946,423.55278 L 367.32946,425.19544 L 366.292,425.19544 L 366.292,417.97641 L 367.32946,417.97641 L 367.32946,420.95912 C 367.32947,422.26636 368.03493,424.33088 369.40439,424.33088 C 370.4695,424.33086 370.44185,423.245 370.44185,421.99658 L 370.44185,417.97641 L 371.47932,417.97641 L 371.47932,423.12051 C 371.47934,424.32224 370.85512,425.36835 369.62053,425.36835 z M 397.67532,425.36835 C 396.06379,425.36833 395.58137,424.14586 395.38425,423.55278 L 395.38425,425.19544 L 394.34678,425.19544 L 394.34678,417.97641 L 395.38425,417.97641 L 395.38425,420.95912 C 395.38425,422.26636 396.0465,424.33088 397.41596,424.33088 C 398.4811,424.33086 398.49664,423.245 398.49664,421.99658 L 398.49664,417.97641 L 399.5341,417.97641 L 399.5341,423.12051 C 399.5341,424.32224 398.9099,425.36835 397.67532,425.36835 z M 414.70704,425.36835 C 412.77737,425.36833 411.85401,423.98506 411.85401,421.82367 C 411.854,419.147 413.16121,417.8035 415.39868,417.8035 C 416.06438,417.8035 416.60042,417.88304 417.04134,418.01964 L 417.04134,418.84096 C 416.70761,418.76312 416.42231,418.66805 415.61482,418.66805 C 413.53296,418.66801 413.06438,420.72915 413.06438,421.82367 L 413.06438,422.25594 L 417.21425,422.25594 L 417.21425,422.60177 C 417.21423,424.18387 416.41366,425.36835 414.70704,425.36835 z M 422.66094,425.36835 C 421.0027,425.36833 420.45286,424.29975 420.24018,423.81215 L 420.24018,425.19544 L 419.20272,425.19544 L 419.20272,417.97641 L 420.24018,417.97641 L 420.24018,420.95912 C 420.24018,422.90612 421.01828,424.24442 422.66094,424.24442 L 422.66094,425.36835 z M 425.90301,425.36835 C 424.28976,425.36835 423.43903,424.6352 423.43903,423.46633 C 423.43905,422.28017 424.41253,421.85998 425.08169,421.47785 L 425.7301,421.13203 C 426.15375,420.88995 427.02694,420.58044 427.02694,419.83519 C 427.02694,418.99832 426.30244,418.66805 425.29783,418.66805 C 424.47823,418.66802 423.57909,418.99831 423.3958,419.0571 L 423.3958,418.10609 C 423.68284,418.01442 424.44019,417.8035 425.38428,417.8035 C 427.07364,417.80351 428.0644,418.52108 428.0644,419.96487 C 428.0644,421.21328 427.14106,421.64384 426.37852,422.03981 L 425.77333,422.42885 C 425.19409,422.7332 424.4765,422.9597 424.4765,423.55278 C 424.47649,424.07151 425.0644,424.50379 425.94624,424.50379 C 426.67592,424.5038 427.39005,424.24788 427.63212,424.15797 L 427.63212,425.10898 C 427.29839,425.18505 426.68112,425.36835 425.90301,425.36835 z M 451.70996,425.36835 C 449.58144,425.36836 448.72725,423.68073 448.72725,421.5643 C 448.72722,419.44962 449.58143,417.8035 451.70996,417.8035 C 453.8558,417.80351 454.69267,419.4496 454.69267,421.5643 C 454.69268,423.68075 453.85579,425.36835 451.70996,425.36835 z M 490.22585,425.36835 C 488.14229,425.36833 487.28637,423.91416 487.28637,421.73721 C 487.28636,419.12109 488.6904,417.8035 491.00395,417.8035 C 491.67141,417.80354 492.06217,417.83981 492.51692,417.97641 L 492.51692,418.79773 C 492.1244,418.66115 491.60915,418.66805 491.34977,418.66805 C 488.9463,418.66809 488.45352,420.61157 488.45352,421.99658 C 488.45352,423.09111 488.87542,424.50379 490.18263,424.50379 C 491.15613,424.50377 491.47946,423.76546 491.47946,422.99082 L 492.68983,422.99082 C 492.68983,424.14758 492.15727,425.36835 490.22585,425.36835 z M 496.53711,425.36835 C 494.55729,425.36836 493.95728,424.24961 493.94344,423.33664 L 495.11059,423.33664 C 495.18838,423.90033 495.40799,424.50379 496.58033,424.50379 C 497.12844,424.5038 497.75439,424.31531 497.92039,423.50955 C 497.96707,423.26401 497.96361,422.47554 497.96361,422.12626 C 497.72154,422.07956 497.48638,422.08303 497.22875,422.08303 C 495.96651,422.08302 493.77052,421.52281 493.77052,419.83519 C 493.77054,418.54008 494.52961,417.8035 495.71577,417.8035 C 497.03856,417.80353 497.78033,418.57814 497.96361,418.92741 L 497.96361,417.97641 L 499.00108,417.97641 L 499.00108,423.03405 C 499.00108,423.94529 498.78841,425.36835 496.53711,425.36835 z M 512.83395,425.36835 C 510.70195,425.36836 509.85124,423.68073 509.85124,421.5643 C 509.85125,419.44962 510.70195,417.8035 512.83395,417.8035 C 514.97631,417.80351 515.81667,419.4496 515.81667,421.5643 C 515.81667,423.68075 514.97631,425.36835 512.83395,425.36835 z M 521.13367,425.36835 C 519.51868,425.36833 519.04145,424.14586 518.8426,423.55278 L 518.8426,425.19544 L 517.80513,425.19544 L 517.80513,417.97641 L 518.8426,417.97641 L 518.8426,420.95912 C 518.84262,422.26636 519.50139,424.33088 520.87431,424.33088 C 521.93596,424.33086 521.955,423.245 521.955,421.99658 L 521.955,417.97641 L 522.99247,417.97641 L 522.99247,423.12051 C 522.99247,424.32224 522.36479,425.36835 521.13367,425.36835 z M 162.08427,425.19544 L 162.08427,417.97641 L 163.12174,417.97641 L 163.12174,425.19544 L 162.08427,425.19544 z M 164.67793,425.19544 L 167.40129,417.97641 L 168.43875,417.97641 L 170.90273,425.19544 L 169.7788,425.19544 L 167.92002,419.48937 L 165.75863,425.19544 L 164.67793,425.19544 z M 189.83647,425.19544 L 189.83647,417.97641 L 190.87393,417.97641 L 190.87393,425.19544 L 189.83647,425.19544 z M 247.54547,425.19544 L 247.54547,417.97641 L 248.58293,417.97641 L 248.58293,425.19544 L 247.54547,425.19544 z M 328.5542,425.19544 L 328.5542,420.05133 C 328.55419,418.84956 329.16457,417.8035 330.41299,417.8035 C 332.02451,417.80354 332.47928,419.02597 332.66084,419.61905 L 332.70406,419.61905 L 332.70406,417.97641 L 333.74152,417.97641 L 333.74152,425.19544 L 332.70406,425.19544 L 332.70406,422.21272 C 332.70406,420.90207 332.04182,418.84096 330.67236,418.84096 C 329.60723,418.84096 329.59167,419.92683 329.59167,421.17526 L 329.59167,425.19544 L 328.5542,425.19544 z M 355.2257,425.19544 L 355.2257,417.97641 L 356.26317,417.97641 L 356.26317,425.19544 L 355.2257,425.19544 z M 402.12778,425.19544 L 402.12778,417.97641 L 403.16524,417.97641 L 403.16524,425.19544 L 402.12778,425.19544 z M 404.67821,425.19544 L 407.44478,417.97641 L 408.48224,417.97641 L 410.903,425.19544 L 409.82231,425.19544 L 407.96351,419.48937 L 407.92029,419.48937 L 405.80213,425.19544 L 404.67821,425.19544 z M 429.87996,425.19544 L 429.87996,417.97641 L 430.91743,417.97641 L 430.91743,425.19544 L 429.87996,425.19544 z M 437.53127,425.19544 L 440.29784,417.97641 L 439.30361,415.03692 L 440.3843,415.03692 L 443.84252,425.19544 L 442.76182,425.19544 L 440.81658,419.5326 L 440.77335,419.5326 L 438.65519,425.19544 L 437.53127,425.19544 z M 480.02412,425.19544 L 480.02412,420.05133 C 480.02413,418.84956 480.63449,417.8035 481.88291,417.8035 C 483.49618,417.80354 483.94919,419.02597 484.13074,419.61905 L 484.17398,419.61905 L 484.17398,417.97641 L 485.21144,417.97641 L 485.21144,425.19544 L 484.17398,425.19544 L 484.17398,422.21272 C 484.17399,420.90207 483.51172,418.84096 482.14228,418.84096 C 481.07713,418.84096 481.06158,419.92683 481.06158,421.17526 L 481.06158,425.19544 L 480.02412,425.19544 z M 506.73884,425.19544 L 506.73884,417.97641 L 507.7763,417.97641 L 507.7763,425.19544 L 506.73884,425.19544 z M 174.6203,424.50379 C 175.66988,424.50379 176.0036,423.60638 176.0036,423.12051 L 173.10734,423.12051 C 173.19897,423.60637 173.53962,424.50379 174.6203,424.50379 z M 200.94598,424.50379 C 201.99556,424.50379 202.32928,423.60638 202.32928,423.12051 L 199.43302,423.12051 C 199.52465,423.60637 199.8653,424.50379 200.94598,424.50379 z M 211.70969,424.50379 C 212.80421,424.50379 213.39557,423.17584 213.39557,421.5643 C 213.39557,420.31764 212.85263,418.66805 211.66646,418.66805 C 210.29699,418.66801 210.15349,420.37641 210.15349,421.30494 C 210.15349,422.84038 210.47683,424.50379 211.70969,424.50379 z M 219.23131,424.50379 C 220.28088,424.50379 220.6146,423.60638 220.6146,423.12051 L 217.67511,423.12051 C 217.76674,423.60637 218.15061,424.50379 219.23131,424.50379 z M 253.51089,424.50379 C 254.56046,424.50379 254.89418,423.60638 254.89418,423.12051 L 251.99791,423.12051 C 252.08957,423.60637 252.43193,424.50379 253.51089,424.50379 z M 274.60602,424.50379 C 275.65558,424.50379 275.9893,423.60638 275.9893,423.12051 L 273.09304,423.12051 C 273.18468,423.60637 273.52532,424.50379 274.60602,424.50379 z M 291.07578,424.50379 C 292.1703,424.50379 292.76165,423.17584 292.76165,421.5643 C 292.76165,420.31764 292.21871,418.66805 291.03255,418.66805 C 289.66308,418.66801 289.51958,420.37641 289.51958,421.30494 C 289.51958,422.84038 289.84292,424.50379 291.07578,424.50379 z M 298.5974,424.50379 C 299.64696,424.50379 299.98068,423.60638 299.98068,423.12051 L 297.0412,423.12051 C 297.13284,423.60637 297.5167,424.50379 298.5974,424.50379 z M 323.4101,424.50379 C 324.50635,424.50379 325.09599,423.17584 325.09599,421.5643 C 325.09599,420.31764 324.55304,418.66805 323.36688,418.66805 C 321.9974,418.66801 321.8539,420.37641 321.8539,421.30494 C 321.8539,422.84038 322.17725,424.50379 323.4101,424.50379 z M 361.32081,424.50379 C 362.50696,424.5038 363.13637,423.37468 363.13637,421.5643 C 363.13637,419.73836 362.50698,418.66805 361.32081,418.66805 C 360.15019,418.66802 359.5917,419.73836 359.5917,421.5643 C 359.59172,423.37468 360.1502,424.50379 361.32081,424.50379 z M 414.66381,424.50379 C 415.71512,424.50379 416.04709,423.60638 416.04709,423.12051 L 413.10761,423.12051 C 413.19927,423.60637 413.58484,424.50379 414.66381,424.50379 z M 451.70996,424.50379 C 452.89615,424.5038 453.4823,423.37468 453.4823,421.5643 C 453.48229,419.73836 452.89613,418.66805 451.70996,418.66805 C 450.53937,418.66802 449.93762,419.73836 449.93762,421.5643 C 449.93762,423.37468 450.53936,424.50379 451.70996,424.50379 z M 474.88002,424.50379 C 475.97281,424.50379 476.56589,423.17584 476.56589,421.5643 C 476.56591,420.31764 476.02296,418.66805 474.83679,418.66805 C 473.46732,418.66801 473.36705,420.37641 473.36705,421.30494 C 473.36703,422.84038 473.64716,424.50379 474.88002,424.50379 z M 512.83395,424.50379 C 514.01839,424.5038 514.60629,423.37468 514.60629,421.5643 C 514.60627,419.73836 514.01839,418.66805 512.83395,418.66805 C 511.65989,418.66802 511.06162,419.73836 511.06162,421.5643 C 511.06162,423.37468 511.65989,424.50379 512.83395,424.50379 z M 377.61765,423.55278 L 377.61765,422.03981 L 379.0874,422.03981 L 379.0874,423.55278 L 377.61765,423.55278 z M 345.84528,421.26171 L 346.45048,421.26171 C 346.45047,420.39369 346.3744,420.21733 346.19111,419.79196 C 345.88678,419.09342 345.15883,418.66805 344.50523,418.66805 C 343.9744,418.66802 343.46776,419.02251 343.46776,419.70551 C 343.46775,420.94007 345.08621,421.26171 345.84528,421.26171 z M 497.35843,421.26171 L 497.96361,421.26171 C 497.96361,420.39369 497.84431,420.21733 497.66102,419.79196 C 497.35671,419.09342 496.63048,418.66805 495.97514,418.66805 C 495.44432,418.66802 494.9809,419.02251 494.9809,419.70551 C 494.9809,420.94007 496.59762,421.26171 497.35843,421.26171 z" id="path67" style="fill:#ffffff;fill-opacity:1;fill-rule:evenodd;stroke:none"/>
    </g>
  </g>
</svg>