<?xml version="1.0" encoding="UTF-8" standalone="no"?>
<!DOCTYPE svg PUBLIC "-//W3C//DTD SVG 1.1//EN" "http://www.w3.org/Graphics/SVG/1.1/DTD/svg11.dtd">
<svg width="100%" height="100%" viewBox="0 0 2371 1042" version="1.1" xmlns="http://www.w3.org/2000/svg" xmlns:xlink="http://www.w3.org/1999/xlink" xml:space="preserve" xmlns:serif="http://www.serif.com/" style="fill-rule:evenodd;clip-rule:evenodd;stroke-linejoin:round;stroke-miterlimit:2;">
    <g transform="matrix(4.16667,0,0,4.16667,0,0)">
        <clipPath id="_clip1">
            <rect x="53.745" y="54.532" width="460.818" height="141.722"/>
        </clipPath>
        <g clip-path="url(#_clip1)">
            <path d="M514.564,111.752L514.564,108.058C514.003,107.981 513.357,107.943 512.63,107.943C510.662,107.943 509.105,108.8 507.959,110.518L507.529,108.354L503.642,108.354L503.642,128.597L507.959,128.597L507.959,117.726C507.959,115.702 508.311,114.2 509.014,113.221C509.717,112.241 510.806,111.752 512.278,111.752L514.564,111.752ZM486.347,123.659C485.404,122.57 484.91,121.267 484.871,119.744L498.785,119.744C498.836,119.288 498.863,118.65 498.863,117.829C498.863,114.781 498.041,112.371 496.398,110.601C494.759,108.828 492.531,107.943 489.719,107.943C486.904,107.943 484.647,108.913 482.948,110.852C481.247,112.794 480.396,115.335 480.396,118.475C480.396,121.587 481.288,124.119 483.064,126.064C484.844,128.013 487.125,128.986 489.913,128.986C491.229,128.986 492.439,128.801 493.54,128.426C494.641,128.054 495.554,127.553 496.277,126.925C497.001,126.297 497.594,125.628 498.063,124.921C498.534,124.215 498.891,123.468 499.14,122.683C496.808,122.001 495.484,121.62 495.174,121.543C494.691,122.843 493.983,123.795 493.051,124.395C492.119,124.994 491.074,125.293 489.913,125.293C488.48,125.293 487.293,124.75 486.347,123.659ZM485.087,116.521C485.151,115.189 485.599,114.041 486.425,113.08C487.252,112.119 488.35,111.636 489.719,111.636C491.162,111.636 492.265,112.066 493.021,112.925C493.775,113.783 494.187,114.982 494.252,116.521L485.087,116.521ZM483.023,147.118C480.209,147.118 477.952,148.09 476.253,150.03C474.553,151.972 473.703,154.512 473.703,157.649C473.703,160.764 474.592,163.295 476.369,165.242C478.148,167.19 480.43,168.163 483.218,168.163C484.534,168.163 485.744,167.976 486.845,167.602C487.947,167.229 488.858,166.729 489.583,166.1C490.306,165.472 490.902,164.805 491.37,164.1C491.84,163.39 492.197,162.645 492.446,161.859C490.112,161.177 488.791,160.796 488.479,160.718C487.996,162.02 487.288,162.971 486.356,163.571C485.424,164.17 484.377,164.469 483.218,164.469C481.785,164.469 480.597,163.925 479.651,162.835C478.708,161.748 478.217,160.441 478.178,158.92L492.09,158.92C492.142,158.464 492.168,157.826 492.168,157.005C492.168,153.957 491.348,151.548 489.705,149.775C488.065,148.005 485.838,147.118 483.023,147.118ZM479.729,152.256C480.558,151.293 481.656,150.811 483.023,150.811C484.469,150.811 485.569,151.241 486.325,152.101C487.081,152.96 487.491,154.158 487.557,155.695L478.393,155.695C478.457,154.364 478.904,153.22 479.729,152.256ZM472.161,128.597L476.127,128.597L476.127,100.42L471.81,100.42L471.81,110.795C471.327,110.105 470.542,109.456 469.453,108.851C468.367,108.246 467.205,107.943 465.967,107.943C463.257,107.943 461.118,108.905 459.548,110.827C457.979,112.75 457.193,115.288 457.193,118.446C457.193,121.554 458.018,124.087 459.666,126.047C461.314,128.006 463.414,128.986 465.967,128.986C467.257,128.986 468.442,128.668 469.523,128.035C470.604,127.399 471.366,126.73 471.81,126.029L472.161,128.597ZM471.81,118.446C471.81,120.637 471.37,122.326 470.49,123.514C469.61,124.701 468.384,125.293 466.808,125.293C465.218,125.293 463.95,124.694 463.007,123.496C462.062,122.292 461.589,120.611 461.589,118.446C461.589,116.292 462.062,114.617 463.007,113.425C463.95,112.231 465.218,111.636 466.808,111.636C468.384,111.636 469.61,112.225 470.49,113.406C471.37,114.586 471.81,116.266 471.81,118.446ZM451.974,167.77L456.29,167.77L456.29,156.732C456.29,153.462 455.652,151.045 454.381,149.482C453.106,147.921 451.063,147.131 448.254,147.118C447.053,147.118 445.986,147.375 445.051,147.889C444.117,148.403 443.396,149.009 442.886,149.705L442.886,139.596L438.568,139.596L438.568,167.77L442.886,167.77L442.886,156.757C442.886,152.794 444.39,150.811 447.399,150.811C449.002,150.839 450.166,151.314 450.888,152.245C451.61,153.174 451.974,154.679 451.974,156.757L451.974,167.77ZM439.978,128.597L444.297,128.597L444.297,117.595C444.297,114.287 443.672,111.855 442.425,110.295C441.177,108.742 439.121,107.955 436.261,107.943C435.072,107.943 433.975,108.21 432.967,108.743C431.963,109.278 431.27,109.876 430.891,110.542L430.462,108.354L426.574,108.354L426.574,128.597L430.891,128.597L430.891,117.595C430.891,113.622 432.396,111.636 435.405,111.636C436.995,111.636 438.154,112.11 438.884,113.062C439.611,114.014 439.978,115.523 439.978,117.595L439.978,128.597ZM431.728,149.775C430.088,148.005 427.858,147.118 425.046,147.118C422.231,147.118 419.977,148.09 418.277,150.03C416.576,151.972 415.726,154.512 415.726,157.649C415.726,160.764 416.615,163.295 418.394,165.242C420.171,167.19 422.454,168.163 425.242,168.163C426.557,168.163 427.767,167.976 428.869,167.602C429.97,167.229 430.882,166.729 431.606,166.1C432.328,165.472 432.925,164.805 433.393,164.1C433.861,163.39 434.22,162.645 434.469,161.859C432.135,161.177 430.813,160.796 430.501,160.718C430.019,162.02 429.313,162.971 428.379,163.571C427.448,164.17 426.401,164.469 425.242,164.469C423.808,164.469 422.62,163.925 421.675,162.835C420.731,161.748 420.239,160.441 420.2,158.92L434.112,158.92C434.163,158.464 434.19,157.826 434.19,157.005C434.19,153.957 433.369,151.548 431.728,149.775ZM429.579,155.695L420.414,155.695C420.479,154.364 420.926,153.22 421.755,152.256C422.581,151.293 423.677,150.811 425.046,150.811C426.491,150.811 427.592,151.241 428.348,152.101C429.103,152.96 429.514,154.158 429.579,155.695ZM420.816,108.354L416.498,108.354L416.498,128.597L420.816,128.597L420.816,108.354ZM416.225,105.265L421.09,105.265L421.09,100.42L416.225,100.42L416.225,105.265ZM407.538,167.77L411.856,167.77L411.856,139.596L407.538,139.596L407.538,167.77ZM397.776,167.77L402.096,167.77L402.096,139.596L397.776,139.596L397.776,167.77ZM397.759,128.597L402.077,128.597L402.077,117.595C402.077,114.287 401.452,111.855 400.206,110.295C398.959,108.742 396.903,107.955 394.041,107.943C392.854,107.943 391.757,108.21 390.749,108.743C389.743,109.278 389.052,109.876 388.673,110.542L388.242,108.354L384.355,108.354L384.355,128.597L388.673,128.597L388.673,117.595C388.673,113.622 390.177,111.636 393.186,111.636C394.775,111.636 395.934,112.11 396.664,113.062C397.394,114.014 397.759,115.523 397.759,117.595L397.759,128.597ZM383.481,164.469C381.893,164.444 380.737,163.964 380.014,163.028C379.29,162.093 378.929,160.593 378.929,158.531L378.929,147.528L374.611,147.528L374.611,158.568C374.611,161.865 375.224,164.286 376.446,165.836C377.673,167.388 379.672,168.163 382.446,168.163C383.709,168.163 384.851,167.894 385.864,167.358C386.882,166.824 387.585,166.226 387.976,165.564L388.406,167.77L392.293,167.77L392.293,147.528L387.976,147.528L387.976,158.531C387.976,160.528 387.607,162.019 386.874,162.999C386.136,163.98 385.006,164.469 383.481,164.469ZM377.619,126.087C379.315,124.153 380.162,121.607 380.162,118.446C380.162,115.314 379.311,112.781 377.609,110.846C375.907,108.912 373.616,107.943 370.734,107.943C367.82,107.943 365.522,108.905 363.835,110.827C362.15,112.75 361.307,115.288 361.307,118.446C361.307,121.607 362.15,124.153 363.835,126.087C365.522,128.019 367.82,128.986 370.734,128.986C373.629,128.986 375.923,128.019 377.619,126.087ZM375.845,118.446C375.845,120.622 375.386,122.311 374.47,123.504C373.554,124.698 372.308,125.293 370.734,125.293C369.148,125.293 367.9,124.698 366.991,123.504C366.08,122.311 365.626,120.622 365.626,118.446C365.626,116.279 366.08,114.602 366.991,113.415C367.9,112.229 369.148,111.636 370.734,111.636C372.296,111.636 373.536,112.231 374.46,113.425C375.382,114.617 375.845,116.292 375.845,118.446ZM359.399,94.492C361.122,92.907 361.98,90.657 361.98,87.739L361.98,68.338L358.015,68.338L357.663,70.935C357.271,70.167 356.54,69.475 355.472,68.855C354.399,68.237 353.231,67.926 351.966,67.926C349.344,67.926 347.205,68.903 345.549,70.858C343.896,72.814 343.067,75.338 343.067,78.429C343.067,81.525 343.911,84.055 345.6,86.022C347.285,87.988 349.409,88.971 351.966,88.971C353.142,88.971 354.283,88.696 355.392,88.146C356.5,87.597 357.258,86.938 357.663,86.171L357.663,87.69C357.663,89.355 357.236,90.684 356.381,91.681C355.525,92.673 354.283,93.172 352.65,93.172C351.542,93.172 350.556,92.91 349.695,92.392C348.832,91.87 348.293,91.206 348.07,90.397L343.861,91.553C344.304,93.219 345.307,94.519 346.871,95.458C348.438,96.395 350.363,96.865 352.65,96.865C355.43,96.865 357.68,96.073 359.399,94.492ZM357.663,78.429C357.663,80.621 357.224,82.31 356.342,83.496C355.459,84.684 354.23,85.278 352.65,85.278C351.033,85.278 349.751,84.68 348.805,83.487C347.857,82.293 347.385,80.607 347.385,78.429C347.385,76.277 347.857,74.602 348.805,73.411C349.751,72.216 351.033,71.62 352.65,71.62C354.23,71.62 355.459,72.209 356.342,73.39C357.224,74.571 357.663,76.25 357.663,78.429ZM339.323,102.452L339.323,108.354L335.845,108.354L335.845,111.577L339.323,111.577L339.323,122.812C339.323,124.838 339.704,126.333 340.466,127.301C341.227,128.269 342.528,128.752 344.363,128.752L344.873,128.752L347.452,128.597L347.452,125.118C347.217,125.118 346.887,125.131 346.454,125.155C346.024,125.183 345.714,125.196 345.518,125.196C344.814,125.196 344.325,125.046 344.052,124.745C343.777,124.442 343.642,123.893 343.642,123.097L343.642,111.577L347.841,111.577L347.841,108.354L343.642,108.354L343.642,102.452L339.323,102.452ZM334.968,88.58L339.287,88.58L339.287,77.578C339.287,74.27 338.662,71.838 337.416,70.28C336.167,68.725 334.112,67.939 331.251,67.926C330.062,67.926 328.965,68.194 327.959,68.727C326.953,69.263 326.262,69.862 325.882,70.525L325.452,68.338L321.564,68.338L321.564,88.58L325.882,88.58L325.882,77.578C325.882,73.606 327.387,71.62 330.396,71.62C331.983,71.62 333.145,72.096 333.872,73.045C334.602,73.996 334.968,75.509 334.968,77.578L334.968,88.58ZM324.354,107.943C322.896,107.943 321.576,108.174 320.397,108.637C319.218,109.098 318.226,109.832 317.417,110.835C316.609,111.837 316.134,113.062 315.991,114.508C316.485,114.586 317.211,114.72 318.168,114.908C319.126,115.098 319.828,115.23 320.27,115.308C320.311,114.11 320.684,113.198 321.393,112.573C322.103,111.948 323.089,111.636 324.354,111.636C325.071,111.636 325.695,111.715 326.229,111.87C326.764,112.025 327.182,112.225 327.489,112.467C327.795,112.707 328.047,113 328.242,113.343C328.437,113.69 328.563,114.017 328.623,114.321C328.682,114.63 328.711,114.957 328.711,115.308L328.711,116.521L323.514,116.521C320.973,116.521 318.963,117.109 317.484,118.285C316.006,119.463 315.267,120.882 315.267,122.547C315.267,124.493 315.935,126.05 317.271,127.226C318.604,128.398 320.432,128.986 322.752,128.986C324.25,128.948 325.535,128.616 326.609,127.994C327.685,127.371 328.508,126.703 329.082,125.981C329.252,126.859 329.632,127.56 330.226,128.083C330.817,128.607 331.61,128.869 332.6,128.869C333.484,128.869 334.338,128.765 335.157,128.556L335.157,125.019C334.899,125.124 334.554,125.177 334.124,125.177C333.72,125.177 333.436,125.019 333.272,124.709C333.11,124.398 333.028,123.931 333.028,123.308L333.028,116.266C333.028,113.503 332.299,111.428 330.842,110.034C329.382,108.64 327.22,107.943 324.354,107.943ZM328.711,119.744L328.711,120.756C328.711,121.952 328.216,123.013 327.227,123.94C326.236,124.868 324.907,125.332 323.241,125.332C322.016,125.332 321.111,125.062 320.533,124.524C319.954,123.986 319.663,123.326 319.663,122.547C319.663,122.263 319.725,121.973 319.85,121.682C319.974,121.389 320.18,121.092 320.466,120.786C320.752,120.48 321.193,120.231 321.794,120.035C322.394,119.842 323.11,119.744 323.944,119.744L328.711,119.744ZM312.233,88.58L316.122,88.58L316.122,68.338L311.805,68.338L311.805,79.339C311.805,81.337 311.436,82.829 310.699,83.808C309.964,84.788 308.834,85.278 307.31,85.278C305.722,85.252 304.563,84.771 303.843,83.836C303.118,82.902 302.758,81.402 302.758,79.339L302.758,68.338L298.439,68.338L298.439,79.376C298.439,82.673 299.051,85.095 300.277,86.643C301.501,88.196 303.501,88.971 306.275,88.971C307.538,88.971 308.678,88.703 309.695,88.166C310.709,87.631 311.412,87.033 311.805,86.372L312.233,88.58ZM299.039,108.354L294.506,108.354L302.068,128.597L306.346,128.597L313.869,108.354L309.355,108.354L304.197,123.319L299.039,108.354ZM290.194,71.562L294.394,71.562L294.394,68.338L290.194,68.338L290.194,62.436L285.875,62.436L285.875,68.338L282.396,68.338L282.396,71.562L285.875,71.562L285.875,82.796C285.875,84.822 286.258,86.318 287.02,87.285C287.78,88.253 289.08,88.735 290.917,88.735L291.426,88.735L294.004,88.58L294.004,85.101C293.769,85.101 293.438,85.115 293.007,85.141C292.576,85.167 292.266,85.178 292.069,85.178C291.366,85.178 290.878,85.03 290.604,84.728C290.331,84.428 290.194,83.878 290.194,83.079L290.194,71.562ZM277.931,64.098L280.374,64.098L280.374,60.404L277.404,60.404C273.692,60.404 271.835,62.221 271.835,65.856L271.835,68.338L268.357,68.338L268.357,71.562L271.835,71.562L271.835,88.58L276.155,88.58L276.155,71.562L279.963,71.562L279.963,68.338L276.155,68.338L276.155,66.129C276.155,64.774 276.747,64.098 277.931,64.098ZM259.661,65.25L264.527,65.25L264.527,60.404L259.661,60.404L259.661,65.25ZM259.935,88.58L264.254,88.58L264.254,68.338L259.935,68.338L259.935,88.58ZM262.817,107.943C261.627,107.943 260.528,108.21 259.521,108.743C258.518,109.278 257.824,109.876 257.446,110.542L257.018,108.354L253.129,108.354L253.129,128.597L257.446,128.597L257.446,117.595C257.446,113.622 258.95,111.636 261.959,111.636C263.549,111.636 264.709,112.11 265.437,113.062C266.167,114.014 266.532,115.523 266.532,117.595L266.532,128.597L270.851,128.597L270.851,117.595C270.851,114.287 270.227,111.855 268.979,110.295C267.731,108.742 265.677,107.955 262.817,107.943ZM250.772,71.562L254.972,71.562L254.972,68.338L250.772,68.338L250.772,62.436L246.454,62.436L246.454,68.338L242.975,68.338L242.975,71.562L246.454,71.562L246.454,82.796C246.454,84.822 246.836,86.318 247.598,87.285C248.359,88.253 249.659,88.735 251.495,88.735L252.004,88.735L254.583,88.58L254.583,85.101C254.347,85.101 254.017,85.115 253.585,85.141C253.155,85.167 252.844,85.178 252.648,85.178C251.945,85.178 251.456,85.03 251.183,84.728C250.91,84.428 250.772,83.878 250.772,83.079L250.772,71.562ZM241.167,80.488C241.167,79.567 241.05,78.728 240.813,77.977C240.58,77.223 240.275,76.582 239.901,76.049C239.529,75.517 239.052,75.044 238.47,74.63C237.886,74.213 237.315,73.879 236.753,73.626C236.19,73.373 235.524,73.145 234.751,72.944C233.979,72.742 233.302,72.596 232.72,72.508C232.138,72.415 231.462,72.326 230.694,72.233C226.527,71.768 224.442,70.418 224.442,68.184C224.442,67.432 224.61,66.764 224.95,66.179C225.289,65.595 225.737,65.138 226.298,64.808C226.857,64.476 227.471,64.228 228.136,64.068C228.798,63.903 229.49,63.823 230.205,63.823C230.936,63.823 231.629,63.922 232.287,64.114C232.946,64.31 233.556,64.601 234.123,64.992C234.69,65.383 235.158,65.913 235.531,66.588C235.902,67.263 236.126,68.041 236.203,68.924L240.522,68.224C240.47,66.971 240.146,65.821 239.549,64.772C238.954,63.725 238.175,62.857 237.212,62.174C236.249,61.489 235.16,60.958 233.95,60.58C232.738,60.203 231.49,60.014 230.205,60.014C229.229,60.014 228.272,60.11 227.333,60.307C226.396,60.503 225.485,60.814 224.599,61.245C223.712,61.676 222.934,62.199 222.262,62.818C221.593,63.438 221.055,64.208 220.651,65.136C220.249,66.06 220.046,67.077 220.046,68.184C220.046,72.714 223.516,75.316 230.46,75.991C231.021,76.031 231.524,76.084 231.974,76.156C232.424,76.228 232.9,76.332 233.4,76.468C233.902,76.605 234.339,76.783 234.71,77.004C235.082,77.223 235.423,77.492 235.735,77.803C236.048,78.112 236.285,78.496 236.449,78.951C236.612,79.404 236.692,79.917 236.692,80.488C236.692,81.942 236.097,83.083 234.906,83.914C233.714,84.745 232.231,85.161 230.46,85.161C229.315,85.161 228.288,84.959 227.382,84.559C226.478,84.155 225.771,83.635 225.261,82.998C224.754,82.364 224.372,81.695 224.11,80.995C223.848,80.293 223.719,79.592 223.719,78.893L219.245,79.69C219.271,80.565 219.421,81.43 219.694,82.281C219.968,83.129 220.397,83.963 220.983,84.781C221.57,85.601 222.283,86.316 223.124,86.932C223.963,87.545 225.016,88.038 226.278,88.412C227.542,88.784 228.936,88.971 230.46,88.971C233.636,88.971 236.215,88.189 238.197,86.624C240.177,85.06 241.167,83.013 241.167,80.488ZM110.416,196.254L179.857,167.772L179.729,80.063L123.067,54.533L53.789,82.95L53.746,170.715L110.416,196.254ZM58.143,130.977L108.289,153.257L108.27,190.482L58.126,167.887L58.143,130.977ZM58.149,117.612L120.819,91.911L120.816,97.483L58.148,123.183L58.149,117.612ZM58.154,106.905L120.824,81.205L120.821,87.177L58.151,112.879L58.154,106.905ZM58.161,96.122L120.829,70.421L120.826,76.469L58.158,102.171L58.161,96.122ZM120.835,60.179L120.833,65.688L58.161,91.391L58.164,85.888L120.835,60.179ZM175.408,119.839L125.194,97.528L125.212,60.302L175.352,82.894L175.408,119.839ZM175.427,133.134L112.662,158.876L112.666,153.303L175.417,127.566L175.427,133.134ZM175.442,143.829L112.659,169.581L112.659,163.608L175.434,137.863L175.442,143.829ZM175.46,154.606L112.652,180.364L112.656,174.313L175.45,148.559L175.46,154.606ZM112.646,190.605L112.649,185.099L175.467,159.334L175.477,164.837L112.646,190.605ZM110.511,149.453L60.172,127.087L122.97,101.33L173.31,123.698L110.511,149.453ZM224.931,100.42L220.457,100.42L220.457,128.595L224.931,128.595L224.931,100.42ZM224.931,139.596L220.457,139.596L220.457,167.77L224.931,167.77L224.931,155.208L237.006,155.208L237.006,167.77L241.48,167.77L241.48,139.596L237.006,139.596L237.006,151.397L224.931,151.397L224.931,139.596ZM239.204,111.636C240.793,111.636 241.955,112.11 242.683,113.062C243.414,114.014 243.778,115.523 243.778,117.595L243.778,128.597L248.095,128.597L248.095,117.595C248.095,114.287 247.472,111.855 246.225,110.295C244.977,108.742 242.923,107.955 240.061,107.943C238.874,107.943 237.775,108.21 236.768,108.743C235.762,109.278 235.07,109.876 234.692,110.542L234.26,108.354L230.373,108.354L230.373,128.597L234.692,128.597L234.692,117.595C234.692,113.622 236.195,111.636 239.204,111.636ZM247.499,150.003C245.813,151.925 244.97,154.464 244.97,157.622C244.97,160.781 245.813,163.331 247.499,165.262C249.183,167.195 251.484,168.163 254.398,168.163C257.292,168.163 259.584,167.195 261.282,165.262C262.977,163.331 263.824,160.781 263.824,157.622C263.824,154.49 262.974,151.959 261.271,150.022C259.569,148.086 257.278,147.118 254.398,147.118C251.484,147.118 249.183,148.08 247.499,150.003ZM249.288,157.622C249.288,155.455 249.742,153.778 250.653,152.593C251.563,151.406 252.81,150.811 254.398,150.811C255.957,150.811 257.198,151.409 258.122,152.602C259.045,153.795 259.506,155.468 259.506,157.622C259.506,159.8 259.049,161.486 258.133,162.679C257.216,163.872 255.971,164.469 254.398,164.469C252.81,164.469 251.563,163.872 250.653,162.679C249.742,161.486 249.288,159.8 249.288,157.622ZM269.015,150.022C267.276,151.959 266.406,154.49 266.406,157.622C266.406,160.794 267.276,163.346 269.015,165.271C270.753,167.2 273.077,168.163 275.979,168.163C277.258,168.163 278.426,167.969 279.489,167.581C280.549,167.195 281.434,166.672 282.145,166.018C282.854,165.363 283.432,164.644 283.874,163.864C284.316,163.084 284.629,162.262 284.812,161.396C282.598,160.968 281.172,160.701 280.534,160.597C280.207,161.843 279.657,162.8 278.882,163.468C278.107,164.136 277.152,164.469 276.019,164.469C274.353,164.469 273.067,163.851 272.161,162.611C271.255,161.372 270.802,159.71 270.802,157.622C270.802,155.545 271.255,153.892 272.161,152.66C273.067,151.427 274.353,150.811 276.019,150.811C277.087,150.811 278.009,151.14 278.786,151.794C279.56,152.449 280.117,153.404 280.454,154.663C280.703,154.626 282.128,154.357 284.733,153.865C284.563,153.15 284.33,152.476 284.03,151.838C283.731,151.201 283.333,150.59 282.84,150.006C282.344,149.421 281.777,148.919 281.139,148.503C280.5,148.088 279.738,147.753 278.853,147.499C277.966,147.246 277.01,147.118 275.979,147.118C273.077,147.118 270.753,148.086 269.015,150.022ZM290.982,126.087C292.68,124.153 293.526,121.607 293.526,118.446C293.526,115.314 292.677,112.781 290.973,110.846C289.271,108.912 286.98,107.943 284.099,107.943C281.185,107.943 278.886,108.905 277.2,110.827C275.515,112.75 274.671,115.288 274.671,118.446C274.671,121.607 275.515,124.153 277.2,126.087C278.886,128.019 281.185,128.986 284.099,128.986C286.992,128.986 289.288,128.019 290.982,126.087ZM289.208,118.446C289.208,120.622 288.75,122.311 287.832,123.504C286.917,124.698 285.672,125.293 284.099,125.293C282.513,125.293 281.265,124.698 280.354,123.504C279.445,122.311 278.989,120.622 278.989,118.446C278.989,116.279 279.445,114.602 280.354,113.415C281.265,112.229 282.513,111.636 284.099,111.636C285.659,111.636 286.9,112.231 287.824,113.425C288.747,114.617 289.208,116.292 289.208,118.446ZM293.061,139.596L288.742,139.596L288.742,167.77L293.061,167.77L293.061,156.757C293.061,152.794 294.565,150.811 297.574,150.811C299.177,150.839 300.338,151.314 301.063,152.245C301.783,153.174 302.145,154.679 302.145,156.757L302.145,167.77L306.464,167.77L306.464,156.732C306.464,153.462 305.826,151.045 304.554,149.482C303.28,147.921 301.237,147.131 298.43,147.118C297.228,147.118 296.161,147.375 295.225,147.889C294.292,148.403 293.569,149.009 293.061,149.705L293.061,139.596ZM314.33,160.968C314.306,160.968 312.891,161.232 310.09,161.764C310.389,163.683 311.29,165.227 312.796,166.402C314.301,167.574 316.309,168.163 318.824,168.163C321.337,168.163 323.399,167.596 325.007,166.459C326.616,165.324 327.423,163.722 327.423,161.646C327.423,160.744 327.266,159.945 326.958,159.254C326.647,158.562 326.252,158.006 325.766,157.586C325.28,157.166 324.647,156.808 323.865,156.512C323.082,156.212 322.32,156.006 321.576,155.889C320.832,155.77 319.955,155.635 318.941,155.477C317.612,155.346 316.626,155.12 315.981,154.793C315.336,154.469 315.014,153.921 315.014,153.154C315.014,152.518 315.349,151.967 316.02,151.504C316.691,151.041 317.542,150.811 318.57,150.811C321.149,150.811 322.563,151.952 322.81,154.235C325.174,153.782 326.6,153.516 327.086,153.438C326.941,152.347 326.614,151.387 326.104,150.562C325.593,149.736 324.946,149.074 324.161,148.582C323.377,148.088 322.507,147.72 321.552,147.479C320.597,147.239 319.564,147.118 318.452,147.118C316.277,147.118 314.441,147.695 312.943,148.854C311.445,150.013 310.696,151.442 310.696,153.145C310.696,154.073 310.835,154.878 311.115,155.562C311.396,156.248 311.775,156.788 312.258,157.177C312.74,157.571 313.29,157.894 313.909,158.146C314.527,158.403 315.182,158.58 315.872,158.685C316.563,158.786 317.249,158.891 317.935,158.99C318.614,159.096 319.267,159.191 319.887,159.285C320.503,159.378 321.055,159.508 321.538,159.673C322.021,159.841 322.403,160.091 322.684,160.425C322.963,160.759 323.104,161.177 323.104,161.678C323.104,162.255 322.924,162.749 322.565,163.161C322.207,163.571 321.756,163.859 321.218,164.027C320.677,164.192 320.214,164.311 319.829,164.372C319.445,164.436 319.11,164.469 318.824,164.469C316.231,164.469 314.733,163.302 314.33,160.968ZM332.97,150.022C331.231,151.959 330.362,154.49 330.362,157.622C330.362,160.794 331.231,163.346 332.97,165.271C334.71,167.2 337.031,168.163 339.938,168.163C341.213,168.163 342.381,167.969 343.444,167.581C344.504,167.195 345.39,166.672 346.1,166.018C346.81,165.363 347.389,164.644 347.83,163.864C348.273,163.084 348.587,162.262 348.769,161.396C346.555,160.968 345.127,160.701 344.489,160.597C344.165,161.843 343.614,162.8 342.839,163.468C342.062,164.136 341.11,164.469 339.977,164.469C338.309,164.469 337.021,163.851 336.116,162.611C335.21,161.372 334.759,159.71 334.759,157.622C334.759,155.545 335.21,153.892 336.116,152.66C337.021,151.427 338.309,150.811 339.977,150.811C341.045,150.811 341.966,151.14 342.739,151.794C343.515,152.449 344.072,153.404 344.41,154.663C344.659,154.626 346.085,154.357 348.69,153.865C348.521,153.15 348.288,152.476 347.987,151.838C347.688,151.201 347.29,150.59 346.795,150.006C346.299,149.421 345.733,148.919 345.096,148.503C344.458,148.088 343.695,147.753 342.81,147.499C341.923,147.246 340.967,147.118 339.938,147.118C337.031,147.118 334.71,148.086 332.97,150.022ZM357.037,100.42L352.172,100.42L352.172,105.265L357.037,105.265L357.037,100.42ZM356.762,108.354L352.443,108.354L352.443,128.597L356.762,128.597L356.762,108.354ZM357.018,139.596L352.698,139.596L352.698,167.77L357.018,167.77L357.018,156.757C357.018,152.794 358.521,150.811 361.529,150.811C363.132,150.839 364.295,151.314 365.018,152.245C365.74,153.174 366.104,154.679 366.104,156.757L366.104,167.77L370.42,167.77L370.42,156.732C370.42,153.462 369.784,151.045 368.509,149.482C367.234,147.921 365.194,147.131 362.386,147.118C361.183,147.118 360.116,147.375 359.183,147.889C358.247,148.403 357.525,149.009 357.018,149.705L357.018,139.596ZM464.616,147.528L460.728,147.528L460.728,167.77L465.046,167.77L465.046,156.902C465.046,154.878 465.397,153.377 466.101,152.398C466.804,151.419 467.894,150.929 469.365,150.929L471.651,150.929L471.651,147.234C471.09,147.157 470.444,147.118 469.717,147.118C467.749,147.118 466.192,147.978 465.046,149.692L464.616,147.528Z" style="fill:rgb(35,31,32);fill-rule:nonzero;"/>
        </g>
    </g>
</svg>
